<mxfile host="app.diagrams.net" modified="2024-04-10T17:27:10.776Z" agent="Mozilla/5.0 (Macintosh; Intel Mac OS X 10_15_7) AppleWebKit/537.36 (KHTML, like Gecko) Chrome/123.0.0.0 Safari/537.36" etag="ehbTPsVkrzn0_DneFGD3" version="24.2.1" type="google">
  <diagram id="0i6Ovc2o3pDQJq-evHc0" name="Meg">
    <mxGraphModel grid="1" page="1" gridSize="10" guides="1" tooltips="1" connect="1" arrows="1" fold="1" pageScale="1" pageWidth="850" pageHeight="1100" math="0" shadow="0">
      <root>
        <mxCell id="0" />
        <mxCell id="1" parent="0" />
        <mxCell id="Fm_4-P_1yy4wfb5h5vrD-19" value="Availability Zone" style="fillColor=none;strokeColor=#147EBA;dashed=1;verticalAlign=bottom;fontStyle=0;fontColor=#147EBA;whiteSpace=wrap;html=1;fontSize=10;" vertex="1" parent="1">
          <mxGeometry x="104.58" y="80" width="545.42" height="560" as="geometry" />
        </mxCell>
        <mxCell id="Fm_4-P_1yy4wfb5h5vrD-3" value="VPC 10.0.0.0/16" style="sketch=0;outlineConnect=0;gradientColor=none;html=1;whiteSpace=wrap;fontSize=10;fontStyle=0;shape=mxgraph.aws4.group;grIcon=mxgraph.aws4.group_vpc;strokeColor=#879196;fillColor=none;verticalAlign=top;align=left;spacingLeft=30;fontColor=#879196;dashed=0;" vertex="1" parent="1">
          <mxGeometry x="75" y="90" width="725" height="510" as="geometry" />
        </mxCell>
        <mxCell id="Fm_4-P_1yy4wfb5h5vrD-1" value="AWS Cloud" style="sketch=0;outlineConnect=0;gradientColor=none;html=1;whiteSpace=wrap;fontSize=10;fontStyle=0;shape=mxgraph.aws4.group;grIcon=mxgraph.aws4.group_aws_cloud;strokeColor=#AAB7B8;fillColor=none;verticalAlign=top;align=left;spacingLeft=30;fontColor=#AAB7B8;dashed=0;" vertex="1" parent="1">
          <mxGeometry x="15" y="10" width="805" height="650" as="geometry" />
        </mxCell>
        <mxCell id="Fm_4-P_1yy4wfb5h5vrD-2" value="Region" style="sketch=0;outlineConnect=0;gradientColor=none;html=1;whiteSpace=wrap;fontSize=10;fontStyle=0;shape=mxgraph.aws4.group;grIcon=mxgraph.aws4.group_region;strokeColor=#879196;fillColor=none;verticalAlign=top;align=left;spacingLeft=30;fontColor=#879196;dashed=1;" vertex="1" parent="1">
          <mxGeometry x="45" y="40" width="765" height="610" as="geometry" />
        </mxCell>
        <mxCell id="Fm_4-P_1yy4wfb5h5vrD-56" style="edgeStyle=orthogonalEdgeStyle;rounded=0;orthogonalLoop=1;jettySize=auto;html=1;fontSize=10;" edge="1" parent="1" source="Fm_4-P_1yy4wfb5h5vrD-4" target="Fm_4-P_1yy4wfb5h5vrD-9">
          <mxGeometry relative="1" as="geometry">
            <Array as="points">
              <mxPoint x="775" y="355" />
            </Array>
          </mxGeometry>
        </mxCell>
        <mxCell id="Fm_4-P_1yy4wfb5h5vrD-4" value="Private subnet - App Subnet&lt;div style=&quot;font-size: 10px;&quot;&gt;&lt;span style=&quot;color: rgb(0, 0, 0); font-family: Arial, Verdana, sans-serif; font-size: 10px;&quot;&gt;10.0.12.0/22&lt;/span&gt;&lt;br style=&quot;font-size: 10px;&quot;&gt;&lt;/div&gt;" style="points=[[0,0],[0.25,0],[0.5,0],[0.75,0],[1,0],[1,0.25],[1,0.5],[1,0.75],[1,1],[0.75,1],[0.5,1],[0.25,1],[0,1],[0,0.75],[0,0.5],[0,0.25]];outlineConnect=0;gradientColor=none;html=1;whiteSpace=wrap;fontSize=10;fontStyle=0;container=1;pointerEvents=0;collapsible=0;recursiveResize=0;shape=mxgraph.aws4.group;grIcon=mxgraph.aws4.group_security_group;grStroke=0;strokeColor=#00A4A6;fillColor=#E6F6F7;verticalAlign=bottom;align=left;spacingLeft=4;fontColor=#147EBA;dashed=0;" vertex="1" parent="1">
          <mxGeometry x="120" y="290" width="510" height="130" as="geometry" />
        </mxCell>
        <mxCell id="Fm_4-P_1yy4wfb5h5vrD-11" value="" style="sketch=0;points=[[0,0,0],[0.25,0,0],[0.5,0,0],[0.75,0,0],[1,0,0],[0,1,0],[0.25,1,0],[0.5,1,0],[0.75,1,0],[1,1,0],[0,0.25,0],[0,0.5,0],[0,0.75,0],[1,0.25,0],[1,0.5,0],[1,0.75,0]];outlineConnect=0;fontColor=#232F3E;fillColor=#ED7100;strokeColor=#ffffff;dashed=0;verticalLabelPosition=bottom;verticalAlign=top;align=center;html=1;fontSize=10;fontStyle=0;aspect=fixed;shape=mxgraph.aws4.resourceIcon;resIcon=mxgraph.aws4.ec2;" vertex="1" parent="Fm_4-P_1yy4wfb5h5vrD-4">
          <mxGeometry x="90" y="20" width="30" height="30" as="geometry" />
        </mxCell>
        <mxCell id="Fm_4-P_1yy4wfb5h5vrD-5" value="Public subnet&lt;div style=&quot;font-size: 10px;&quot;&gt;&lt;span style=&quot;color: rgb(0, 0, 0); font-family: Arial, Verdana, sans-serif; font-size: 10px;&quot;&gt;10.0.0.0/24&lt;/span&gt;&lt;br style=&quot;font-size: 10px;&quot;&gt;&lt;/div&gt;" style="points=[[0,0],[0.25,0],[0.5,0],[0.75,0],[1,0],[1,0.25],[1,0.5],[1,0.75],[1,1],[0.75,1],[0.5,1],[0.25,1],[0,1],[0,0.75],[0,0.5],[0,0.25]];outlineConnect=0;gradientColor=none;html=1;whiteSpace=wrap;fontSize=10;fontStyle=0;container=1;pointerEvents=0;collapsible=0;recursiveResize=0;shape=mxgraph.aws4.group;grIcon=mxgraph.aws4.group_security_group;grStroke=0;strokeColor=#7AA116;fillColor=#F2F6E8;verticalAlign=bottom;align=left;spacingLeft=4;fontColor=#248814;dashed=0;labelPosition=center;verticalLabelPosition=middle;" vertex="1" parent="1">
          <mxGeometry x="120" y="130" width="126" height="130" as="geometry" />
        </mxCell>
        <mxCell id="Fm_4-P_1yy4wfb5h5vrD-10" value="" style="sketch=0;points=[[0,0,0],[0.25,0,0],[0.5,0,0],[0.75,0,0],[1,0,0],[0,1,0],[0.25,1,0],[0.5,1,0],[0.75,1,0],[1,1,0],[0,0.25,0],[0,0.5,0],[0,0.75,0],[1,0.25,0],[1,0.5,0],[1,0.75,0]];outlineConnect=0;fontColor=#232F3E;fillColor=#ED7100;strokeColor=#ffffff;dashed=0;verticalLabelPosition=bottom;verticalAlign=top;align=center;html=1;fontSize=10;fontStyle=0;aspect=fixed;shape=mxgraph.aws4.resourceIcon;resIcon=mxgraph.aws4.ec2;" vertex="1" parent="Fm_4-P_1yy4wfb5h5vrD-5">
          <mxGeometry x="90" y="50" width="30" height="30" as="geometry" />
        </mxCell>
        <mxCell id="Fm_4-P_1yy4wfb5h5vrD-55" style="edgeStyle=orthogonalEdgeStyle;rounded=0;orthogonalLoop=1;jettySize=auto;html=1;fontSize=10;" edge="1" parent="1" source="Fm_4-P_1yy4wfb5h5vrD-6" target="Fm_4-P_1yy4wfb5h5vrD-9">
          <mxGeometry relative="1" as="geometry">
            <Array as="points">
              <mxPoint x="775" y="505" />
            </Array>
          </mxGeometry>
        </mxCell>
        <mxCell id="Fm_4-P_1yy4wfb5h5vrD-6" value="Private subnet - Resources Subnet&lt;div style=&quot;font-size: 10px;&quot;&gt;&lt;span style=&quot;color: rgb(0, 0, 0); font-family: Arial, Verdana, sans-serif; font-size: 10px;&quot;&gt;10.0.4.0/23&lt;/span&gt;&lt;br style=&quot;font-size: 10px;&quot;&gt;&lt;/div&gt;" style="points=[[0,0],[0.25,0],[0.5,0],[0.75,0],[1,0],[1,0.25],[1,0.5],[1,0.75],[1,1],[0.75,1],[0.5,1],[0.25,1],[0,1],[0,0.75],[0,0.5],[0,0.25]];outlineConnect=0;gradientColor=none;html=1;fontSize=10;fontStyle=0;container=1;pointerEvents=0;collapsible=0;recursiveResize=0;shape=mxgraph.aws4.group;grIcon=mxgraph.aws4.group_security_group;grStroke=0;strokeColor=#00A4A6;fillColor=#E6F6F7;verticalAlign=bottom;align=left;spacingLeft=4;fontColor=#147EBA;dashed=0;" vertex="1" parent="1">
          <mxGeometry x="120" y="440" width="250" height="130" as="geometry" />
        </mxCell>
        <mxCell id="Fm_4-P_1yy4wfb5h5vrD-12" value="" style="outlineConnect=0;dashed=0;verticalLabelPosition=bottom;verticalAlign=top;align=center;html=1;shape=mxgraph.aws3.rds_db_instance;fillColor=#2E73B8;gradientColor=none;fontSize=10;" vertex="1" parent="Fm_4-P_1yy4wfb5h5vrD-6">
          <mxGeometry x="200" y="30" width="30" height="41.5" as="geometry" />
        </mxCell>
        <mxCell id="5yfhdWzZeoEwGh_z6bRw-4" value="&lt;div style=&quot;font-size: 10px;&quot;&gt;&lt;span style=&quot;background-color: initial; font-size: 10px;&quot;&gt;SG-Resources&lt;/span&gt;&lt;/div&gt;" style="fontStyle=0;verticalAlign=top;align=left;spacingTop=-2;fillColor=none;rounded=0;whiteSpace=wrap;html=1;strokeColor=#FF0000;strokeWidth=2;dashed=1;container=1;collapsible=0;expand=0;recursiveResize=0;fontSize=10;" vertex="1" parent="Fm_4-P_1yy4wfb5h5vrD-6">
          <mxGeometry x="-40" y="25.75" width="280" height="50" as="geometry" />
        </mxCell>
        <mxCell id="Fm_4-P_1yy4wfb5h5vrD-7" value="" style="sketch=0;outlineConnect=0;fontColor=#232F3E;gradientColor=none;fillColor=#8C4FFF;strokeColor=none;dashed=0;verticalLabelPosition=bottom;verticalAlign=top;align=center;html=1;fontSize=10;fontStyle=0;aspect=fixed;pointerEvents=1;shape=mxgraph.aws4.internet_gateway;" vertex="1" parent="1">
          <mxGeometry x="410" y="-8" width="30" height="30" as="geometry" />
        </mxCell>
        <mxCell id="Fm_4-P_1yy4wfb5h5vrD-8" value="Public RT" style="sketch=0;outlineConnect=0;fontColor=#232F3E;gradientColor=none;fillColor=#8C4FFF;strokeColor=none;dashed=0;verticalLabelPosition=bottom;verticalAlign=top;align=center;html=1;fontSize=10;fontStyle=0;aspect=fixed;pointerEvents=1;shape=mxgraph.aws4.route_table;" vertex="1" parent="1">
          <mxGeometry x="410" y="130" width="30.79" height="30" as="geometry" />
        </mxCell>
        <mxCell id="Fm_4-P_1yy4wfb5h5vrD-9" value="Private RT" style="sketch=0;outlineConnect=0;fontColor=#232F3E;gradientColor=none;fillColor=#8C4FFF;strokeColor=none;dashed=0;verticalLabelPosition=bottom;verticalAlign=top;align=center;html=1;fontSize=10;fontStyle=0;aspect=fixed;pointerEvents=1;shape=mxgraph.aws4.route_table;" vertex="1" parent="1">
          <mxGeometry x="760" y="430" width="30.79" height="30" as="geometry" />
        </mxCell>
        <mxCell id="Fm_4-P_1yy4wfb5h5vrD-14" style="edgeStyle=orthogonalEdgeStyle;rounded=0;orthogonalLoop=1;jettySize=auto;html=1;fontSize=10;" edge="1" parent="1" source="Fm_4-P_1yy4wfb5h5vrD-13" target="Fm_4-P_1yy4wfb5h5vrD-7">
          <mxGeometry relative="1" as="geometry">
            <Array as="points">
              <mxPoint x="425" y="235" />
            </Array>
          </mxGeometry>
        </mxCell>
        <mxCell id="Fm_4-P_1yy4wfb5h5vrD-13" value="" style="sketch=0;outlineConnect=0;fontColor=#232F3E;gradientColor=none;fillColor=#8C4FFF;strokeColor=none;dashed=0;verticalLabelPosition=bottom;verticalAlign=top;align=center;html=1;fontSize=10;fontStyle=0;aspect=fixed;pointerEvents=1;shape=mxgraph.aws4.nat_gateway;" vertex="1" parent="1">
          <mxGeometry x="210" y="220" width="30" height="30" as="geometry" />
        </mxCell>
        <mxCell id="Fm_4-P_1yy4wfb5h5vrD-15" style="edgeStyle=orthogonalEdgeStyle;rounded=0;orthogonalLoop=1;jettySize=auto;html=1;fontSize=10;" edge="1" parent="1" source="Fm_4-P_1yy4wfb5h5vrD-2" target="Fm_4-P_1yy4wfb5h5vrD-7">
          <mxGeometry relative="1" as="geometry">
            <mxPoint x="309.9996590986568" y="195" as="sourcePoint" />
          </mxGeometry>
        </mxCell>
        <mxCell id="Fm_4-P_1yy4wfb5h5vrD-16" style="edgeStyle=orthogonalEdgeStyle;rounded=0;orthogonalLoop=1;jettySize=auto;html=1;exitX=0.5;exitY=0;exitDx=0;exitDy=0;exitPerimeter=0;fontSize=10;" edge="1" parent="1" source="Fm_4-P_1yy4wfb5h5vrD-11" target="Fm_4-P_1yy4wfb5h5vrD-13">
          <mxGeometry relative="1" as="geometry" />
        </mxCell>
        <mxCell id="Fm_4-P_1yy4wfb5h5vrD-21" value="" style="shape=image;verticalLabelPosition=bottom;labelBackgroundColor=default;verticalAlign=top;aspect=fixed;imageAspect=0;image=data:image/png,iVBORw0KGgoAAAANSUhEUgAAApQAAAGZCAYAAAA3uaF/AAABYmlDQ1BJQ0MgUHJvZmlsZQAAKJFtkD9Iw1AQxr/YlkLsoFCdHAoO/qFKTQvSRahVVOgQqqJ1S5Oaqm18JBFxENwcRRDdHcRVHerQwdlJLCg4OTi4C120xHuNmla947gfH3f37h3QEVIYK/kBlA3bzM5MRpZzK5HgK3wIkgcgKarFUrKcoRJ853arP0DguTbCZ4nXu/2Hgz1Xp9XL+4vawdHf+jYTtYKlUv6gkFRm2oAQI5a3bcZ5jzhs0lLEfFZYd/mcc97larNmIZsmviPuUouKRvxMHM236HoLl0tb6tcOfPtQwVicp9xL0YcpTCNDHoEMCeMYQxKzdKP/exLNnjQ2wbADE2vQUYRN3SlSGEooEM/BgIpRRIklxCgS/Na/b+hp2j4QH6anRE9bfwGqJ0D3racNbNB3JoCbHFNM5eeyQt1vrcYllzsrQODYcd6WgOAQ0Hh0nPeK4zTOAN8T9dY/AWNDY5Z4TsrlAAAAYmVYSWZNTQAqAAAACAACARIAAwAAAAEAAQAAh2kABAAAAAEAAAAmAAAAAAADkoYABwAAABIAAABQoAIABAAAAAEAAAKUoAMABAAAAAEAAAGZAAAAAEFTQ0lJAAAAU2NyZWVuc2hvdDuKNSwAAAI9aVRYdFhNTDpjb20uYWRvYmUueG1wAAAAAAA8eDp4bXBtZXRhIHhtbG5zOng9ImFkb2JlOm5zOm1ldGEvIiB4OnhtcHRrPSJYTVAgQ29yZSA2LjAuMCI+CiAgIDxyZGY6UkRGIHhtbG5zOnJkZj0iaHR0cDovL3d3dy53My5vcmcvMTk5OS8wMi8yMi1yZGYtc3ludGF4LW5zIyI+CiAgICAgIDxyZGY6RGVzY3JpcHRpb24gcmRmOmFib3V0PSIiCiAgICAgICAgICAgIHhtbG5zOmV4aWY9Imh0dHA6Ly9ucy5hZG9iZS5jb20vZXhpZi8xLjAvIgogICAgICAgICAgICB4bWxuczp0aWZmPSJodHRwOi8vbnMuYWRvYmUuY29tL3RpZmYvMS4wLyI+CiAgICAgICAgIDxleGlmOlBpeGVsWURpbWVuc2lvbj40MDk8L2V4aWY6UGl4ZWxZRGltZW5zaW9uPgogICAgICAgICA8ZXhpZjpVc2VyQ29tbWVudD5TY3JlZW5zaG90PC9leGlmOlVzZXJDb21tZW50PgogICAgICAgICA8ZXhpZjpQaXhlbFhEaW1lbnNpb24+NjYwPC9leGlmOlBpeGVsWERpbWVuc2lvbj4KICAgICAgICAgPHRpZmY6T3JpZW50YXRpb24+MTwvdGlmZjpPcmllbnRhdGlvbj4KICAgICAgPC9yZGY6RGVzY3JpcHRpb24+CiAgIDwvcmRmOlJERj4KPC94OnhtcG1ldGE+CqBZKZ0AAEAASURBVHgB7J0HnBTF8scLOLIgiAiiSFYBwWcW/4CgIGBGBJGoKBieoOIzp/cUIyZARcWAIiKKESNPEcNDUUSSIDmq5Bw8joP/fvvspXduZnbmbm937+j6fPZmpnP/uqe6uqp6rtjeCIkli4BFwCJgEbAIWAQsAhYBi0AeESiex3w2m0XAImARsAhYBCwCFgGLgEVAIWAFSjsRLAIWAYuARcAiYBGwCFgE8oWAFSjzBZ/NbBGwCFgELAIWAYuARcAiYAVKOwcsAhYBi4BFwCJgEbAIWATyhYAVKPMFn81sEbAIWAQsAhYBi4BFwCJgBUo7BywCFgGLgEXAImARsAhYBPKFgBUo8wWfzWwRsAhYBCwCFgGLgEXAImAFSjsHLAIWAYuARcAiYBGwCFgE8oVAhjN3sWLFnEH22SJgEbAIWAQsAhYBi4BFwCKgEHD7nzi5BEpSrl271kKWRghUrVrVjkkajUdRa4qdX0VtRNOnP4VhbhWGNuoRLUxt1W2216KHAPPQjazJ2w0VG2YRsAhYBCwCFgGLgEXAIhAYAStQBobKJrQIWAQsAhYBi4BFwCJgEXBDwAqUbqjYMIuARcAiYBGwCFgELAIWgcAIuPpQOnMvXLhQ5syZI5s3b5aWLVtKrVq1nEk8n7/66ivJyMiQFi1aeKbJT8SuXbukVKlS+SlC5f3pp59k69atqn+016SsrCz59ttvpUKFCnLSSSeZUYXifu7cufLnn39G21qiRAmpWLGi1KlTRypVqhQNLww3O3fulEmTJsmGDRvkH//4hzRu3DjPzS7KY55nUNIwI2P+/fff53r/Zs2apXyLmQcHHXRQgbR82bJlsmjRIjnqqKPksMMOy1UHfHHVqlVy4oknqncqVwKPgBUrVsiCBQvkiCOOkPr168v//vc/yczMVKk5GFm6dGmpV6+eVKtWzaOEwhk8efJk+euvv6R58+ZRvv3HH3/Ib7/9FsUiET3L67qg55pug+aV8Bm9zug0Bx98sDRt2lQndb3qvjHGjLWTmAPMhWOPPVaqVKnijLbPIRFg3L/77js1VsyxeJTX9zdeuftrfFwN5ZNPPinNmjWTK664QgYOHKgYZ4cOHWTTpk2BMOvSpYv06tUrUNowifbs2SOvvvqqUH4i6LbbbpNLLrlEtm3blqu47du3q7h//etfueIKQ8CIESNU++kfv4svvljOOussOe644+SHH34oDF2ItvG6665T8+mGG26QN998Mxqel5uiPOZ5wSNd86xevVrN2xtvvDGmiU899ZQKR7AsKPrkk09UHWxi3Gj48OEqfv78+W7RnmH//e9/Vb5x48apNNdee6165v2Ep11wwQVyzDHHyNixYz3LKIwR11xzjernxo0bo83/5ptvVNhrr70WDcvrzZIlS6RHjx4yceLEPBWxZs2a6DiYvPK0004TNqCQno+DBg2KWweKCMr54IMPXNOOGTNGxf/888+u8TYwHAKs3+Ddt2/fQBnz+v4GKnw/TBSrinMAwMv14IMPCjux++67T2kIHnroIZk6daogpNx8882OHMl73LJliyDgNWrUKHmVFvKarrzySjnhhBMEYZyF8uOPP5b7779fXQtL19BwQDBgu6MvLKNm2xkUgUceeUTKli2rhJdRo0YJm56LLrpISpYsGbSI/TodmH3++edKqMwPEHrNQ5nw9ddfy0cffaQ2sgiVlStXFtbBGjVqxK2CTTtp4buW0g8BlCtohw8//PD0a1whbJGvhhJTDoSq/+ijj5b27dvLsGHD5M4771SDQBwM8JxzzpHFixfzKOy8edY7bxUY+UM6zEJoxr788ksdrF7Sq6++Wl566SVlBkFN/frrr0fjp02bJp07d5aGDRuqnfsvv/yi4tBQQaisqQ9Vt5MQmi677DKV99RTTxV2I5pgDOedd57qxx133KHM+TqO6+jRo+X0008X8tE2k9577z1V52OPPab6RPuht956S/WPCfrPf/5T7WQJR/hFm0I76Qc7aFOjQX8JIw7tLwyxIIhdNi8QGpD//Oc/qgrwg/imFGN74YUXqnYwTrgrQL///rtq++OPPy6333676jN9YWOhiZ02eDF+aI4ZMzTaEGMDUwVL4h9++GHX8SJtdna2agflgyPYLl++nCiF0bp169Q9mg7MkSb59YF0+RlzNlS0iTGnXS+88IJvv/zG3C+OdnrNeeKSNVeoq7ARmq7+/fur8WGuDR06NNoFvzmIteXuu+9W81fzGefcYkx4Nxh7NtKMoRv5jZ1bemfYueeeK5deeqk88cQTSmBB48I7Gm/OOMsp7M9sduGJ4A0v0RtJ+uU1zgh+8CHo3//+t+LhecWNzSr1sn688sor0rp1a4H3jB8/Xnbs2CGsAfAT1kj4Apt1TfBFwuCXmLNJu3TpUhWN6xHWPvqF5U6vmzov2k/WDuJZC1hTLOUPgV9//TUGU9YnlCoQ8gTjgzsfxJj4ySMqkf3jiYCvQAlzRQOIH8gZZ5yhJjmCFi8XAgeED8iPP/4o7OSg9evXq2ctjBIGU3zuueeUUMoAdu3aNZqel/Kdd95RzJ/d3Lx58wTTFnUiyLRr1075zGmTA/VStunnWK5cOSlePLYr+H327t1bpkyZol5MXtR77rlHtN/V2Wefrcy9+EYxocwFBIEXgRVGjiCNAGQS9dNnhGT6jW8lwiuMQPvDwAgQ3Ji4CGoPPPCANGjQQC1KCIx9+vSR3bt3K9MM/YVJwUBhPFy1EGXWm997BERephdffDGqXWYsIDYACE20o02bNupFo/0IafgM0V9wmD59uvL54lkL0pQ7YMAAhRe+QmiOMRHOmDFDlY0WlAUSv7ADDzxQMVrqciOEe+LAHv9O5gaCKj6TBxxwQDQLmDvJrw98WzU/Y46Plx5zhBO+w+XXL78x94vzm/OY8ZI1V5zYpvszi32nTp3UIo9AVr58eTU+CACQ31ghfMCf8Clu0qSJ2kjde++9MV3GHKu1hCNHjlQbipgEkQe/sXOm9Xrm/YdHvfHGG4oHkq5mzZq+PMSrrHQOZx5ffvnl6oe1y6T3339fCXLwSTRH8BJcABAq/cbZ+U85GC+/d82sM959q1atVBIEQHxd4QUIKtWrV1c8HpO2dr1g00c8Lgu0l/uVK1cqXsqa9OGHH6o1g3UEwVkT6wE8l7WDtReexZrC2mIpbwggn7BJA1P8kRH2WZ9Q8ED4RzM+nJ+A/OQRlcD+8UUgVgpzJOWFRNhCG8RijpD38ssvK4EDE0AY4sXhRdO+DewmTcJXiJe/bdu2KpgXUGs5b7nlFnn22WeVFoFIJgeaIgiB9+23344RMAnnRWcx4UXnJT7llFMIVoLjF198oe5hUpTl9Ld59913VTx1sHg4GZ6KjPxhF8qBF7Rv7GIhFibSUzZCEaZZ7W/KpMX0QZ3gh1Csd0YI3bQZrQqCmJsDt6ogH38wB/EyoWVECOzevbt6pkgOWzEG2i8Vkw8EQ9REGHiyqYAQwtEoarzYkYOXxoI0HGgCE4i8jCnlPP/880qgVhF//wEn5hcEBswRBF6wYe5QjhYq8Z90ujv49SFRY45QzbiiPfDrl9+Y+8X5zflkzpW/h6TQXNgIQWCERQUtIposxineHMQvl/k0ePBgtaBTDhsIk1iU4DNYYCCEHif5jZ0zrdczPIXN+/XXX6+SXHXVVerAkd+c8SorncPBER7Ib+bMmTFNZR2AwJh1Qz8jBPiNM+8/mwmITQLCWaJw04cXTUWJqijyB+UABB9EwQB/hMedeeaZKlz/wb8ThQo8DN42YcKEmAOuxMFb0K7Dh7VPKTzVUt4Q4L1m/bj11lsV3giPEGs2fMGL3OQRr7Q2fB8CGftuc9+hFWLHjEDJjh0my4LPREfwgck6iV2WG6Hpg44//nh15SQWGiNNdevWVbcIVRCDrbV0jz76qPDThLAZjzidh3bL+TLSPgRjSJ/YPvTQQxUD0MITmgaI06MQ5gc34sWHEAy1CRuTskmUhfaOxYadKT8IUwoLGGZ3NLMwE34QzyxeaPMSSWj+ateuLRwA4CVjLLQfIlo3XALQBphkjifaR33SEf8hcESg1HhpAc88+YhmWBMaWpNgzqbvil7E0YBzCh2CKcMU2GnGI78+JGrM2RCgCdFzhTa59ctvzP3i/OY845asuRIP62TGa220ORepX1tF2PiyAcPcjfDBYgGxqDN39BwnzG2smBvwN6wjmpx1ab51yCGHKFM0aZ3/Ucxv7HS58a5o/XnvEWDQUmGZgfzmTLwy0zF+9uzZ0RPsjBFjB4G7FjC1EgALBYQG0G+c3fh0onDTfMxto886iNKDtQaLF4T21bSiEaaF0f/7v/8T1ieIA6/aOoZ1C+KgpMkXnWZxlcj+iSKABY2NA+u4NmXrdUqvqVrDjBWCr9SAuV63ogUZN27yiBFtbz0Q8NVQIlxgcr7pppvUC8CnE/D/gPTk1y8Nn4KAzIVWBfz9RzNbTNGQ8zMfegLo8kiDyQCC2XBaDm0pWjaetXkDgcaNEHp5wbt166YYES88hGmcRQFCWIY4cWi2Wwu1zjarxMYfTO2a8A+F0E7SVjRqCJEwQ/rEjhPNJKZ0dqi0De0mgh0Hn0jLrhqGxEugtX66/ERcYVJobLQWkHHVpwvRWjLeaODYSZ988smqSo0zD3ph516b/7jXiy2LBIRZXBMvudYqsisHG/wPMePocdBp9UuM2UGPqzYjYfaLR3590HXld8w5MAHF65ffmPvF+c35ZM6VeFgnM15vrDBPab7D5oH3ByIe/oPPG+8RX6ZgI8I7zcbXb6zgQ1gwEBDhL8x9N9IbRsZAb050u3R6v7HTaeJd4W1YEfDJQ/DQ75/fnIlXZmGKp598LglivCG0dhD8wW+cSaPx0oJFInDDxI1yAtJKBvXw9x94Qs+ePRUvhwdB2pXo7yTqwgYH0msg97pv3LOBgFBUwCdxvYJXsnZYckcAPoCQz8YL9yzN3/XntrSAr3FG8NQCvE7jVrKbPOKWzobFIuArUJ5//vlqN455At9FmB1+SpDWTmohAHMnh1eGDBkSW8PfT5iA8WPC1Alh1olHelfBy4z/DH6IvLgILnphZyFAI6EFWl0mkwtCi0FeLUTxjGkE0r6Ezs8aaf9Qdre0GQbvRnqXSZw21SNQIhChaUBbSX34C4EbWll8tPRERtBC8ETIIx9Ck8bT1Kq41Z2fMDSA2kyDj47+/h1l4sSO0K5NA9rE5FefHifMjPh/6k0HecBIzxXGHjNPv3791OlVp98rQh+CLIs2ByDYBOiDFZx0DUpufUj0mMfrl9+Y+8VpLN3mfCrmSlDMCzIdQoE2H/Ju8m7BPxDs0DawaLDxYIwxbeE/yXsGsYj7jZXmE6RF43jXXXdxG9V+qofIH61F0+8N77tedHQav7HTafJ69ZszeS0zXfN17NhRNQ2XHA4P4pIAYdXxG2fS6HWB8cIHM6+4sa4g1MPPECJ55lvK+Je7EW2F4F3MVTdNJrwdYRlBGXM866nWxpIXKx7zFQ3lp59+qtYEeCV9seSOAO8gWII7yi89V/R3r/VajgWCg3fIIRDjpeeKe8k2NC8I+AqUMHLMoLwEaM2Y2Oz60frpU8K8cMSzm+K7XAwuZAoLxMPgEQ4YeIQ0rdVyNlrvMAlHPc1hDgQEFgp2H3xGAwGMiYS/EUQaU8NIGO1gh4/fHn5IWoDlFCaLkD7xjaaQ3azWyJEXYYY8tJU2M1HdyGwrAg+LDYIYp5sRGhHM0Ari+0MZlIWwxWcn8AlFgGRxxDyCppA4dlJoMTGFJ5rM9vJyYbaGudEWfLYYJ7SltFMLyPpgjV9bOLnNmFIeDJ+vAEB6weWZF5yDBqQDawRo5peTSMO4wlTxxaRMtE6Y2zVpjad+1le/PiRqzHVdXP365TfmfnF+cz6Zc8XsZzrc6znJe46wzQKPawWWCOYR7isckoNYhNksoiXSnzbzGiuET3gZc4p8uFYgoFKPaRJj04m/H77H1KvrMvmc39h5YWi+k15pCPebM3750jXOr9+MGe8yBzyffvppNRasLWig442zFuoRyPCND4ub2S7WDoRS5gjCJRtiM97EljmjXaBQemgy0zNP4XvwNOYRft1aQUN60rJmwKvgw6y3CECan+oy7TUWAYRI1gxkFNYzMNMWSZQnYI4LFT7vrK+MD8opyHx/Y0vNeTLHzy3ehsUiUCyyQ89R5f0dDoBO3yCiUBXjq4A52A1k8qBV8xsgTMu8nFrQiG2K9xNNpHx2b87y+VYm/kZeZeIHiqnWNNHqmvDTRFj10gaiXUTYNE29Oq/XlTI5GKDNG2Y61POUiUDpJN1HbZo14zlR7DYmZppE3Wuc3cbYqw4OP3GaHn8gXmyEUHbyvNgs7JrQdoKP01So480rWDE2bjia6dzu/fpQEGPu1y+/MfeL0/PBbc7rOLe54oZHvLBkzq94bYkXz8E2frxDXhoGhEHiTQuCLtdrrPDdY745XXF0Pq6kgQ/Gm5N6fNzGziwvL/d+cyYv5RV0nvzMLXgv7zJlOPk+7fYaZ6xVKAPMcfLDLT9tzAt+en5Qrxef1V+1cK5ryW5rXvqXqjzwBb4k4sRMt4f5gmDpFa/T2Wt8BJiHzGMnBRYonRntc/IQSHcmgk8QwiTE7lr7qOD/o81XyUPL1hQWgXSfX2H7Y9OnDwKFYW4VhjbqES1MbdVttteihwDz0E2gzG1zLHp9tz0qYAQwR/N5DzSVaBQ4vY+JW5vNC7h6W7xFwCJgEbAIWAQsAilGwAqUKR6AolI9fpGmH2pR6Zfth0XAImARsAhYBCwC8RHwPZQTP7tNYRGwCFgELAIWAYuARcAisL8j4OpDub+DYvtvEbAIWAQsAhYBi4BFwCLgjkBgH0q3hO5F2tBkIMBJQDsmyUB6/6zDzq/9c9yT0evCMLcKQxv1WNHW//3vf/oxz1c+qWfL8YbP4uONDTHg40bW5O2Gig2zCFgELAIWAYuARcAiYBEIjIAVKANDZRNaBCwCFgGLgEUgfRBAU+SlLUqfVtqW7C8I2FPe+8tI235aBCwCFgGLQJFCQJuttVCpn4tUJ21nCg0CVkNZaIbKNtQiYBGwCFgELAK5EUCQ5KcFy9wpbIhFoOARsAJlwWNsa7AIWAQsAhYBi0CBI6CFSitYFjjUtgIXBAILlPyfTP6ZvZP4/7eE63+354w3n1euXClffvml8D+949HMmTNl8uTJwv9l9SP+N/O3334rs2bNUv9320z7559/ypgxY6JBPH/99dfq/0lHAx03vJCrV692hKbno9eY+GHi7Emyx8RZf5DnJUuWCPPBSaluu9d8Wr9+vcyZMyfmx/+QhvzinP1L9XMycQ/DR8DFq215wezTTz+VzMzMXFmD8qAwbQ8zZ5lD06ZNy9WuuXPnxswtN97L/67+7LPPfHldroKTFMD/RIe3u7U7SN9WrVqVkBPKbt3Nytorn32RGf19MSlTfp6eFVlb9qXevGWPTJiYGRO2L3bfHWnWrTcy7ouSn6ZlyeKl2UZI4m5NbaUVLBOHqy0pPgKBBEoYQO/eveX666+PKfH111+XAw88ULp37y61a9eWYcOGxcSbD9dcc43UrFlTunXrJgcddJAnQ2DhPfbYY9WPl4F7Fm43guFWqVJFLr74YmnatKl07dpVaKumDz/8UAm7hLVv315q1Kghffr0UXleeuklnSx6nTBhgjRv3lymTJkSDUvXG68xiYeJ2Z9UjIlZf5B7/pVjy5YtZeTIkTHJU9n2ePPpoYceksaNG8f8tEDsFxfTwRQ/JBP3MHwEWLzalhfInnzySfWvQtmcaQrDg8K0PeicXbhwoRx11FFy6qmnSocOHaRevXry448/quZt2LBBGjVqFDO3rrrqKt306PX+++9XeRF204k++OADxf8vueQStWbAbzdt2qSaGKRvvHvw+2uvvbZAurVl617p0Gm9dOm9QXpfvVHaXrBeTjx9rTRptkZm/pql6ly4OFvadVwvf2Xu9W0DaabPysnjTHj3oC0yZlzOJtMZl6hnLVgmqjxbjkUgHgJxBUoEFP4v83vvvRdT1po1a9RL/fLLLyuN3muvvSYDBgxwFf7QYD733HMye/ZsWb58ucrXr1+/mPL0w8MPP6xu161bp8pF+Bw8eLCOjrleccUVSohcsWKFzJgxQ+3IP/roo2gaNA9nnXWWvP/++2pHTJmLFi1S5d14440xWgnievbsGc2bzjdeY0Kb42Gi+5WqMdH1B7ny/8GPOeYYQatjUqrbHm8+/fzzz/LAAw/Izp07oz/9byn94sw+pvI+mbiH4SNg4tW2sHhhJbn88stl4MCBubIG5UFh2h5mzg4ZMkQJkfCk33//XU477TTRbcISAyEo6vnFxtmk7777TgYNGmQGpcX9noia75ZbblE/1gGEeJQFo0ePVu0L0rfHHnvMUxmRyE6OH1tFVi+sLns21ZBFM6pJRoli0rnXRtmxc680bZwhy+dUk7JlivlWuXJuNWnRrJRvmkREonhx00S6hSWiPluGRcALgbgCJRqVBg0a5GJQ2hSjhbAePXrIIYcc4moWnzhxonTs2FHtqkuXLi033HCDMtksXrw4V7sw0/Tt21dpESkPwVMzHDMxzOiHH34Qdv2lSpVSGsoLL7xQxo8fr5JhKmc3fMYZZwh1vvDCC6pMIps1a6aY2bx586JFUk+XLl2kQoUK0bB0vfEak3iYmP1JxZiY9Qe5v/rqq9UmpXPnzjHJU912v/nEojlp0iT1f80xzTEmZcqUkeLFiyuXDK+4mA6m+CGZuIfhI8Di1bawkI0bN05+++23GJcYXUZQHhSm7WHm7JFHHin33HOP4msZGRlKU4lACiF0obkkfOnSpVKiRAmVTrd98+bNcumll8pdd92lg9LmiiaSdQL+zge6DzjgADnuuOOUGxKNjNc3NmMPPvigoAxIFkWaKXVrl5BxoyrL/IW7lSl80ZJs6X7lRtm1a6/0G7BJnnt5e7Q5a9bukebt1smCRbul11WbZMbsHA3l8pXZkeeNUrPhaunZb6OsXbfPFI5Z/Mr+m1TcCS3Xyouv7oj8I4tokYFutO+kmdgtzIy39xaBRCMQV6BEs4j2EeHOJHaYderUUYyNcBgEgucff/xhJlP3+DuRVtNhhx2mbllwnQSTP+KII6LBmMnRBGRnx/qboJWEzLTUwY4eQtg86aSTpGrVqnLeeecpTaaKiPyhT/QHsxL0yiuvKA2n1gKowDT+4zUm8TAxu5SKMTHrD3L/66+/yp133iklS5aMSZ7qtvvNJxZ5CDcQ5iPzDPMcgqZfnMqUJn+SiXsYPgI8Xm0LCx3j8/333yuXGmfeoDwoTNvDzNn+/fsroZF2sTFmM4zpG/rll18UBtWqVZOGDRvK4YcfLj/99JOK4w95W7VqpYTKaGCa3GBtuvvuu4W2Q2DyzjvvyJlnnqme/fqGGwLuUrgoHH300Sp9Mv/Ur5shFQ4oJnPnZcn2HXvl28m7JDsiEzY8KkMGD9kWFQDHfbBTli3Plnp1MmTiN5mCCR0vrI7dNsiKlXtkxLBKkQ1AMZk2I0fQRHC8qMcGmRkRPF8YWkm6dykrfSNC6th3d4bunhUgQ0NmMyQYgbgCZfny5V2rxI/Jqc1jx+nms4NAaKYtW7asKnPbtm0xZeMfg0bHrJMyIcw7JnG4ATLTco8fDoQ/5LnnnqvuzT8IjcOHD5c33nhDaS7xV8I3lGezLDNPut17tTMeJmY/UjEmZv0cGtA/xt2NKlas6BasNhjJnk+uDYkEOucTGiK04mPHjlVzls0K843DYX5xXuWnIjyZuIfhI2Dh1TYTJ/5NqZ5bXJ2bUdKWK1fOzBK9D8ODwrQ96PsWbUjkBiEKv3A23ghSUOXKlZU/O24gCxYsUJti0tDnt99+Wz7//HMZOnSoSpvOfziQ06ZNG2nbtq1y04nXt5tvvln1FR/4VBCaygb1MmT1mn2aRdrRtVNZdbhmytRdqlkjR++Qa64sH7FI7GslQigC5OBBFaV9m9Iy/IkDo5Gz50QOlUaE09sGVpDjjy0ZESjLSbfOZWXEyLz5V1qhMgqtvUkBAsa0D1f7wQcfnOu0NsKc1j6apZHWFDS3b88xEVSvXt1MprSdCAoIlZrIR5gWLHU4u13ITMuCXbt2bRWOuRuGpYlFhd377bffrszyeleM+YUDFGiPEAIo75tvvnE9VazLStdrPEzMdqdiTMz60TxjOuan3SbMeL/7VLedtnnNJ0x4fMkALRGm7ssuu0wdosCvzS/Or7/pElcQuFOm86sPXnwkKA7z58+Pzi3ml9sBPK+yMCUH5UFh2h4UO90uMMH/GzMwB3I4UAjhQ8jhRwTr+vXry0033SS4DqG5xX8a7Tmb6U8++USlx/fd61CjSpCCPxxQw6e4SZMmyi0JzCGvvuGe8Oyzz0rr1q3lrbfeUngwRxCgvTajBdEtzNi1apaIKfrQ6iXkgnPKRA7Y7JTf5u9Wp7fRMprEIR7oH01yLC1oKNu2Lq3CMIVDnSJayuoNVqnfG2/vlJV/xFrkVKKAf7RQiQ8l95YsAslCIOdNzkNtmFo4HILmEI0jn6rBVFSrVq1cpWH6mz59ejScnTVkmqt1JGZz07eRe8KcpBksZWHWhmCqmEMwe2P+1QchYDrsbDlMAXPGFK4JbR8C7uOPP66D1AEkBFNOjhcm8sPE2Y9kj4mzfg5X6MWAk/phKNVt95tPfMKKzcyjjz6q/CbRHLEpwr3CLy5M/1OVtiBwD8NHgvYbvoI5WxPtDkNBeVCYtofBDm0mmjuEYfqh3Y2YS2yI27Vrp4Qr+oSVBwEYjSu8D2GNn960I3xiGj/00EPDQFBgafmCBn1Dq4qQqIVJv76RBp6tPwGHgIyGlsOafL2D/hc08Smhrdv2SrOTcx+y6dOjnPTou1EqViiuBEWn0FnriBwhdN6C3dK4Yc6SO3febjm9eSmpclCOTmfG5KqRwz45AufSiMk8M84JcrO/bkKjW5iZx95bBAoCgTxrKNHwwejwccMkg28MgiWfgYC++uor0Seu8X3BFIMvJqYO8rCTrlSpkkrLpzdwuIYQ/J5++mm1s4L5PPXUU8qRmzgE1hEjRih/NEw/nTp1UvXii/Pmm2+qhfyiiy4SHODxOdLM6vnnn5dRo0bJM888o3w9p06dKvxgxrQRIVP/YE6Yl6677jqqLFTkhwkdSeWYOIE88cQTlZ8YBwzcNgzO9OZzsucTdZvY+c0nBAc2J8xTtN3MORY/DqX5xZn9S9f7gsA9DB8Jigt8iHmlf9pnL2j+oDwoTNvDYMfBI3jaI488or6KofkVfups4DnUyIaZDT0nwhHO6tatG+Vh8DK0dxC8MF1O+8Jvzz//fLVRxzKEkoG+oTTw6xvvjubPXFlr2OxzX1DC5JyImXrqL1ky6btMeWbEdvUZoQ5tS8tpp+QWKDFjQ4MGb5U+PXO7UjSK+FkeUrW4PDZsm3BoB7O41kA2Paakirvv4a0qbMmybGkROdTz2pjwJm/GWf9Ug0L8yWu+EFXYpPsBAnkWKDHnIaS9+OKLaveLaQU/RL5LCSE8ar8fXn5OJvMtSzR/MBZ2p5ow2yBwQnzKg89kIJiyIDDRMVVDHLThNDYHHCC0QHxaA2ZK+BNPPKG0kpzSZOeqiXCoV69eaqfLbpcfTuBuxIncwkpemNCfVI5JfvB0jkey55MTO7/5hNYKv0n82DBL3nHHHeoZzb1fXH7wKai8ycA9DB8x++lsmxmX3/ugPChM24POWQ41wkvZjOCLq3kVVzTjt956q/qUFlpYXHXYlPPNSSchoEEFiZOzznjPfMYN7SvaM6xHum/6m5Jh+xavvvzEXztws5zUaq20Pme9PPH0Nul3efnISe8cN6u/oY0Wjwkbv0no/LPLRMP1TZnI54UmvF9FJk/ZJdXqr5Jb790ijY7O0VSWK1tMPnqrisyas1ud8q7bdLW0/L9SctfNedO6gi0/1s0wZOYLmzdMPTZt0UagWMTUEPOBAhiRI8gXAYQ7/rNMEJMK/40CR3M0afEIMyEaRi/neTM/9WM21RpJTN74E+rDP2bawngfdkzooxMTr34na0y86s9PeLq3nUMbzEu3Rd0vLj+Y5CVv2PlVELiH4SN56WNe8gTlQWHaHgY7vzajqeTAkd7A+6VNZVzYuUVbk923vLQxr5iioTy4SvGYQzu6LD4fxEny0qVzNgM63LzSVoQ/N0IQNOOcz2YevzjSxYvXZQVNp9N7XW05XsjkhKcjPm5yYp59KHX3WSyDCJOk14cwdF6/a5DTnDq/06TldjBIp91frk5MvPqdrDHxqj8/4enedu3b69ZHvzi39OkUVhC4h+EjycIiKA8K0/Yw2Pn1k81yUdkwO/uZqr7hu1inyWpnc1L2zKnwf/XP+cqJXyMQNjSZ94TlVRAxtZymkKrrsVeLgBsC+RYo3Qq1YRYBi4BFwCJgEShMCNSOHJ7ZuznnNH1harcW+PIqPHr11SyXNPrZK70NtwhYgdLOAYuARcAiYBGwCBRyBApK4Cuocgs53Lb5LggU3tMnLp2xQRYBi4BFwCJgEbAIhEcADafTZE4pbmHhS7c59gcErEC5P4yy7aNFwCJgEbAIWATiIIA20ilAuoXFKcZG76cIuJq8OUlmKb0QsGOSXuNR1Fpj51dRG9H06U9hmFuFoY16RJ0Cnw4Pe6UcN3O2FiDd4sLWYdPvXwi4CpRux8H3L1jSq7cwOzsm6TUmRak1dn4VpdFMr74UhrlVGNqoR5W2JkLQ8xImdT1WqNRI2GsYBFwFyjAF2LQWAYuARcAiYBGwCBQtBLRQSa8SIcQWLXRsb9wQsAKlGyo2zCJgEbAIWAQsAmmOgDZ/J0LgcyvDLSzNIbHNSyEC9lBOCsG3VVsELAIWAYuARSCvCCDw8UOw1MJlXssin1sZbmH5qcPmLboIWIGy6I6t7ZlFwCJgEbAI7AcImIJlXruL4OimkdQCa17Ltfn2HwSsQLn/jLXtqUXAImARsAgUYQS08JcIrWIiyijCUNuuuSAQWKDcunWrfPHFF7mK2LJliwpftmxZrjhnwMqVK+XLL7+UjRs3OqNcn3/88Uf5448/XON0YFZWlnz77bcya9Ys2bNnjw5W1z///FPGjBkTDeP566+/FvJ4ES/k6tXp8/9cvdpJuNeY+GHiLC/ZY+KsP8jzkiVLZObMmbmShmk7+SdPnix//fVXrnLcAj799FPJzMx0i4qGec2n9evXy5w5c2J+O3bsUPn84qIFp8lNsnH3ms9ucHi1zS1tvDCvsQ46Z8LwQNoStO3MoWnTpuVq/ty5c2Pmlhvv3bVrl3z22We+vC5XwUkK2L17t3oX3dodpG+rVq1y1aQlovlZWXvlsy8yo78vJmXKz9OzImvLvtI3b9kjEyZmxoTti913R5p1642M+6Lkp2lZsnhpthGSuFvWsEQKlolrmS2pqCMQSKCEAfTu3Vuuv/76GDxef/11OfDAA6V79+5Su3ZtGTZsWEy8+XDNNddIzZo1pVu3bnLQQQfFZQgs/qeccor89NNPZjEx9zDcKlWqyMUXXyxNmzaVrl27Cm3V9OGHHyphl7D27dtLjRo1pE+fPirPSy+9pJNFrxMmTJDmzZvLlClTomHpeuM1JvEwMfuTijEx6w9yv3btWmnZsqWMHDkyJnnQtiPIHXvsserHjpt7BEE/evLJJ+Xss89WArtbunjz6aGHHpLGjRvH/LRA7BfnVleqwpKNu9d8duu/V9vc0sYLcxvrMHMmDA+kLUHavnDhQjnqqKPk1FNPlQ4dOki9evWEzTW0YcMGadSoUczcuuqqq1Sc+ef+++9XeRF204k++OADxf8vueQStWbAbzdt2qSaGKRvzBP4/bXXXlsg3dqyda906LReuvTeIL2v3ihtL1gvJ56+Vpo0WyMzf81RRCxcnC3tOq6XvzL3+raBNNNnuSsv7h60RcaMy9lk+haSj0gtWAYtwhRCtfmbq74PWo5Nt/8iEFegREBp0aKFvPfeezEorVmzRr3UL7/8stLovfbaazJgwADXxRrN5nPPPSezZ8+W5cuXq3z9+vWLKU8/wDAee+wxV+dgnUZfr7jiCiVErlixQmbMmKF25B999JGOFjQPZ511lrz//vtqR7xu3TpZtGiRDB48WG688cYYDRRxPXv2jOZN5xuvMaHN8TDR/UrVmOj6g1w//vhjOeaYYwRNpElh2v7www+rrIwvmmc2M4y/G6E5v/zyy2XgwIFu0dGwePPp559/lgceeEB27twZ/Z188skqv19ctIIU3yQbd7/57ITCq23OdPGe/cY66JwJwwNpT9C2DxkyRAmRzNnff/9dTjvtNNFtwhIDISjq+cXG2aTvvvtOBg0aZAalxT0WpFtuuUX9WAfQSLO5Gz16tGpfkL6xNiD4FDSNH1tFVi+sLns21ZBFM6pJRoli0rnXRtmxc680bZwhy+dUk7Jl/P8ByMq51aRFs1IF3VS1ViL0OcktzJnG+ayFUI2xfnams88WATcE4gqUaFQaNGiQi0FpU4wWwnr06CGHHHKIq1l84sSJ0rFjR7WrLl26tNxwww3KZLN48eJcbVqwYIHAUN99912pUKFCrngdADP64YcfBE1VqVKllIbywgsvlPHjx6skmDbZDZ9xxhlCnS+88ILSTBLZrFkzxczmzZunixME3C5duvjWGU2c4huvMYmHidnsVIyJWX+Q+6uvvlptUjp37hyTPEzbMfv17dtXjT3zk3HWC1hMoZGHcePGyW+//RbjJuFMw7PffGLRnDRpkiBAYppjTMqUKSPFixdXLhlecW71pCos2bh7zWe3/nu1zS2tX5jfWAedM2F4IG0J2vYjjzxS7rnnHsXXMjIylKZSuxshdKG5JHzp0qVSokQJlU73dfPmzXLppZfKXXfdpYPS5oomknWC95EPdB9wwAFy3HHHKTckGhmvb2zGHnzwQaUMSFanIs2UurVLyLhRlWX+wt3KFL5oSbZ0v3Kj7Nq1V/oN2CTPvbw92pw1a/dI83brZMGi3dLrqk0yY3aOhnL5yuzI80ap2XC19Oy3Udau22cKxyx+Zf9NKu6ElmvlxVd3RP6RRbTIQDcIfk4B0i0sUGE2kUUgjwjEFSjRLKJ9ZDE2iR1mnTp1FGMjHAaB4Onm84jPEGk1HXbYYeqWBddJlIEWEQHUj9BKQkcccUQ0GXWwo4cQNk866SSpWrWqnHfeeUqTqRPSJ/qDWQl65ZVXlIZTawF0unS9eo1JPEzM/qRiTMz6g9z/+uuvcuedd0rJkiVjkodpOwKiOUdwu0CzlJ2d238J143vv/9emcVjKnQ8+M0nFnmIspiPzDPMcwiafnEqU5r8STbuXvPZDQ6vtrml9QvzG+ugcyYMD6QtQdvev39/JTSSh40xm2FM39Avv/yiyqlWrZo0bNhQDj/88Bi3IPK2atVKCZUqQxr9wTpw9913C22HeI/feecdOfPMM9WzX99wQ8BdCheFo48+WqVP5p/6dTOkwgHFZO68LNm+Y698O3mXZEdkwoZHZcjgIduiAuC4D3bKsuXZUq9Ohkz8JlMwoUeMbtKx2wZZsXKPjBhWKbIBKCbTZuQImgiOF/XYIDMjgucLQytJ9y5lpW9ESB377s7Q3bMCZGjIbIYEIxBXoCxfvrxrlfgCOTWI7DjdfHZYwM20ZcuWVWVu27YtV9nsvNE4xiMON0Bm+7jHDwfCH/Lcc89V9+YfhMbhw4fLG2+8oTRN+CvhG8qzWZaZJ93uvdoZDxOzH6kYE7N+Dg3oH24OblSxYkW3YCUQBplPlIuG0MSLOQphLnRSuXLlnEFxn53zCQ0RWvGxY8eqOtisMN84HOYXF7eiJCZINu7m+MTrplfbzHz8m1I9t7i6bR68xjrMnAnDA2lfkLab/UCIwi+cjTeCFFS5cmXlz44bCNYcNsWkoc9vv/22fP755zJ06FCzmLS850BOmzZtpG3btspNJ17fbr75ZtVXfOBTQWgqG9TLkNVr9mkWaUfXTmXV4ZopU3epZo0cvUOuubJ8xCKxr5UIoQiQgwdVlPZtSsvwJw6MRs6eEzlUGhFObxtYQY4/tmREoCwn3TqXlREj8+ZfaYXKKLT2JgUIGNM+XO0HH3xwrtPaCHNa+2iWRlpT0Ny+PcdEUL16dTNZqHt2uxACgyYW7Nq1a6tHzN0wLE0sKuzeb7/9dmWW17tizC8coEB7hBBAed98843rqWJdVrpe42FitjsVY2LWj6YQ0zE/7TZhxvvdB207mxMET3OOMA8J04KlXz1+cV7zCRMeXzJAS4Sp+7LLLlOHKPBr84vzqytd4tIB9yBYzJ8/Pzq3mF9uB/C8ygkzZ8DD+cUKLx7oVZ9XOOXi/40ZmAM5HCiE8CHk8CPCaf369eWmm24SXIfQfuI/jfaczfQnn3yi0uP7Hu8QmkqYxD8cUMMlpEmTJsotCcwhr77hnvDss89K69at5a233lJ4gDMCtNdmtCC6gxm7Vs0SMUUfWr2EXHBOmcgBm53y2/zd6vQ2WkaTOMQD/aNJjqUFDWXb1qVVGKZwqFNES1m9wSr1e+PtnbLyj9wWFJUwwB8tVNrDNAHAskkSikDOm5yHIjG14EyPpgeNI5+qwVRUq1atXKVh+ps+fXo0nJ01ZJoio5EBbzSDpSzM2hBMFXMIZm/Mv/ogBEyHnS2HKWDOmMI1oR1BwH388cd1kDqAhGDKyfHCRH6YOPuR7DFx1s8BBb0YcFI/DIVpOy4Upq8s94Tlh/zmE5+wYjPz6KOPKr9JNEcIsWiS/OLy055k5U017kH7CV/BdUET7Q5DQedMGB4Ypn6sB2juEIbph3Y3Yi6xIW7Xrp0SrigTKw8bJDSu8D6ENX56047wiWn80EMPDdOEAkvLFzToG1pVhEQtTPr1jTTwbP0JOARkNLQcruPrHaa1oqAazqeEtm7bK81Ozm0969OjnPTou1EqViiuBEWn0FnriBwhdN6C3dK4Yc6SO3febjm9eSmpclCOTmfG5KqRwz45AufSiMk8M84JcrOfCJBOcgtzprHPFoFEI5BnDSUaPhgdPm6YZPCNQbDkMxDQV199JfrENb4vmGLwxcTUQR520pUqVVJp+fQGDtfxCIF1xIgRyh8N00+nTp1UvfjivPnmm2ohv+iii4RDG/gcaWb1/PPPy6hRo+SZZ55Rvp5Tp04VfjBj2oiQqX8wJ8xL1113XbzmpF28HyY0NpVj4gTrxBNPVH5iHDAIK+CFmU9sJJ5++ml1MpTF7KmnnlIHA2iPOZ+c7XM+m9j5zSeEFzYnzFM0o8w5Fj98gv3inPWl43OqcQ+KCXyIeaV/2mcvaP6gcyYMD4xXt8kDObwDT3vkkUfUVzE0v8JPnQ08hxrZMLOh5wAjwlndunWjPAxehvYOghc6D2vEa0tBxcNvzz//fLVRxzKEkoG+scnz6xvvjubPXFlr2OxzX1DC5JyImXrqL1ky6btMeWbEdvUZoQ5tS8tpp+QWKDFjQ4MGb5U+PXO7zTSK+FkeUrW4PDZsm3BoB7O41kA2Paakirvv4a0qbMmybGkROdTz2pjwJm/GWf8KagzjlZvq+uO1z8YXLAJ5Figx5yGkvfjii2r3i2kFP0S+SwkhPGq/H15+TnLyLUs0fzAWdqeaMNsgcMYjDtpwSld/wBwtEJ/WgJkS/sQTTyitJKc02blqIhzq1auX2umy2+WHE7gbcSK3sJIXJvQnlWOSHzyd4xFmPvEZID67wkYHAQOGh+sD5JxPfm00sfObT2it8JvEjw2z5B133KGe0dz7xfnVnaq4dMPdxMHZNjMuv/dB50wYHmi2ya3tmgdyqBFeymYEX1zNq7iiGb/11lvVp7TQwuKqw6acb046CQENcqvLmTZZz3zGDe0r2jOsR7pv+puSYftWkO2+duBmOanVWml9znp54ult0u/y8pGT3jluVn9DG60eEzZ+k9D5Z5eJhuubMpHPC014v4pMnrJLqtVfJbfeu0UaHZ2jqSxXtph89FYVmTVntzrlXbfpamn5f6Xkrpsr6OyhrmDLDz6XCjLrT1UbUtFvW2cOAsUipoaYDxTAiBxBvlgh3PF9vyAmFf7zCI7maNISSdSP2VRrJDF540+oD/8ksq5UlBV2TGijExOvdidrTLzqz094mLZjdmZ+eB3GyE87vPJyaIN56bao+8V5lVdQ4WHnV7rjniicgs6ZMDwwUW1DU8mBI72BT1S5iS4n7Nyi/mT3LS9tzCtOaCgPrlI85tCOLovPB3GSvHTpnM2ADjevtBWhzY0Q4Mw457OZxy/OTBfvPl458eJ1+UHT6fReV1uOFzI54YnEx01OzLMPpW42i2UQYZL0+hCGzpuoq9Ok5XYwKFF1FZZynJh4tTtZY+JVf37Cw7Q97Anb/LRL59W+vfrZvPrFmenS8T7dcU8UZkHnTBgemKi2sVkuKhtmJyap6hu+i3WarHY2J2XPnAr/V/+cr1L4NQIhQZN5T1iiBAhdftirqS01hd2w5dj0hQOBfAuUhaObtpUWAYuARcAiYBHwRqB25PDM3s05p+m9U6VfjBbUUi08eiFjto80+tkrvQ0vvAhYgbLwjp1tuUXAImARsAhYBBQC6S6opXv77DTKPwKF9/RJ/vtuS7AIWAQsAhYBi4BFIIEIoCl1mt4p3i0sgdXaotIAAStQpsEg2CZYBCwCFgGLgEWgqCCANtIpQLqFFZX+2n7kIOBq8uYkmaX0QsCOSXqNR1FrjZ1fRW1E06c/hWFuFYY26hF1Cmo6POw1UeV41asFSGvq9kKo6IW7CpRux8GLXtcLT49gdnZMCs94FbaW2vlV2Eas8LS3MMytwtBGPeK0NRECGsJkosrRbXO7WqHSDZWiG+YqUBbd7tqeWQQsAhYBi4BFwCKQLAS0UEl9iRBik9VuW094BKxAGR4zm8MiYBGwCFgELAIpR0CbrdNJUHNri1tYysGzDUg4AvZQTsIhtQVaBCwCFgGLgEWg4BFAUOOHYKmFy4Kv1b8Gr7akS/v8W29j84OAFSjzg57NaxGwCFgELAIWgRQjYAqWKW6Kql4LuWZb3MLMeHtf+BGwAmXhH0PbA4uARcAiYBGwCKSVttIKkPvfhAwsUG7dulW++OKLXAht2bJFhS9btixXnDNg5cqV8uWXX8rGjRudUbme58yZI9OmTcsV7gzIysqSb7/9VmbNmiV79uyJif7zzz9lzJgx0TCev/76ayGPF/ESrF6dPv/P1audhHuNiR8mzvKSPSbO+oM8L1myRGbOnJkraZi2k3/y5Mny119/5SrHDNi9e7dKF2Q+e82n9evXC/PX/O3YsUNV4xdntiMd7pOJ+/bt22XixImyadOmQF33alugzI5En376qWRmZjpCRc25IHMmDA/0mjO5Ko8EePHAuXPnxswtt7m6a9cu+eyzz3x5nVudyQjze8eC9G3VqlUFdrgjK2uvfPZFZvT3xaRM+Xl6VmRt2YfM5i17ZMLEzJiwfbH77kizbr2RcV+U/DQtSxYvzTZCEnfLGqaFuVSbmXU7Etc7W1I6IxBIoIQB9O7dW66//vqYvrz++uty4IEHSvfu3aV27doybNiwmHjz4ZprrpGaNWtKt27d5KCDDvJkCAsXLpSjjjpKTj31VOnQoYPUq1dPfvzxR7Oo6D0Mt0qVKnLxxRdL06ZNpWvXrkJbNX344YdK2CWsffv2UqNGDenTp4/K89JLL+lk0euECROkefPmMmXKlGhYut54jUk8TMz+pGJMzPqD3K9du1ZatmwpI0eOjEketO0Icscee6z6wVy5Z1F3ow8++EDNzUsuuUTNZ+aCm4ATbz499NBD0rhx45ifFoj94tzalKqwZOJ+7733ygEHHCCMaeXKldXVr99ebfPL4xX35JNPytlnn602ZzpNmDkTlAfGmzO6bq5+PHDDhg3SqFGjmLl11VVXmdnV/f3336/4J8JuOpHfOxakb+AIv7/22msLpFtbtu6VDp3WS5feG6T31Rul7QXr5cTT10qTZmtk5q85ioiFi7OlXcf18lfmXt82kGb6LHflxd2DtsiYcTmbTN9C8hGpBct8FJGQrFqohP9yb6noIhBXoERAadGihbz33nsxKKxZs0a91C+//LLS6L322msyYMAA18UazeZzzz0ns2fPluXLl6t8/fr1iylPPwwZMkQJkevWrZPff/9dTjvtNHn44Yd1dMz1iiuuUELkihUrZMaMGWpH/tFHH0XToHk466yz5P3331daJ8pctGiRDB48WG688cYYrQRxPXv2jOZN5xuvMaHN8TDR/UrVmOj6g1w//vhjOeaYYwRNpElh2q7nDuOL5pnNDOPvJLTbt9xyi/oxR9H+IniOHj3amTTufPr555/lgQcekJ07d0Z/J598sirHLy5XRSkKSCbujO19990nkyZNknnz5ilLA7yC99mNvNrmltYvDCvJ5ZdfLgMHDsyVLOicCcMDg/Ag3RA/HoglBkJQ1POLjbNJ3333nQwaNMgMSov7eO9YkL499thjSRFKxo+tIqsXVpc9m2rIohnVJKNEMenca6Ps2LlXmjbOkOVzqknZMv7/AGTl3GrSolmpAsceQc1NE+kWVuCNiVTgJjSmi3CbjP7vz3XEFSjRqDRo0CAXg9LmaC2E9ejRQw455BBXszimrI4dO6pddenSpeWGG25QJpvFixfnwv7II4+Ue+65R0qVKiUZGRlKU+lmamfB/+GHH5Q2g7RoKC+88EIZP368KhPTJrvhM844Q6jzhRdeUJpJIps1a6YEBhYwTQi4Xbp0kQoVKuigtL16jUk8TMwOpWJMzPqD3F999dVqk9K5c+eY5GHajtmvb9++auyZn4yzm5CIJpI5TFo+HozG7LjjjlMuEjGVRx785hOLJsIRAiSmOcakTJkyUrx4ceWS4RXnrCOVz8nEHa0U8/n0009XXT766KPVO+i2KJHAq21h8Ro3bpz89ttvMS4xuoygcyYMD/SbM7peffXjgQhdWG/gjUuXLpUSJUooXqnzbt68WS699FK56667dFDaXOO9Y/H6xmbswQcfVMqAZHUqwgqkbu0SMm5UZZm/cLcyhS9aki3dr9wou3btlX4DNslzL2+PNmfN2j3SvN06WbBot/S6apPMmJ2joVy+MjvyvFFqNlwtPfttlLXr9pnCMYtf2X+Tijuh5Vp58dUdkX9kES0y0A3vi1OAdAsLVJhNZBHIIwJxBUq0BWgfWYxNQotTp04dxdgIZxFG8Pzjjz/MZOoefyfSajrssMPULQuuk/r3768YJuEIhQiCmL6dhFYSOuKII6JR1IFWE0LYPOmkk6Rq1apy3nnnKU2mTkif6A+mdeiVV15RGhGtmdDp0vXqNSbxMDH7k4oxMesPcv/rr7/KnXfeKSVLloxJHqbtCA3mHMHtAs1Sdnas/xKay7vvvluqVaum6qKOd955R84888yYunnwm08s8hBuIMxH5hnmOQRNvziVKU3+JBN3NoK33XZbtOdgjhCOVcSNvNrmltYvjPH5/vvvlQuEM13QOROGB/rNGWf9fjzwl19+ETBgnjZs2FAOP/xw+emnn6JFkLdVq1ZKqIwGpslNvHfMr2+4IeAuhYsCm45kU/26GVLhgGIyd16WbN+xV76dvEuyIzJhw6MyZPCQbVEBcNwHO2XZ8mypVydDJn6TKZjQ8cLq2G2DrFi5R0YMqxTZABSTaTNyBE0Ex4t6bJCZEcHzhaGVpHuXstI3IqSOfXdn6C5aATI0ZDZDghGIK1CWL1/etUr8mJzaPLQ6bj47LOBm2rJly6oyt23b5lo2gTAQfCIROmEiTuJwA2S2j3s0HhD+kOeee666N/8gNA4fPlzeeOMNpWnCXwnfUJ7Nssw86Xbv1c4x6svMAABAAElEQVR4mJj9SMWYmPVzaED/8Ityo4oVK7oFK4EwyHyiXIQTEy/mKIS50Is45NCmTRtp27atciHwSke4cz6hIUIrPnbsWFUHmxXmG4fD/OL86kh2XKpw58Ae7zz+f02aNHHttlfbzMT8m1I9t7g6Nw+kLVeunJkleh9mzoThgdEKIjfOOWPGmfduPBAfU/zZcRVYsGCB2hSDGX1+++235fPPP5ehQ4eaxaTlvds75te3m2++WfUVH/hUEJrKBvUyZPWafZpF2tG1U1l1uGbK1F2qWSNH75BrriwfsUjsayVCKALk4EEVpX2b0jL8iQOjkbPnRA6VRoTT2wZWkOOPLRkRKMtJt85lZcTIvPlXWqEyCq29SQECxrQPV/vBBx+c67Q2wpzWPpqlkdYUNDnRCVWvXt1MFr3HvwnfR0wgHMjhMI2T2O1CCAyaWLBr166tHjF3IxRoYlFh93777bcrs7zWPGHi5AAF2iOEAMr75ptvXE8V67LS9RoPE7PdqRgTs340hZgB+Wm3CTPe7z5o2zELIniac4R5SJgWLJ31cHgGczUCDXOIMtzIaz5hJkcwQkuEqfuyyy5Thyjwa/OLc6sj3cIKEnfcEHhfMX/n11w7f/786NxifrkdwPPCNsycAQ/nFyu8eCD1ec0Zt7Z48UB8CDn8iGBdv359uemmmwTXIbSW+E+jCWUz/cknn6hi8X33OoTmVm8ywrzeMa++4Z7w7LPPSuvWreWtt95SawI4I0B7bUYLoh+YsWvVLBFT9KHVS8gF55SJHLDZKb/N361Ob6NlNIlDPNA/muRYWtBQtm1dWoVhCoc6RbSU1RusUr833t4pK/+ItaCoRAH/aKESEzj3liwCyULAfbUMUDumFg6HoOlB48inajAV1apVK1duTH/Tp0+PhrOzhkxTpI5Ec4ZmiIUAk5TT1K7TaSGTsjBrQzBVzCGYvTH/6oMQMB12tjjGI6BiCteE9goB9/HHH9dB6gASginmuMJEfpg4+5HsMXHWz+EKvRhwUj8MhWk7bhimryz3hLkRp/uZe2h8WMC8hEm/+cQnrBBEH330UeU3ieYIIRb3Cr84t/akW1hB4f78888r30gEv0RooOAr8A5NtDsMBZ0zYXig35xxts2LBzKX2BC3a9dOCVfkw8rDBgmNK7wPYY2f3rQjfGIaP/TQQ53VpOTZ6x3z6xvvITxbfwIOARkNLYfr+HqHaa0oqE7xKaGt2/ZKs5NzH7Lp06Oc9Oi7USpWKK4ERafQWeuIHCF03oLd0rhhzpI7d95uOb15KalyUI5OZ8bkqpHDPjkC59KIyTwzzglys59uQqNbmJnH3lsECgKBPGso0fAh7OHjhlka/zMESz61An311VeiT1zj+4IpBl9MTB3kYSddqVIllZZPb+BwDeF0j//aI488ok6ET506VfhBCKwjRoxQ/miYRzp16qTqJf2bb76pFvKLLrpIfc8Ov0stELBgjRo1Sp555hnl66nLhBnTRoRM/YM5YWK/7rrrVJ2F6Y8fJvQjlWPixPHEE09UvrIcMPAS8Jx59HOY+YSA8vTTT6udOovZU089pQ7fUJY5n5gL559/vtpEoLVmA8Q80cKoiZ3ffEJ4YXPCPEUzypxj8eNQml+c7ls6XwsCd/zmeOf56gIbOP1ual9sE/eg2MCHmFf6p/1ig+YPOmfC8EC/OUO7gvBA/NTZwHOokQ0zG3pOhLMBqlu3bpSHwcvQ3kEcYHMe1lARKfjj94759Y13R/Nnrqw1zBXuC0qYnBMxU0/9JUsmfZcpz4zYrj4j1KFtaTntlNwCJWZsaNDgrdKnZ25XikYRP8tDqhaXx4ZtEw7tYBbXGsimx5RUcfc9vFWFLVmWLS0ih3peGxPe5M0461/Y4c1rvrD1BE2fbu0J2u79PV2eNZSY8xDS+CYYAhgnE/FD5LuUEMIjTuv4MfLyY8rC9wfC4Z60mjDb4MfILlp/ngg/NJPQgHLQhlO6fO6DU7NogWA2MFMYyxNPPKG0kjBZdq6aCId69eqlg9QV07ab8z9lF1bywoT+pHJM8oOnczyCzqcTTjhBzRXGWW90MK/j+gCZ84lPTKEZ4qc126RhHmLCNrGLN5/wm0R7gqDEvORZa+794qgvnSgZuL/44ouqy/AQ01eaz96w8TRxN7Fxts2My+89/CXInAnDA+PNmaA88NZbbxU+gaWtO2jU8Tl1EgIaVJA4OeuM9xzvHQvbt3j15Sf+2oGbo9k55d3v8vJy350VVNjf0EbjMWHjN/noU5FN6dllouH6pkzk80IT3q8SEUo3SrX6q5QA2ejonKW3XNli8tFbVZSGkxPgED6Ud92cU5cuI+hVayYRyPR9kLw6Lfkg/Rwkb0Gk0fWnS3sKoo9FscxiEVNDzAcKYESOIN9+c3qV7/sFManw3yhwNEeTlkiifsymWiOJyRt/Qn34J5F1paKssGNCG52YeLU7WWPiVX9+wsO0HbMz88PrMEZ+2uGVl0MbzEu3Rd0vzqu8ggoPO7/SHfdE4RR0zoThgYlqG5pKDhzpDXyiyk10OWHnFvUnu295aWNecUJDeXCV4hGekLsEPh/ESfLSpXM2A7lTiLKwaWHLGe8UIp3PZnq/ONLFi9dlBU2n03td45UTL16XGzSdTu91teV4IZMTDj5ucmKeNZS6OhbLIMIk6fUhDJ03UVenScvtYFCi6ios5Tgx8Wp3ssbEq/78hIdpe5DTwflpi1te7dsbNs4tfTqFpTvuicIq6JwJwwMT1TY2y0Vlw+zEJFV9w3exTpMcLaGzTal45lT4v/rnfJXCr34Wd03mPWF5FYwQWnVZXgKsrjMZ13RrTzL6XBjryLdAWRg7bdtsEbAIWAQsAhYBE4HakcMzezfn/qKImSYd77XAl1fh0atPZrmk0c9e6Qs6XNefToJuQfe5sJVvBcrCNmK2vRYBi4BFwCJgEXAgoAUuR3C+Hwuq3Lw2LN3ak9d+FMV8Lp4cRbGbtk8WAYuARcAiYBGwCHghgOZPa//MNG5hZnxB3adbewqqn0WpXCtQFqXRtH2xCFgELAIWAYtAHhFA++cUIN3C8lh86GxudbuFhS7YZigQBFxN3px6s5ReCNgxSa/xKGqtsfOrqI1o+vSnMMytwtBGPaJOgU+Hh71SDsKZk7TA5hbnTJuM53RrTzL6XFjrcBUo3Y6DF9YOFoV2w+zsmBSFkUzPPtj5lZ7jUhRaVRjmVmFoo54LtDURgp6XMKnrSTchLt3ao3Gy11gEXAXK2CT2ySJgEbAIWAQsAhaB/QkBLcTR50QIsfnFLt3ak9/+FMX8VqAsiqNq+2QRsAhYBCwCRR4Bbf5OhMDnVoZbWLJAdavbLSxZ7bH1xEfAHsqJj5FNYRGwCFgELAIWgbRDAAGLH4KlFi7z00i3MtzC8lNH0Lxu9bqFBS3Ppit4BKxAWfAY2xosAhYBi4BFwCJQYAiYgmVeK0FYc9MAaoE1r+UmMl86tSWR/SoqZVmTd1EZSdsPi4BFwCJgEdivETAFLjfhMAw4XgJmmDLym9ZLI5kObctv34pi/sAC5datW2XKlCnSpk2bGBy2bNkiP/74ozRo0EBq1aoVE+d8WLlypcybN0+OP/54qVy5sjM6+syJ5p9//lk9H3vssVKyZMlonPMmKytLfvjhB6lUqZI0btxY+L+6mv7880+ZNGmSXHrppSqI5/nz58tpp53mWSYvYf369SXo/8LWdaXi6jUmfpg425nsMXHWH+R5yZIlQl+bNm0akzxo28k0c+ZM2bZtm5p7ZcqUiSnHfMjMzJTJkydLjRo15MgjjxROVXqR13xav369rF4d+z+Ba9euLeXKlRO/OK96UhWeTNw3btyo3nne4UMPPTRul73aFjejS4JPP/1UzjjjDOF/lJsUdM6E4YGLFy+W5cuXywknnCAVKlQwq8t1P2fOHPnrr7/UnDUj586dG/PVh/Lly+fivbt27ZKJEyfKmWee6cnrzDKTeb979261Zhx22GG52h2kb6tWrZJFixYlxMTr7HdW1l758utd0eCMyApZuVJxOa5pycjakhO8ecsemTI1S9q0Kh0Ni2YwbiZMzJTjjy0pB1fZtybp6J+mZUmVg4pL3doldFDCrlqQ1MKYfk5YBUksqDC3PYkwpU1VuWe6S9NgAL1795brr78+Jvb111+XAw88ULp37y4smMOGDYuJNx+uueYaqVmzpnTr1k0OOuggV9U66VesWCFHHHGEnHPOOYrJn3jiibJmzRqzqOg9DLdKlSpy8cUXK2Gja9euQls1ffjhh/LFF1+osPbt2yshoU+fPirPSy+9pJNFrxMmTJDmzZsrwTkamKY3XmMSDxOzO6kYE7P+IPdr166Vli1bysiRI2OSB237jh07hE0JPxgsVwRBN/r444+latWqcvXVV8vRRx+t5rw5n3Qewvzm00MPPaQ2NwhH+odwAvnF6fLT4ZpM3P/zn/8ongB/QZB/4YUXfCHwaptvJo/IJ598Us4++2y1YdFJwsyZoDwwOztbzjrrLKlXr55cccUVgjDFBt2NFi5cKEcddZSceuqp0qFDB5WHTTu0YcMGadSoUXReMb+uuuqqXMXcf//9Ki/CbjrRBx98oMb6kksuUWsG/HbTpk2qiUH6xrsHv7/22msLpFtbtu6VDp3WS5feG6T31Rul7QXr5cTT10qTZmtk5q9Zqs6Fi7OlXcf18lfmXt82kGb6rJw8zoR3D9oiY8btcAYn9BlhLIxARlp4pP6Zz2HKSWgnbGGFCoG4AiUCSosWLeS9996L6RhCHi/1yy+/rLQxr732mgwYMMB1sUaoe+6552T27Nlqd06+fv36xZSnH1hcYJJ//PGHEiRhMm7CH+lhzAiRCKEzZsyQzz77TD766CNdlKB5gIm///77Suu0bt06tbMdPHiw3HjjjYI2ShNxPXv21I9pffUaExodDxPdsVSNia4/yBUB75hjjhE0kSaFafvDDz+ssjK+aA3ZzDD+TkKry/y99dZblRYdjEeNGuW66MebT2jXH3jgAdm5c2f0d/LJJ6sq/eKcbUrVczJxR3j697//Ld988438+uuvSphEQAI7N/Jqm1tavzA0opdffrkMHDgwV7KgcyYMDxwzZoyypMDP6PN5550nd999d666CRgyZIgSIpmzv//+u7Ko6DbNmjVL5UFQ1POLjbNJ3333nQwaNMgMSov7PXv2yC233KJ+aGmxOrC5Gz16tGpfkL499thjoYSkvHZ8/NgqsnphddmzqYYsmlFNMkoUk869NsqOnXulaeMMWT6nmpQt4229oN6Vc6tJi2al8tqEwPm0AOjMQHhYQnDUP/Ka92HLym96K8TmF8Hk548rUKJRwZztZFDTpk1TrdVCWI8ePeSQQw5RGkFnNzC9dOzYUQmKmJVuuOEGYcHG/OMkBM2nn35aSpQoIRkRe0OpUqXEbZcNM8LUjaaKNJhDL7zwQhk/frwqElMRu2FtykLrgTYTatasmWJmmN81UW+XLl3imqF0+lRevcYkHiZmm1MxJmb9Qe7RFCLkde7cOSZ5mLazyejbt68ae+Yn46wXMLNQFrvnn39errvuOhWszZ9uc484r/lEObhZIEBimmNMMLHjiuEXZ7Yl1ffJxB1Xlc8//1xtWul32bJlVffNzZ6Jh1fbzDRB7seNGye//fabIOg5KeicCcMD0Tb+97//Va4+uFHQT62Zc9aPq8U999yj+Bo8kLxsoiCELp4JX7p0qeKT8D9NmzdvVi4+d911lw5Kmyv9ZZ3gfQSDAw44QI477jj5+uuvVRvj9Y3N2IMPPqiUAcnqVKSZyiw9blRlmb9wt3z2RaYsWpIt3a/cKLt27ZV+AzbJcy9vjzZnzdo90rzdOlmwaLf0umqTzJido6FcvjI78rxRajZcLT37bZS16/ZE86xbv0eu7L9JxZ3Qcq28+OqOiEtDNDrQDcKXU4B0CwtUmE1kEcgjAnEFSjSLaB9ZjE1ih1mnTh3F2AiHQSB4oll0Ev5OpNWEuQdiwXUSCzE+jGPHjpW2bdtGXtpdigE506GVhDCPa6IOdvQQwuZJJ52kTJhoA9BkaqJP9AezEvTKK68oDafWAuh06Xr1GpN4mJj9ScWYmPUHuUdjdeedd+byAQvTdoQGc47gdoFmCROkSQiJ+AfjwoGWHFMj869Vq1ZmMnXvN59Y5CHcQJiPzDM08giTfnEqU5r8SSbuBx98sLIiwAv69++vsEJjiaDpRl5tc0vrF8b4fP/998oFwpku6JwJwwPhaaeccor89NNPam5gdbn33nudVatncEBohNgYs3lhPkK//PKL0uTi492wYUM5/PDDVZkqMvKHvMxZ7Teuw9PhinUAraz2T+c9fuedd5SfJ+3z6xtuCLhL4aKAO0qyqX7dDKlwQDGZOy9Ltu/YK99O3iXZEZmw4VEZMnjItqgAOO6DnbJsebbUq5MhE7/JFEzoeGF17LZBVqzcIyOGVYpsFIrJtBk5giaC40U9NsjMiOD5wtBK0r1LWekbEVLHvuuuoffrtxUg/dCxcclAIK5AicO3G+HH5HQqZ8fpptFhATfTai0EhyS8CFMI6dhxw4SdxOEGyGwf95iUIPwhzz33XHVv/kFoHD58uLzxxhvKCR/zE75bPJtlmXnS7d6rnfEwMfuRijEx62ejoH9ufoqkrVixopkleh+07ZSLhtDEizkKeZlUycMcQqu4bNkyWbBgQbRetxvnfGK+ohVnQ0QdbFaYb2jC/OLcyk5VWCpwxwQN8c7jW6ifnRh4tc1Mx6E+Pbe4OjcPpOWAlBuFmTNheKCuC8FZHzLEzO9HCFFshMmDIAVxmBF/dtxAmJtsiklDn99++22l7R06dKhfsWkRx7vFBo5NG246kF/fbr75ZtVXfOBTQWgqG9TLkNVr9mkWaUfXTmVl8dLsyCGdnIM8I0fvkGuuLB9zWAchFAFy8KCK0r5NaRn+xIHRLsyek6WE09sGVlAHeLp3KSfdOpeVESPz5l9phcootPYmBQjEFSi92oRmwcn0WYi19tHMR1pT0Ny+PcdEUL16dTNZzD1m8U8++UTtuDF7Ov+XNbtdCIFBEwt27dq11SPmbvNEOosKu/fbb79dmY84/QhhfsFnE+0RQgDlwej1IQqVqJD8iYeJ2Y1UjIlZP5pCtIL8tNuEGe93H7TtmAXZyJhzhHlImBYsnfWQBx82fHLRVuKz5UZe8wkT3pdffqm0RAill112mTpEgV+bX5xbHekWVpC4o23jUB+nfPF9xk81r8SXHPTc4urlg+1Wfpg5Ax5BeaCuC+02B8ww8z/66KOeGxbKxf8bMzAHcjisBDEfwQnBGq3nTTfdpFyH0NwimFE+m2l4J4Tvu9chNJUgBX/grViimjRpotySwBzy6hvuCc8++6y0bt1a3nrrLYUHaw0CtNdmtCC6hRm7Vs0SMUUfWr2EXHBOmcgBm53y2/zdwulttIwmcYgH+keTkuqKhrJt69LqHlM41CmipazeYJX6vfH2Tln5R6wFRSUK+EcLlZjAubdkEUgWAnkWKDG14AepNT0casBU5PbpIEx/pNWktT6mKVLHITyyIGviRCMaKS2E6nDNYHVZhMNU69atq8zemH/1QQiYDg74r776qmJGWpgkD9orhIPHH39c/QiDCcfTHpAu3cgPE2dbkz0mzvo5XIHJkd99993njPZ9DtN23DBMX1nuCXMSrhq9evWKcdn4xz/+oQ58OdP6zadvv/1W/vWvfykTN/nYCCHEoknyi3PWkY7PBYE7/nO4BOgNI1oqeIvzIFYYPOArem5xveCCC8JkV/MjyJwJwwPxz8U3XJN2t3FzEYLfYbZGu0r7NU8Fo9tuu02++uorXYz6FBYbJDSumIIR1uBlaMYhhE83X/VoAUm+QfvMyW7GBEFRW6v8+obAifsSWn76hjDO/OBwnV5/Crob+E5u3bZXmp28z19V19mnRzl55fUdMvqtnUpQdAqdtY7IEULnLdj3BZK583Lu+XQQNGNyVdm7uYb6LZlVTT58M0dhouvwu7oJjYS5hfuVY+MsAvlFIM8CJUIZ/mH4uGGSwTcG5gCzgGB6+sQ1vi8wAXwxMXWQh5209pPi0xv6u5OYgzgJiC8kTB1tEQcl0CghsI4YMUIt1iw8nTp1UvXii/Pmm2+q3e5FF12kvr+Gz5He+cLMObH7zDPPKF/PqVOnCj9M7rQRDYD+wZwxL+nDGfkFOJn5/TBJ9Zg4ceBzUPiJ8XMT8Jzpzecw8wkTGQs5zJXF7KmnnlIHAyjPnE98+xCt5L8j/nsIgAg6zLV//vOfqmpzPvvNJ4QuFj3yohllzrH4cSjNL87sX7reFwTujD0uAWgR2TRyD15sACET96C4wIf03OKqffaC5g86Z8LwQOYXFhL4HKe3+awPh2/4ggZk8kAOHsHTHnnkEfVVDM2v8FNHgMJ6w4aZTTr8EZM3G2nNw7iivYM4wOY8rKEiUvAHfnv++eerA5RYhqZPn674MHzer2+8O2bfWGs4hEkY/LogaE7ETD31lyyZ9F2mPDNiu/qMUIe2peW0U3ILlJixoUGDt0qfnrldKRpF/CwPqVpcHhu2TTi0g1lcayCbHlNSxd338FYVtmRZtrSIHOp5bUx4kzfjrH8FgYkt0yIQD4E8C5SY8xDSXnzxRfUhYrR6+CFiJoQQHrXfDy8/J5Px/cEkDWPBhKEJsw0CJ4SvDCZodv/suKkHMzXEQRtO6XLAAcJkBHOGmRL+xBNPKK0kpzT5TqAmwiE0UOx09Q8ncDcyP47uFp/OYV6Y0OZUjkl+MHOOR5j5hGDCh+zZ6CBcwHBZ2CFzPrGgcfhhacT1gTmMhog5xZcDIBM7v/nEvEU7hB8bZsk77rhDPaNl8otTlaTZn2TgjlYdPgKvYNOIAM+hM7CCTNxNeJxtM+Pyex90zoThgfhz80kqvnnJt07hd3xyTfdD80A0lvBSNiP44mpexRXNOGXwKS20sPBJNuUIp05iPkO6fGd8Kp5xZUD7yuYO65HuGxpqKGzfCrIP1w7cLCe1Wiutz1kvTzy9TfpdXl7GjcrRGv4NbbR6TNj4TULnn10mGq5vykQ+LzTh/SoyecouqVZ/ldx67xZpdHSOmb9c2WLy0VtVZNac3eqUd92mq6Xl/5WSu27Om6CsNZPpsonQGNjr/oFAsYipIXLObB/BiBxB+yJd7hDu+L5fkP9uwadAcDRHkxaPEDoxowdJS/18EkhrJNFu4k+ozSnx6kr3+LBjQn+cmHj1MVlj4lV/fsLDtB2tI/PD6zCG2Q42KaQLktbM57zn0Abz0m1R94tzllPQz2HnV0HhjjCF1UO/xwXd73jlB50zYXggQiFCFfxSC33x2uEWj6YSk7jewLulSYewsHOLNie7b3lpY16xRUPJf84p7qLK4fNBnCQvXTpnM+BWB231MmUjRJpxzmezPL84M128e1uOP0JFGR83OTFnm+SPiW8si2UQYZJCtKO8b4F/R3odmnDL6zRpuR0McstXlMOcmHj1NVlj4lV/fsLDtD3I6WDdFg5bJILQRHmRX5xXnnQJLyjctQ9wuvQz6JwJwwMRlhPRTzbLRWXD7BzvVPVtaeRzP3WarHY2J2XPnAr/V/+cr1L4NQKhRZN5T1iiBBpdvr1aBPwQyLdA6Ve4jbMIWAQsAhYBi0BhQKB25PAMB2MKG2mtpBUeC9vIFb32uijei14nbY8sAhYBi4BFwCJQlBHQgmVR7qPtW3ojYAXK9B4f2zqLgEXAImARsAhYBCwCaY+AFSjTfohsAy0CFgGLgEXAImARsAikNwKuPpT5OX2Y3t0tvK2zY1J4x64wtNzOr8IwSoWzjYVhbhWGNurRdx680eFhr+lWTtj22/Tph4CrQOl2HDz9mr7/tAhmZ8dk/xnvZPfUzq9kI77/1FcY5lZhaKOeMbQ1nXwlE3UQKFHCrcbJXlODgDV5pwZ3W6tFwCJgEbAIWAQsAhaBIoOAFSiLzFDajlgELAIWAYuARSA8AmgIi6KWsKj2K/wIJyeHq8k7OVXbWiwCFgGLgEXAImARSDUC2oyuhUr9nOp25bd+3Y+i1q/84lJQ+a2GsqCQteVaBCwCFgGLgEWgECGAAMZPC2CFqOm+TS2q/fLtdAoirUCZAtBtlRYBi4BFwCJgEUhXBLRQWRQFS/pU1PqVLvMosMl769atMmXKFGnTpk1M27ds2SI//vijNGjQQGrVqhUT53xYuXKlzJs3T44//nipXLmyMzrX86pVq2TRokW+g5+VlSU//PCDVKpUSRo3biz8X11Nf/75p0yaNEkuvfRSFcTz/Pnz5bTTTpOSJUvqZOq6ceNG+fnnn1UZQf83eUwBKXjwGhM/TJzNTPaYOOsP8rxkyRKhr02bNo1JHqbtM2fOlG3btqm5V6ZMmZhy9MPOnTuFukw65JBDxOt/e3vNp/Xr18vq1bH/E7h27dpSrlw58Ysz602H+2ThbvaVhax+/foS73/Re7XNLCvo/aeffipnnHGG8D/KTQoyZ0gflAcuX75czUGzjkaNGpmPMfdz5syRv/76S81ZM2Lu3LkxX30oX758Lt67a9cumThxopx55pm5eJ1ZVrLvg75jrCmHH354rv97HnRM8tqvrKy98uXXu6LZI/96XSpXKi7HNS0ZWVtygjdv2SNTpmZJm1alo2HRDMbNhImZcvyxJeXgKvvWJB3907QsqXJQcalbu4QOSrsr7yKkhS/9nHYNDdkg3Y+i1q+QMBRI8twz3aWa3bt3S+/eveX666+PiX399dflwAMPlO7duwsL5rBhw2LizYdrrrlGatasKd26dZODDjoo7qcPqPPiiy+Wa6+91iwm5h6GW6VKFZUOYaNr165CPk0ffvihfPHFFyqsffv2ijn16dNH5XnppZd0MvnPf/6j2kT/atSoIS+88EI0Ll1vvMYkHiZmf1IxJmb9Qe7Xrl0rLVu2lJEjR8YkD9r2HTt2yLHHHqt+MBDuEQTdiLnCpsT8vfzyy7mSgr3ffHrooYdiyqA8FkLILy5XRSkMSCbuupsTJkyQ5s2bq42rDnO7erXNLW28sCeffFLOPvtstWHRacPMmTA88Lzzzss1L3Sd5nXhwoVy1FFHyamnniodOnSQevXqqU07aTZs2CAIoeYcveqqq8zs6v7+++9XeRF204mCvGOTJ0+WU045RX766ado08OMSTRTHm62bN0rHTqtly69N0jvqzdK2wvWy4mnr5UmzdbIzF+zVIkLF2dLu47r5a/Mvb41kGb6rJw8zoR3D9oiY8btcAan5TMCmBbC0rKBeWxUUe1XHuFISLa4AiUCSosWLeS9996LqXDNmjVK2GPBRRvz2muvyYABA1wXa5jIc889J7NnzxZ26QiJ/fr1iynP+fDYY4/FncRXXHGFEiJXrFghM2bMkM8++0w++uijaFFoHs466yx5//33BSa1bt06pfEcPHiw3HjjjZKZmSkw73//+9/yzTffyK+//qqESRg0O+l0Ja8xob3xMNF9StWY6PqDXD/++GM55phjBE2kSWHa/vDDD6usjD3zlM0M4+9G06dPl7Zt26qxZ/z5DRw4MFdSv/lEYjTdDzzwQEw5J598sirHLy5XRSkKSDbudJPx6dmzZ9wee7UtbkZHAiwSl19+uev4Bp0zYXggmkY2FVhM9Nzy4jFDhgxRQiSY/P7778qiots0a9Ys1RMERV0OG2eTvvvuOxk0aJAZlDb3fu8YGzX4vtYcmY3W/Q/yHpv58no/fmwVWb2wuuzZVEMWzagmGSWKSedeG2XHzr3StHGGLJ9TTcqWKeZb/Mq51aRFs1K+adIpEtzdsHcLS6d2x2tLUe1XvH6nIj6uQIlGBXO2k0FNmzZNtVcvAj169BDMgyz2TsL00rFjR7Wrxqx0ww03CELR4sWLnUnVM4vugw8+qIQ+1wSRQEygmLrRVJUqVUqZQy+88EIZP368ygID/+CDD6KmLLSOaDOhZs2aqfyY3zGVf/7550poJq5s2bJclLCpbtLwj9eYxMPE7EoqxsSsP8j91VdfrTYpnTt3jkkepu1sMvr27avGnvnJRmb06NEx5emHX375RWmFMI3jbsFczcDm5SDCvebTnj17lNCAAEkZjAkmdlwx/OIcVaT0Mdm401nGpUuXLlKhQgXfvnu1zTeTS+S4cePkt99+kzFjxuSKDTpnwvBAzNTQcccdJ0uXLlVWEy/XiyOPPFLuuecexdeYf2gqNV9FoOSZcMopUaKESqc7sXnzZuXic9ddd+mgtLr6vWMLFiwQhOl333031zwIOiaJ7mzkO+LKLD1uVGWZv3C3fPZFpixaki3dr9wou3btlX4DNslzL2+PVrtm7R5p3m6dLFi0W3pdtUlmzM7RUC5fmR153ig1G66Wnv02ytp1e6J51q3fI1f236TiTmi5Vl58dUfEpSEandQbtHZOAdItLKmNSkBlbn1wC0tAVft1EXEFSjSLaB9ZjE1C01inTp3ogssX/BE8//jjDzOZusffibSaDjvsMHXLguskTBuYxTFFHX300c7o6DNaSeiII46IhlEHO3oIYfOkk06SqlWrCqYmzOGa6BP9wayEfxxaTNrSv39/pT1FY4mgma7kNSbxMDH7k4oxMesPco/G+M4778zlAxam7QgN5hzB7QLNUnZ2dq4mwGCef/55NWeYS2jmMa86yW8+schDuIFQBvMMjTzCpF+cypQmf5KN+yuvvKIsDFoL5QeDV9v88rjFMT7ff/+9coFwxgedM2F4INYZCB7ZsGFDJTA53Th0O+BDCI0QG2M2L5i+IQQyMMDHlHLwMzRNw+Rt1apV1G9cZUqjP37vGNjgM4/ywUlBx8SZL1HP9etmSIUDisnceVmyfcde+XbyLsmOyIQNj8qQwUO2RQXAcR/slGXLs6VenQyZ+E2mYELHC6tjtw2yYuUeGTGsUmQDUEymzcgRNBEcL+qxQWZGBM8XhlaS7l3KSt+IkDr23dRZyIqqoFVU+5WoOZ6IcuIKlDh8uxELrVObcMABBygHdWd6FnAzrdYCogly0s0336wEPXwd/YjDDZDZPu7xMYLwxzr33HPVvfmHRWv48OHyxhtvxDjhYwKDaBuHj/SzmTdd7s0+m22Kh4mZNhVjYtbPoQH9M/1ezTQVK1Y0H6P3QdtOuWgITbyYo5DT3MjCfcIJJ8i9996rFnHMhpgoEWj9yDmf0BBxwGPs2LGqDoQl5huaML84vzqSHZdM3HE5wXeZ99EcJ68+e7XNTM+/KdVzi6vb5oEDUm4UZs6E4YFsuC+44AK10cVsi3sQJncEKC9ic81GmM0uG2yIw4z4s+MGgkaPTTFp6PPbb7+trC1Dhw71KjKl4fHeMbSuWJucFGZMnHkT9YymskG9DFm9Zp9mkbK7diori5dmRw7p5BzkGTl6h1xzZfmYwzoIoQiQgwdVlPZtSsvwJw6MNmv2nCwlnN42sII6wNO9Sznp1rmsjBiZWv/Koip8FdV+RSdUim/iCpRe7UOz5xS6EOa09tHMR1rTOXz79hwTQfXq1c1k8vXXX8uzzz4rrVu3lrfeeks5olMmjNIpdOALByEwaGLBrl27tnrE3G2eSGdRYfd+++23K/MRpx9NYrfPoSJMU/he4idX2CgeJmZ/UjEmZv1oCjEd89NuE2a8333QtrNAsZEx5wjzkDAtWOp6MD9+8sknSptImzD7XHnllfLll1/qJDFXr/mESZM8aIko87LLLlOHKBBQ/eJiCk/Th4LAHXcEDpgsjWh2EcIZK/yZ9SGmvEDBlxz03OJqHsCLV16YOQMeQXkgLkHwFLTWuN7ojYqpXTTbRrlYTjBxc+KZw4IQPobwKQRrTsPfdNNNynUIrSX+02jP2UwzlyF8370OoakESfwT9h3TTQszJjpPQVwxY9eqGXsq+9DqJeSCc8pEDtjslN/m7xZOb6NlNIlDPNA/mpRUVzSUbVuXVveYwqFOES1l9Qar1O+Nt3fKyj9ywlVkiv5o4QteyH1RoaLar3QYn9wOYgFbhakFP0g0PWj1+FQNZgm3TwfBRHHG1sTOGjJNkTyz2GOm1n5NMEJ24hyi4FStqeXUDJayMGtDMFXM5Ji9Mf/qgxAIo2g8YegwZ+rQhBDLQvbMM88IWgQ0APTNeRBEp0/nqx8mznYne0yc9XO4Qm8StG+rM43Xc9C2kx8zGr6ymrgnzEm4auCbetttt0U3RWjQEXac5Defvv32W+W7++ijjyq/STRHzGs0SX5xzjrS8bkgcEcryQbz8ccfj3YZIYiNofMzUdEEcW7gK5izNdHuMBR0zoThgWiq0ZbqE9laQ+42F9HAczgMYZh+aHcj5hIb4nbt2qlNN31ijsIX0bjC+xDE+elNO8Inm+V0+BRamHfMOV5Bx8SZL1HP+E5u3bZXmp2cW4Pap0c56dF3o1SsUFwJik6hs9YROULovAW7pXHDnCV37rzdcnrzUurTQbRxxuSqkcM+OQLn0ojJPDPOCfJE9cssx01odAsz8xSGe7c+uIUVhr6kexvzrKFEwwejY6eNSebuu+9WgiWf/YC++uqr6IlrfCI5+IIv5rJly1QedtLaT5FPb3AQhzAEPv2jTBYVnmGaCKwjRoxQ/mgIfp06dVL14lP35ptvqoX8oosuUt9fw+eInS2EX9yoUaOiQuPUqVOFH8wYRoVJEi0GTJh7hEnMUYWN/DChL6kcEyeWJ554ovITw1fMbVF1pjefg84n8rCRePrpp9UOG1eGp556StAWQeZ8QlvOYR9M3mi6OQTBnLrkkktUWhM7v/mE8IJwxDxF28ZGhfmEX5hfnKokzf8UBO58lUG/7/o9x7x73XXX5cI9KDxscJlX+hfvm5bOcv+fvfMAk6JI//9LTiIoIogiSVREMAc8wIgInqeIoEdUBIwYUE/PHLi/AcWAmDAgiBgwnZlDxPCgKCJJEMmIgZzBZVn4z6f2V0NNT3dP98zsTu9S7/PMdnXFt771dvVb71vVG1RmwsyBfF6NA0X0EYXx7tg+bRRSvskL6TmQMPmY0x588EH1VQw9X7HgRRHlUCMLZhb0HGLB5d24ceMEHPHqQMi085CFSsjBn1TPmB9LfmPiVy7dtNkxN/WUH/Nl4td5Mmz4ZvUZoQ7tKslJJyQrlLixoUGDN0qfnslbKQ6L7bPct3ZZeXjoJuHQDm5xbYFseXgFlXbvAxtV3KIlBdImdqhn5JjcuLzdZMUtzgtX8obJ71VPUcRr3vS1KNrY3etMW6HEfYGS9vzzz6vVL1YF9kExcUIoj3rfD0oh1h/2/mB5QJHDta0Jtw0Kp5OYQE3ioA2nQTngAGEFYj8SkynxQ4YMUVZJTgRi0dREPNSrVy9lncRCyY8N7lj16Ae84ga96qqr1CeOmOxLInlhQl9yOSaZYGl+rJ56wsgTCwM+ZM9CBwWDyYStD5ApT7SBEshBCxY6WIhwIXLyGDKx85Mn5AZrFPvYcEveeuut6h7LvV+aaiRif4oDd7cum+2auJt5zTxmfDbCQWUmzBzI/kn2h7NoRsHFrc9pZj3H6TkQKx5zKYsR9uLquYorlvGbb75ZfUoLKyzWc2SVb046SddblDg520x1Dy9+z5hfeb8x8SuXbtqVA9fLcaeslFPPXi1Dntwk/S+pJmNHFW6zcryW1CEb9k1C/+hYOanJyrHPC417t5ZMmrxN6hz0p9x81wY57NBCY0fVKmXkgzdqyczZ29Up78Ytl0vbv1WU22/y/9pBUiNZiGBudLPcEUdaECKvzh+0TJB6M82j+6b50zxmWq8tn4hAmZgbJeEDBUxEjqjEEo47lDu+7xfEpcJ3H9lojiUtm0T7uE21RRKXN/sJ9eGfoG0xmWN11fUELVfU+cKOCfw4MfHisbjGxKv9TOLD8I7bmXH1Ooxh8sH+NfLhcsyEOLSBXLq91P3SMmkznbJh5auocE+H96IsE1RmwsyBKIUcngtrNXX2E0slLnS9gHemR+XeS7bSfcaCjkmY/nvxGKaOoHmxUPKfc2K6dRLx+SBOkleqlGhIMTPCK8pQUZBWunTd5r0Z1ulcveJ1nlTpYfPp/F5Xt/bc4nR5rzSveF0u6LU01+OmJxYuk4Ki45KPl2UQZZKieqO8SzUZRTknZ7eDQUEa0HsQg+SNeh4nJl78FteYeLWfSXwY3oOcDta8ZGvBo/f26nrNq1+amS+K4aLCPWp9DSozYeZAFjVBn00/PFgsh10w+9VX3GnpPmNBxySd/rB3sVGLxH+Zmk492SrDqfAbBxR+lSJbdRZ3PaYlsKgU4VR90jw428+Wspeq/d0pPWOFcncCy/bVImARsAhYBEonAg1jh2d2ri88TV86e+jfK6146VzmvVMZ03mCXHVZFDhI3wcpm608Zl90nbngQ7ddWq9WoSytI2v7ZRGwCFgELAIWgRAIOJUs532IqpKyZrOupMoDROS6/QAslvgsLjs5SnyfbAcsAhYBi4BFwCJgEcgBAlgitTXSbN4tzky34ZKPgFUoS/4Y2h5YBCwCFgGLgEUgMghgDXQqkG5xkWHYMpIVBFxd3pwksxQtBOyYRGs8Shs3Vr5K24hGpz8lQbZKAo96RJ2Kmo6P2lUrkNbVHLWRKTp+XBVKt+PgRceCrTkVAkx2dkxSoWTT00XAyle6yNlyqRAoCbJVEnjUOMNrlBS0VMqtVSr1yO0eV1eFcvfouu2lRcAiYBGwCFgELAJFiYBWKmkjSspwUfZ5d63bKpS768jbflsELAIWAYuARSCGgLY0ZkPhc6vDLc4CX/oQsIdySt+Y2h5ZBCwCFgGLgEUgMAIofPxQLLVyGbiwI6NXHZnW62jG3kYQAatQRnBQLEsWAYuARcAiYBEobgRMxTKTtrVyatbhFmem23DJR8AqlCV/DG0PLAIWAYuARcAikDUEtPKXiVVR15E1pmxFkUcg8B7KjRs3yuTJk+WMM85I6NSGDRvku+++k6ZNm0qDBg0S0pw3y5Ytk7lz58rRRx8tfv/LtaCgQGbNmiXr16+Xk046Sfj/t16Un58v3377rdSsWVOaN28u/F9dTX/88YdMnDhR/vnPf6oo7n/55RdVZ4UKFXQ2dV27dq388MMPqo6g/5s8oYIc3HiNiR8mTjaLe0yc7Qe5X7RokdDXli1bJmQPyjuFZsyYIZs2bVKyV7ly5YR6uMnLy5N58+YlxfN/q5FtN/KSp9WrV8vy5Yn/E7hhw4ZStWpV8UtzayOXccWBu+7fypUrZfr06XLooYfKAQccoKM9r168eRbwSfj444/ltNNOE8bapFQyo/MGmQOXLFmiZFiX0df69etLjRo19G3Cdfbs2fLXX38pmTUT5syZk/DVh2rVqiXNvdu2bZMJEybI6aefLs65zqyruMNbt24Vxs6kfffdV/bZZx8zSr1TkIN69RL/FWLQMUmoLMRNfv5O+eyLbfESvHr2qllWjmpZIfZuKYxev2GHTJ6SL2ecUikeFy9gBMZNyJOjj6gg+9Ta9U7Syd9PzZdae5eVxg3L6ajIXVEIIa1U6vswjGqlMp2yYdqxeaOBQLKku/C1fft26d27t1x77bUJqa+88oqaDLt37y68MIcOHZqQbt5cccUVwuTZrVs32XvvvT1Pe6E4dOjQQdq0aSPUS14UPTdiwq1Vq5ZccMEFStm46KKLBF41/fe//5Xx48eruLPOOktNTn369FFlXnjhBZ1N7rnnHtUO/WMCe+655+JpUQ14jUkqTMz+5GJMzPaDhFE02rZtKyNGjEjIHpT3LVu2yBFHHKF+TIyEUQSdBG4tWrRI+v397393Zk0pT/fff79amLDA0T9ehJBfWlJDOYwoLtzp4jvvvCMoFTx/zBGXXHKJb8+9ePMt5JH46KOPSseOHROUvaAyQ5VB50D65iZfn332WRJn8+fPl0MOOUROPPFENRc2adJEKVhkXLNmjRx22GFxuUK+LrvssqQ67rvvPlUWZTdKxHysnwl9ffHFFxNYnDRpkpxwwgny/fffx+PDjEm8UBqBDRt3SofOq6Vr7zXS+/K10u7c1XLsySulRasVMuOnfFXj/IUF0r7Tavkrb6dvC+SZNrOwjDPjHYM2yJixW5zRkbxHGcxEIdRKJfNvJvVEEhzLVAICKRVKXrQod0z6Jq1YsUKuvPJKYTLAGjNy5Ei55pprXF/WTCLPPPOMsjouXbpUlevfv79ZXTyMMscKfPHixerXpUsXpfDFMxiBSy+9VFAif/31V2Xd+OSTT+SDDz6I58DycOaZZ8q7774rTFKrVq2SBQsWyODBg+X6669XVikm77vvvlu+/PJL+emnn5QyyQTNSjqq5DUm8JsKE92nXI2Jbj/I9cMPP5TDDz9csESaFIb3Bx54QBVl7JFTFiiMv5NQNBlz/Zs2bZrKcscddziz+soTmVkA/ec//4nXRZ3HH3+8qscvLamhHEUUJ+6bN29Wi9UhQ4ao5+/nn39WiwevRaQXb2GhwiOB4jpw4MCkokFlJswc+OabbybIQ48ePZRiyOLZSY8//rigRCKzv/32m/KoaJ5mzpypsqMoalll4WzS119/LYMGDTKjIhPmuWrXrl2cd/qgx4BF8sMPPxy3iJlM6/6neo7NMpmE33+9liyfX1d2rKsnC6bXkfLlykiXXmtly9ad0rJ5eVk6u45Uqez/D0CWzakjbVpVzISNYi2LwqetkWbDbnFmujPspjQS5xbvLGvvSzYCKRVKLCq4/JwT1NSpU1XPe/bsqa5MkFgZeNk7CddLp06d1MoUt9J1110nKEULFy50ZlUK3a233qpe/LghH3vsMVeLIZZMXN1YqipWrKgslOedd568//77qk5cRe+9917clYWiijUTatWqlbJI4H7HVf7pp58qpZm0KlWqcFHKpgpE8I/XmKTCxOxKLsbEbD9I+PLLL1eLFBYVJoXhnUVGv3791NgjnyxkRo8ebVanwmyVwBXOjy0WtN21a1dBrp2EDHvJ044dO9Q2CxTIP//8U8kZdVK/X5qzjVzeFyfujA+EBQ/l4qCDDlILRKxwbuTFm1tev7ixY8cKyuuYMWOSsgWVmTBzIG5nLV+ff/65smy++uqr8fnGZOLggw+WO++8U81ryCKWSj2volByT/zi2KK7XLlyKp8uzzYhtvjcfvvtOipS1x9//FHxz/YTng+eJfoCseUEZfrtt9+W6tWrJ/AddEwSCmXhJvYdceWWHjtqL/ll/nb5ZHyeLFhUIN37rpVt23ZK/2vWyTMvbo63tGLlDmndfpXMW7Bdel22TqbPKrRQLl1WELtfK/WbLZee/dfKylU74mVWrd4hfQesU2nHtF0pz7+8JbalIZ5crAGUPqcC6RZXrEzZxkoMAikVSiyLWB95GZuEpbFRo0bxyYAv+KN4/v7772Y2FWbPDHk17b///irIhGIS/w2GPY4om3Xq1BH2BrGCZ0+gk7BKQgceeGA8iTZY0UMom8cdd5zUrl1bzjnnHGXJ1BnpE/3BrcTeHayY8DJgwABlPb07ZrFE0YwqeY1JKkzM/uRiTMz2g4SxGN92221Je8CC8k4bKA2mjOBSxbLEPl0vQt6Rn2HDhrlm8ZMnXvIQ2zWQR+QMSz7KpF+aKhSRP8WJO/MIY4KngT2mKBd4FPTCzgmJF2/OfKnuGZ9vvvlGbYFw5g0qM2HmQN0GVriLL75Y/v3vf7u2TT7mIZRGiIUxixdtyUQhAwPmx2bNmqn9pqZrmLKnnHJKfN+4qiRCf1BOnn32WTUv83zg/WILA8T7Aw8SxgcnBR0TZ7ls3R/UuLxU36OMzJmbL5u37JSvJm2TgphO2OyQ8jL48U1xBXDse1tlydICadKovEz4Mk9wobMLq1O3NfLrsh0yfGjN2AKgjEydXvhOQ3E8v8camRFTPJ97oqZ071pF+sWU1Nffzp2HzCqQ2ZKa3a+elAolSp0bMQk4V5F77LGHuO3Z4QVu5tUvC1apJrG6hl5++WV5/vnnBdcNVjf2OTmJww2QyR9h9hhB48aNE7f9b7hOnn76acE6YG7CxwUGwRuHj/S9iozYH7PPJmupMDHz5mJMzPY5NKB/5r5XM8+ee+5p3sbDQXmnXuTHxAsZhbCGeRGKJJYw50EBt/xOeUKGOeDx+uuvqzZeeuklJW9YwvzS3OrOVVxx4s42BBaQLOCwvrFVAKXIudjUWHjxptO5sjDVssXVbfGA8upGYWQmzByo28IbgvwiX6mIfYMo2mCh50AOM7KfnW0gWPRYFJOHPuNWp/4nnngiVdU5SUc5PuaYY+Suu+5SijLzO3uLWTRCLCbwNjkpzJg4y2brHktl0yblZfmKXZZF6r6ocxVZuLggdkin8CDPiNFb5Iq+1RIO66CEokAOHrSnnHVGJXl6SI04W7Nm5yvl9JaB1dUBnu5dq0q3LlVk+Ijc7q+0SmV8iGwgBAIpFUqvunjZOpUulDltfTTLkddUNNk3BdWtW9fMJvplj/sLKxCm95tuukkpl7wYTGIvHITCoIkXdsOGDdUt7m7zRDovFV5UWAZwH3H60SRW+xwqYv8mey+xkpQ0SoWJ2Z9cjInZPlYpFHp+etuEme4XDso7LygWMqaMIIfEaVlztoMbk1+qF76XPB111FHCQQusRLg4sUbhvuXl6Zfm5COK90WBu/YEPPTQQ2q/LM8np3txSadLeDm0bHE1D+ClqjOMzIBH0DlQtzt8+HBlgTOt5jrNvFIvnhOUbL6ioU87s8eQeQrFmu0BN9xwg9o6hNWS/dPMmyymP/roI1Ude9/dDqGZbRVXmOcBvrDYMy7M73379lXPix8PYcbEr55M03BjN6hfLqGa/eqWk3PPrhw7YLNVfv5lu3B6GyujSRzigY5sUUFdsVC2O7WSCuMKhzrHrJR1m/6pfq++uVWW/e7tQVEFiuGPVioZJ8KWLAKpECjcvJIql0s6kz6WBSw9WPVwS+OWcPt0EK4NfciBqvTnWZyTKhMH9eqXDHmJQyHApW6SnmCpC7c2xKTKZ0dwe+P+1QchWOFyuhslkckZV7imL774QlmTsErRBhYAeHAeBNH5o3z1w8TJd3GPibN9DlcwLpDe2+rM43UflHfK40Zjr6wmwsR5ETLCZ604pONFfvL01Vdfqb27KEjsm8RyhBKLJckvzautKMUXBe4sLCCt4PMMYqXysyCnwoR5BXe2JvgOQ0FlJswcSPt4ZFjomgcH3fjCgsnBFZQu+qG3GyFLKNzt27eXU089VRWlThZIWFyZ+7D48dOLdpRPFstR+BQa26HY/33LLbfEDQ/wz2nvVBR0TFLVk246eyc3btoprY5PtqD26VFVevRbK3tWL6sURafS2eDAQiV07rzt0rxZ4St3ztztcnLriurTQfA0fVLt2GGfQoVzccxlnpfiBHm6/fAr56Y0usX51WHTdm8E0rZQYuFjosNdgUuG07Aolq1bt1aIsvFcT5x8KghXDHvT+B4bZVhJa8WRT2/oU52sXnkZ8+Jnj9KTTz4p5557rtpHh8LKCp/9aCh+nTt3Vu2yp+61115Tk/X555+vvr/GniOUUYg9O6NGjVJ74nhhTZkyRf2YzJiocIFjxWASJowymerTJariiP3xwwRWczkmTqiOPfZYtU+MvWJ+Cp6zHPdh5ImFBDLExMhWBg556YM2pjzpdngZ88kSJ5nY+ckTyssjjzyi5JSFEAsV5Il9YX5pzvaieF8UuDMPoBDxmRtcvHweisN6bBuATNyDYsI8hFzpH/sNw1BQmQkzB9K+XkgfeeSRSeyYcyDWcea0Bx98UM2Ber5i7kLR5lAjC2YW9BxiweXduHFjtVhmwcwP9zfEATbnIYukxospAo8U/ODyxpuEp4h5+8ILL0zJgd+YpCycRobZMTf1lB/zZeLXeTJs+Gb1GaEO7SrJSSckK5S4saFBgzdKwqeiAgAAQABJREFUn57JWykOi+2z3Ld2WXl46Cbh0A5ucW2BbHl4BZV27wMbVdyiJQXSJnaoZ+SY3Li83WTFLS4NSG2R3QCBtBVK3Bcoaex1ZPWLa4V9ifojvSiPet8PH6RmZcren4YxlzSK3FNPPRWHF7cNCieEu5u9j6y2sXZi5dEuKw5KcEoXhRJC8eQzEkymxPPpEaySnAjku5OaiId69eqlrJNYKPmxwR2rHv2AV6wkV111lfrEEdaHkkhemNCXXI5JJlgiAyaFkScWBnwcn4UOCgaTI1sfIKc8EYeL0c1iYmLnJ0/IDfsm2ceGW5IvFnCPLPul0XbUqDhwByM+e8NBM/a68ukxFo3stYNM3E18nLyZaZmGg8pMmDkQnnDFozxrT4LJp54DseIxl7IYQanWcxVXLOM333yz2hqAFRY5ZVGOMu4klE+oKHFytpnqHl4YWwwF8I0VFjc9X1NIRX5jkqpsOulXDlwvx52yUk49e7UMeXKT9L+kmowdVbjN6v+gjVeLC5t9k9A/OlaOx+tA5djnhca9W0smTd4mdQ76U26+a4McdmihsaNqlTLywRu1ZObs7eqUd+OWy6Xt3yrK7TclnnLXdRXllbnRzSJJnFUqixL50lN3mZgbJeEDBUxEjijf3qLcsbE+iEuFzwBhhcCSlorIR/4geWkft6m2SOLyZj8hloowxGSO1VXXE6ZsUeYNOybw4sTEi7/iGhOv9jOJD8M7bmfG1eswRiZ8eJXl0AZy6fZS90vzqq+o4sPKV1HhjqsXvPgUThQoqMyEmQOz1S8slewr1wv4bNWb7Xq8ZIs9ojyLuPXDUNAxCVOnF49h6giaFwsl/znHsUZWxfl8ECfJK1UqXAy41QmvbkqfW96wcU6F0rw3w2a9XvFmniBhW48/SlHEx01PTHsPpe4+L8sgyiT5mTyCTiBMNkFf/k6XltvBIM2v39XNcuCXP8ppTky8eC2uMfFqP5P4MLwHOR2cCS9uZfXe3rBpbvmjFFdUuOu9glHpa1CZCTMHZqtvLJbDLpiz1XY26gliKHBrJ+iYuJVNFcfexUYtlqfKVmzpnAq/cUDhVymKrVHbkEUgAwQyVigzaNsWtQhYBCwCFgGLQCQQaBg7PLNzfb1I8JILJpyubfO+qKyiueinbbPoELAKZdFha2u2CFgELAIWAYtAiUHAqTg670tMRyyjOUEg8bRDTliwjVoELAIWAYuARcAiYBGwCJRkBKxCWZJHz/JuEbAIWAQsAhYBi4BFIAIIuLq8OUlmKVoI2DGJ1niUNm6sfJW2EY1Of0qCbJUEHvWIcuI3SpQtfrJVT5Sw2d14cVUo3Y6D727ARKm/THZ2TKI0IqWLFytfpWs8o9SbkiBbJYFHPabwGqV9jVH8nI3Gyl6LHwHr8i5+zG2LFgGLgEXAImARsAhYBEoVAlahLFXDaTtjEbAIWAQsAhaBcAhgabQuZ2/MLD7e2Jgpri5vM4MNWwQsAhYBi4BFwCJQehHQbnStVOr70tvjcD3TeFh8/HGzFkp/fGyqRcAiYBGwCFgEdgsEUJz4acVpt+h0iE5afPzBsgqlPz421SJgEbAIWAQsArsVAlqptIql+7BbfNxxCaxQbty4UcaPH59Uy4YNG1T8kiVLktKcEcuWLZPPPvtM1q5d60xKuv/pp59kxowZSfHOiPz8fPnqq69k5syZsmPHjoTkP/74Q8aMGROP4/6LL74QyjgJnugfeUoKeY2JHybOvhX3mDjbD3K/aNEiV1kIwzuyNGnSJPnrr798m/z9999l3Lhx8ttvv/nmI9FLnlavXi2zZ89O+G3ZskXV55eWssFizlCcuG/evFk+//xz2bRpU6BeevEWqLAj08cffyx5eXmOWFEyF0Rmgs6B27dvl8mTJ8vXX3/tOgc5GUCGpk6d6oyWOXPmJMiW29y7bds2+eSTTwK1k9RAEUZs3bo1gXf6uGrVqqQWv/vuO+FZdFLQ59hZLuh9fv5O+WR8Xvw3fmKe/DAtP/Zu2VXD+g07ZNyEvIS4Xam7QuRZtdoouCtJvp+aLwsXFxgx0Qua1jirWCaPj8UnGZNACiUTYe/eveXaa69NqOGVV16RGjVqSPfu3aVhw4YydOjQhHTz5oorrpD69etLt27dZO+99/b89AGK3RFHHCGtWrWSdu3aSfPmzeXPP/80q4qHmYxq1aolF1xwgbRs2VIuuugigVdN//3vf5WSSNxZZ50l9erVkz59+qgyL7zwgs4m99xzj+KJ/pHnueeei6dFNeA1JqkwMfuTizEx2w8SXrlypbRt21ZGjBiRkD0o7yhyyBM/JkWuXouG0aNHy/777y89e/aUAw44QPr27ev6uaZU8nT//fcruUV29U8vjvzSEjqY45vixP2pp56SPfbYQy6//HKpXr26DBkyxLf3Xrz5FvJIfPTRR6Vjx47C4kxTGJkJOgeidLZp00ZOPPFE+ec//6nmIC0Tul19nT9/vhxyyCEqb4cOHaRJkyaCggWtWbNGDjvssLhcIV+XXXaZLhq/3nfffUJZ2o0SsWjXz4S+vvjiiwksosSfcMIJ8v3338fjw4xJvFAagQ0bd0qHzqula+810vvytdLu3NVy7MkrpUWrFTLjp0JDxPyFBdK+02r5K2+nbwvkmTYz2XhBoTsGbZAxYwsXmb6VRCBRK04RYCWSLFh8dg1LSoUSBYWJ8J133tlVKhZasWKFXHnllcJksHz5chk5cqRcc801ri9rJpFnnnlGZs2aJUuXLlXl+vfvn1Cfvhk+fLiyUrBqxQJVvnx5ef7553VywvXSSy9VSuSvv/4q06dPVyvyDz74IJ4Hy8OZZ54p7777rrJOUeeCBQtk8ODBcv311yurBJP33XffLV9++aVgFUWZZIJmJR1V8hoT+E2Fie5TrsZEtx/k+uGHH8rhhx+u5MDMH4b3Bx54QBVl7JFTFjOMv5PWrVsnPXr0UHKBdRLryBtvvCEvv/yyM6uvPJH5hx9+kP/85z9KhpAjfscff7yqxy8tqaEcRRQn7lgmb7nlFjV/zJ07V9566y254YYbPBUhL97CQsXC9ZJLLpGBAwcmFQ0qM2HmwMcee0y+/fZbYb7Boki7Z599dsICWDPy+OOPKyUSmUUWTzrpJNE84YmBUBS1bLFwNgkL6KBBg8yoyISnTZumDAWad656DFioPfzww67793T/Uz3H2ero+6/XkuXz68qOdfVkwfQ6Ur5cGenSa61s2bpTWjYvL0tn15Eqlf3/AciyOXWkTauK2WKpyOthwe1miXSLK3JmItiAGw5ucRFkvdhYSqlQYlFp2rRp0gSlXTFYcyBexvvuu6+rW3zChAnSqVMntTKtVKmSXHfddcrtsXDhwqSOMknXrFlTKlasKBUqVJD99ttPKYHOjFgUmKCxVJEXC+V5550n77//vsqKa/O9996T0047TWgTRRFrJoT1k/K8wGjr008/VUozaVWqVOHi6gJTCRH44zUmqTAxWc/FmJjtBwljsWKR0qVLl4TsYXjH7devXz819sgnCxkskU76+eefVRSLCRYxyF3nzp2Ve9KZ10+e2HYxceJEpUBiWWdMKleuLGXLllVbMrzSnG3k8r44cec5BSMUfQgPAcQ84EZevLnl9YsbO3asMObmlhidP6jMhJkDmauYI7E2IgvMmyyYWQw76eCDD5Y777xTzWvIIlZNFlEQCiX3xC9evFjKlSun8uk61q9fryygt99+u46K1PXHH39U/LO1geeDZ4m+QPPmzROU6bfffltZqk3Gg46JWSYb4dh3xKVxw3IydtRe8sv87coVvmBRgXTvu1a2bdsp/a9ZJ8+8uDne1IqVO6R1+1Uyb8F26XXZOpk+q9BCuXRZQex+rdRvtlx69l8rK1ftcoXjFu87YJ1KO6btSnn+5S0xz0i8ymINYG1zKkluccXKVIQbs9gkDk5KhRLLItZHXsYmYWls1KhRfDLgC/4onm77XtjvRF5NuBUhN1c2LwysRbg5sS4yAWEJdZKeiA888MB4Em3ovW9M4Mcdd5zUrl1bzjnnHGXJ1BnpE/3BrbTPPvuoduBlwIABqq27YxZLFM2okteYpMLE7E8uxsRsP0gYi/Ftt92mFhZm/jC8ozSYMsK2C5SVgoLE/UvILmS6w3nBaUXTbN9PnnjJQ2wDQR6RM+QXRdMvTRWKyJ/ixJ1F3r333quUIJQsnnms7AcddJArGl68uWb2iWR8vvnmG7UFwpktqMyEmQNZ8Jp7HXUYj4mTmIdQGiEUbhbDuK8h5kMwqFOnjjRr1kxtzTBdw5Q95ZRTFJ6qQMT+8AJ+9tln1bzM84H3iy0MEM8geGB8cFLQMXGWy9b9QY3LS/U9ysicufmyectO+WrSNimI6YTNDikvgx/fFFcAx763VZYsLZAmjcrLhC/zBBc6u7A6dVsjvy7bIcOHYiwpI1OnFyqaKI7n91gjM2KK53NP1JTuXatIv5iS+vrbufOQWSXJW2pQtp0/cjuVcO8aSndKSoWyWrVqrggwCbDfyST2Qbnt2eEFbubVVkC3Dfi4RLBcYtVh5YpLBFelkzjcAJn8EWaPEcTBir///e8qbP7BdfL000/Lq6++qlbHOk0fFII3Ns7re50epavZZ5OvVJiYeXMxJmb7HBrQP1xdbrTnnnu6RSuFMIg8US/WLxMvZBRCrkxCseFFhoXypZdeUm44JtZUcuCUJyxEWMVff/111QZ1IW9YwvzSTF5yHS5O3Nkbh8UZwtPA88eC0m0eIY8Xb6Rp4t+Uatni6lw8kK9q1ao6e8I1jMyEmQMvvPBCdXiQfdrsB0bxg3D5exHYsC+cxS57PaG99tpL7WfHusmCh0Uxeejzm2++qbwtTzzxhFeVOY1HOT7mmGPkrrvuUooyrnn2kbJohJjvkQEnhRkTZ9ls3WOpbNqkvCxfscuySN0Xda6iDtdMnrJNNTVi9Ba5om+1mBV6V8sooSiQgwftKWedUUmeHlIjnjhrduxQaUw5vWVgdTn6iAoxhbKqdOtSRYaPyO3+SqtUxocoIQAuXr+EjLvpjSH24RDAsud82aLMaeujWRt5zReEnkTr1q1rZlNhJhv2N6IQfvTRR3LjjTcqi4Xzf1lrFxkKgyZe2A0bNlS3uLvPOOMMnaReKkzi//73v5X76PTTT4+nEWC1z6EiTlCy95J9lyWNUmFi9icXY2K2j6UQdxc/vW3CTPcLB+WdFxSKpykjyCFxWrE02+FFfOyxx6r9aix22NvHC9uNUFLc5Omoo45SXzLASsSi6OKLL1aHKHh5+qW5tRG1uKLA/X//+5+wDeCXX34RDspxZR8lbs90iTq0bHE1D+ClqjOMzIBH0DmQsWcvOFZR9p3j0ob0fOXki3qx1uLi5kCO3grAHkPmKRRrrLjsN2UBjtUSyy7Wcz13Uid7302ru7Od4rzneWBOx2LPuGDV4eAbX/7wozBj4ldPpmm4sRvUL5dQzX51y8m5Z1eOHbDZKj//sl2d3sbKaBKHeKAjW1RQVyyU7U6tpMK4wqHOMStl3aZ/qt+rb26VZb8XxqvEHP3RSiXjRNiSRSAVAoWbV1LlcknnFCyHQ7D0YFXgUzW4JRo0aJCUG9cGlkdNrKwh0xXJPStR6sQFpgm3NdY0lEXTDa0nWOrCrQ0xqR566KHK7Y37Vx+EoF5Od6MkMjlTpyY+I4Q1adiwYYLbHgsAfcMCUNLIDxNnX4p7TJztc7iCcYH03lZnHq/7oLxTHjcae2U1EdbubR3HFfnlYBdyoOWsa9euwn42J/nJE5+wYjHz0EMPqb1yLIRQYlFM/dKcbUTxvihw53kHY7245KsRPJ8ohekS8wqKmyb4DkNBZSbMHMjcyKlmfVpbn/B2my+Z7/jCBUoX/dDbjZAlFsTt27eXU089VXWJhQ8LJCyuzH3Uy08v2lE+WSyzJzjXxHYo9n+zUNOGB/gHl1QUdExS1ZNuOp8S2rhpp7Q6PtmC2qdHVenRb63sWb2sUhSdSmeDAwuV0LnztkvzZoWv3Dlzt8vJrStKrb0LbTrTJ9WOHfYpVDgXx1zmeSlOkKfbD79ybkqjW5xfHaU5zWKRenTTtlBi4WOiw12BS+aOO+5QimXr1q1Vq3xTTp+45lNBHHxhLyZ7hyjDSlq/uPn0BqdfWYniLmRjNqf5UOqYEClPXiZlToGzHw3Fj0MTtMueutdee029yM8//3zlQmPPEfVB7NkZNWpUXGmcMmWK8GMyY6LCJYkVg0mYMO1yArSkkR8m9CWXY+LEEksg+8T4uSl4zvzmfVB5ogwLiSeffFKtsNnKwGlbDkdApjwhK1iNcGHzTUIUXlyI2npqYucnTygvjzzyiJJTLKMoqMgT7nS/NMVQxP8UBe7soUN5BGvc01gn2RPYq1cvhYaJe1B4WOBq2eLKfsMwFFRmwsyB7A3E4og1EZc+ShWfYnPOgfDJPnLmtAcffFB9FUPPVyx4WcBzqJEFM8o4cyUu78aNGytlFYWVH3hCbCeIyv4uFg3wgxcKAwEHjZi32Q6QivzGJFXZdNJnx9zUU37Ml4lf58mw4ZvVZ4Q6tKskJ52QrFDixoYGDd4ofXomb6U4LLbPct/aZeXhoZuEQzu4xbUFsuXhFVTavQ9sVHGLlhRIm9ihnpFjcuPydpMVtzgvTMkbJr9XPVGMd/ZL99UZ78e7LuOXpySnpa1Q4r5AScONw+oX1wr7ErEwQCiPet8PG9JZmTKB4uJBkePbc5pw26BwQriDUBixOuIW5ZAN34mEOGjDKV3SIaxAKJ5MpsTz/TqskpwI5LuTmvR37XhJYf3QPza4Y9WjH/CKG/Sqq65SnzjC+lASyQsT+pLLMckES07FmhRGnlgY8NkVFjooFzzQev+aKU+8rHk5s90B2eZ0OfsetfXExM5PnpAb9k3iPscteeutt6p7LFF+aWb/ohIuDtwZFxaNWIOxyPFNWT65hLUNMnE3cXHyZqZlGg4qM2HmQL51yUEgTnmz8GOvoLnXUc+BWPGYS1mMsLjWcxVXLOM333yz+pQWVlhkE4WUb046CXmGihInZ5up7uEFgwCHmeAbKyxuesY+FfmNSaqy6aRfOXC9HHfKSjn17NUy5MlN0v+SarGT3oVfIvg/aOPV4sJm3yT0j46V4/E6UDn2eaFx79aSSZO3SZ2D/pSb79oghx1aaOyoWqWMfPBGLZk5e7s65d245XJp+7eKcvtNiecTdF1FeWVudLPCERdUaSKvzh+0TFH2qajq1liZ/Q3Slpm/NOJTJuZGSfhAARORI8oXJ5Q7Ds0Ecalg+WGjORNqKmIPEfvU2KeUimgft6m2SKKEsp8QS0UYYjLH6qrrCVO2KPOGHRN4cWLixV9xjYlX+5nEh+EdtzPj6nUYw+SDw01h3fBmeR3m0Ab1uL3U/dJ0+eK6hpWvosAdZQlXLwtJPhcWBQoqM2HmQA6mkD+IHPphgKUSi65ewPvlzWWal2wxv4MBi4gwFHRMwtTpxWOYOoLmxUK5T62yCYd2dFk+H8RJ8kqVChcDOt68witKSVGQVpJ03ea9GdbpXL3idZ5U6WHz6fxe16DteZXX8W71mHFmmDLOe796dJpfOTNPmHzOcs57Lz6d+VLdU4+bnli4TEpV2iedl2UQZZIqmDyCTiBBlE7NltOlpffn6PSgV70HMWj+KOdzYuLFa3GNiVf7mcSH4T3I6WDNSzaUSerSe3t1vebVL83MF8VwUeCOsh+15y+ozISZA7FqZoNYLIddMGej3WzVEWZ+N9sMOiZmmaBh9i42apH8RZGg5bOdj1PhNw4o/CpFtusurvq0tZL2ikoRLu6+ZLMfpQkfxiFjhbK4BtO2YxGwCFgELAIWgaJCoGHs8MzO9YUf1i+qNqJcr6ncwKd5n4kSpcti1dL1qkAJ/GNiovuTaZ9KEz5WoSyBQm1ZtghYBCwCFgGLQLYR0MqNrtd5r+PTuWazrnTaz1aZoupHUdWbrX4HqSfxtEOQEjaPRcAiYBGwCFgELAIWARcEsNyZ1judxS1Op+1OVzcc3OJKIiZWoSyJo2Z5tghYBCwCFgGLQEQRwNrmVJLc4iLKfrGzVVqwcXV5c5LMUrQQsGMSrfEobdxY+SptIxqd/pQE2SoJPOoRdSpqOj5qV60kcbWUiIDXGBJfkvFyVSjdjoMnwmHvihMBJjs7JsWJ+O7VlpWv3Wu8i7O3JUG2SgKPeszgNUoKh5dipPm1SqVGIvEapTFM5CyzO1eFMrMqbWmLgEXAImARsAhYBCwC2TstbrGMPgJWoYz+GFkOLQIWAYuARcAiUGQIaEtjNixnbnW4xfl1Jpv8+LWTi7SwWLjxGFV8rELpNlo2ziJgEbAIWAQsArsJAlrJyYai4lUH8bqdVLDqfF51pSof9XTdL/ikr/pe9zsV/zpf2HKp6s003Z7yzhRBW94iYBGwCFgELAKlAAEUFVPBSbdLbnW4xaWqP1v8pGqnONNRAnW/NCb6XiuIQflJt1zQ+sPmswplWMRsfouARcAiYBGwCJRiBLSiE1bBMSHRdZhx6YZ1XZnwk27bJaFcVPAJrFBu3LhRxo8fn4Tthg0bVPySJUuS0pwRy5Ytk88++0zWrl3rTHK9/+677+T3339PSpsxY4ZMmjRJ/vrrr6Q0MyI/P1+++uormTlzpuzYscNMUqemhw0bFq9j8+bNMmHCBFm3bl1CPm7gl77/8ccfSWm5jPAaE79+O/mN0pg4eQtyv2jRIkEenBRGLoPKk27j448/lry8PH0bv3rJazxDLOAlZ1u3bpXZs2cn/FatWqWK+qWZdWc77IVtGJkJg2025BkMvOpJBx+vMQ3arzDPoh/vQfvEHPXFF18I7Zq0dOnSBNlC1tyIF9Py5UX3/6yDynKmuLv1LUhcfv5O+WR8Xvw3fmKe/DAtP/b+2FV6/YYdMm5CXkLcrtRdIfKsWm0U3JUk30/Nl4WLC4yY6AWRhUwVFV0+G73LBj/Z4COqdUQBn0AK5fbt26V3795y7bXXJmD5yiuvSI0aNaR79+7SsGFDGTp0aEK6eXPFFVdI/fr1pVu3brL33nsrQTXTnWEUxhNOOEG+//77eNKWLVvkiCOOUD9WKoS9lDwmzFq1askFF1wgLVu2lIsuukjohybSH3jgAalcubLcddddssceewg87rXXXuqq891zzz2KX/per149ee6553RSTq9eY5Kq3ybTURsTk7cg4ZUrV0rbtm1lxIgRCdmDymUYedINPProo9KxY0eltOg4rm7yaqYT9pMzFizNmzdP+L344ouqCr80ZxvZuvfCNqjMhMU2G/JM373qSQcXtzEN068wz6If70H6RJ6zzjpLzVF9+vRRc98LL7wQ7/Y555yTIFvImpPGjRsnrVu3lsmTJzuTsnYfRJYzxT0TZjds3CkdOq+Wrr3XSO/L10q7c1fLsSevlBatVsiMnwqV9PkLC6R9p9XyV95O36bIM21momKvC9wxaIOMGbtF30b6qhWVdJnUSiXvbMKZUqb8ZNp+puVNPDQmXHU4G/VnA+d0+EipUDIptmnTRt55552E+lesWCFXXnml8NJjRTty5Ei55pprXBU8JpFnnnlGZs2aJayUKde/f/+E+vQNE+PDDz8c36Sq47miAEJYbmgTxXTw4MEqzvnn0ksvVUrkr7/+KtOnT5dPPvlEPvjgg3g2eGKSxdpy7733ysSJE2Xu3LnKmgmvlJk/f77cfffd8uWXX8pPP/2klMnLLrtMWGXnkrzGBJ5S9VvzHcUx0bwFuX744Ydy+OGHq/Ez84eRyzDyhJX6kksukYEDB5rNKQXGS17NjH5yRr5p06ZJu3btlGwhX/x0W35pZhvZCnthG0ZmwmCbDXmm7371hMGmuOYgkycv3r3izbKE3333XbWoYW5csGCBmhevv/56ZUnHk4NFlTlOy5ZzDqNcz549ndVm/d5PlrOFezaYfv/1WrJ8fl3Zsa6eLJheR8qXKyNdeq2VLVt3Ssvm5WXp7DpSpbL/PwBZNqeOtGlVMRvsFEsdWqlxNkZ8GHJTZtJRArPFTxjeiyuvxkNjpe/DtO82Lm5xYerMNG9KhfL++++Xpk2byqBBgxLamjp1qrrXk1CPHj1k3333dXWL40ru1KmTWiFXqlRJrrvuOjX5L1y4MKFObubNmyePP/64vP3221K9evWEdJTCfv36qdU3baGUjh49OiEPN7iHvv32W2VprFixorJQnnfeefL+++/H8+K2bN++vaxZs0bo48knn6zSDj30UNUuA1yzZk359NNPlUJNYpUqVVQeN3enSiimP15jEqTfmsUojonmLcj18ssvVwuYLl26JGQPI5dB5YkGxo4dKz///LOMGTMmoT0/eTUz+skZ+X788Uc58cQTZdOmTfLnn38Kz0n58oUfYfBLM9vIVtgL2zAyEwbbbMgzffeqJywufmMatF9hnkU/3oP2CXnBe4JXBmrVqpWaB1kkz5kzR8UdddRRsnjxYrUIwjNjEnNp165dk+ZcM082wn6ynA3cs8GjWUfsO+LSuGE5GTtqL/ll/nblCl+wqEC6910r27btlP7XrJNnXtwcL7Ji5Q5p3X6VzFuwXXpdtk6mzyq0UC5dVhC7Xyv1my2Xnv3XyspVu1zhuMX7Dlin0o5pu1Kef3lLbEtWvMpiDfDecyolbnHFxZRb225xxcVP1NvJNTYpFUqsdVgfUeBMwtLYqFGj+EuPL/ijeLrteWQvFnk17b///irIi9NJ1MEKGwXUSbzQDzzwwHg0LnQsUgUFiXtRsEpCZl7a/+2331Q8+9hQFFEicYffcsstKp4/b731lpqIscrus88+cuaZZ6oX/IABA5RlFYslimYuyWtMUvXb5DlqY2LyFiSMxfi2226TChUqJGQPI5dB5YkG2NbxzTffqG0WZoN+8mrm85Mz8jERPPvss1K7dm31rCB/uJ1TpakMWf7jhW0YmQmDbTbkGQi86gkLj9+YBu1XmGfRj/egfcLbwrYeTZRjzj7kkEOUZ4h4+tWsWTOlNJrbRF566SXlkdFWZV1HUVz95DwbuBcFz9R5UOPyUn2PMjJnbr5s3rJTvpq0TQpiOmGzQ8rL4Mc3xRXAse9tlSVLC6RJo/Iy4cs8wYXOTqtO3dbIr8t2yPChNaVixTIydXqhoonieH6PNTIjpng+90RN6d61ivSLKamvv507L1iulRLnGEaNHyd/ubzXVlzzCj/ORUFx8ZhSoaxWrZorL7zsnBZE9iFyGMJJKH1mXm3pwxrjJKwyWBWdhDuEVb/JD+1BTvfN6tWrVbyZlzBWIoiDOrywnYohB4aYlO+77z5p0aKFyssffYgIvtlfpO/jGYo5YPbLbDpVv828URsTkzfGetu2bernPFyg8+255546mHANKpdh5IkGqlatmtCOvvGSV53udnXKGS7JY445Ru2xJPz1118rFyUKs1+aW93ZiPPCNqjMhMU2G/JMv73qMTHhX5hq2eLqXIyS12tMw/QrzLNIm168e8VTxotQDJ9++ml59dVXlaWbxf65556rvDa4ttmaxPYNFu5s62F/OHnTacuLB7f4VLKcDdzd2s1GHJbKpk3Ky/IVuyyL1HtR5yrqcM3kKdtUMyNGb5Er+laTssabFSUUBXLwoD3lrDMqydNDasRZmjU7dnA0ppzeMrC6HH1EhZhCWVW6dakiw0fkdn9l1JS4qPETH8AcB8DF65cL1gp9amm0jPXOqVihsGnro1kleU1FEwshVLduXTObb5jJBqUUpVITdRKnFUsdz95KiLzatbN+/Xpp2LChimfz+dlnn63C+g+uc9z2uJhMiyXprOo5cMQBHVxK7FdiQo4apeq3yW/UxsTkjUMFo0aNUlGMryk7Zj63cFC5DCNPbu2kG+cmZ8joRx99FK+S1WXfvn3lvffeU/LrlRYvUEyBoDKTLWzDyHNQCH755RdhW4smrMJe+7l1Hn0N06+i4F3z4XVFOWY70ZNPPqm2Hp1++ukqK/MaP00sVJ544gl14JH+c0AHVzg/5kz2jDNXYlXPJvnJuV87YXD3qyfTNNzYKHsm7Ve3nJx7duXYAZutUrNGWXV6+82Rhe8fnY9DPNCRLQq9KVgo251aScXhCoc6x6yUJh18UNqvZrOajMKmEkc41xQ1fnKNRxTbN9ZR4dg74IAD1D5IbR3EkoQ7qEGDBkkV4W5mc7km9spApktap/ldcYmwJ0gTYeKcxGlsSLdDGDde48aNCaoX9RlnnKHC/GFSZcLlVKSpTPL5DQ4QYdWAOAFOvzlgEUVK1W+T56iNicnbHXfcodzLuJix5oWhMHIZVJ7CtO+X10vO2CbClgq9JYM6sN7zovdL82urKNLCyEw2sA0jz0H7y5yDXOkflrswFLRfRcG7H59YT1nkvvzyy8Ind7QySRlc2sieJj1n0xeskiiijzzyiPqRhwOYKJXZpkxkOSju2eZZ18enhDZu2imtjk/2nvXpUVVeemWLjH5jq1IUG9Qvp4upa4MDC+/nztv1lZE5cwvDtfYufAVPn1Rbdq6vp36LZtaR/76WqJQmVFhEN25KI3Fu8UXEQkK1bu3mkp8E5iJw44ZPrtlKW6FkwmKPDqtd9kKiBOAS5rMT0Oeffx4/Vc2ngtizyF5MvldJGfb8aJczn3n54YcfUmKB5YrVN0Dien7sscfiK28skMOHD1cvYBS/zp07K57Y9/Xaa68pJfL8888XDgLhFj3yyCNVe2wS5xACJyJZkU+ZMkX9mPyYxHAdoWhiVSWMMhlF6ySd8es36VEdE3gzCdw5oMLvuOOOM5NShlPJpSlrQeUpZaMeGVhgIZN8A9VPzrDUc+CFzwohx5ymRmYvvPBCZcX3SvNotsiiwzzHftiauPgxG0ae/eox05ijtGxxrVOnjpmcMuzXr6BzEI2Yz2LKRj0ymHWgMGLV59u6uLj1PMbChE+7McehaLJt4e6771YL46OPPlrN0cTrHx4BPo119dVXe7SafrSfnKeq1Q/3VGXTSZ8dc1NP+TFfJn6dJ8OGb1afEerQrpKcdEKyQokbGxo0eKP06Zm8Neaw2D7LfWuXlYeHbhIO7eAWX/Z7oWWy5eEVVNq9D2xUcYuWFEib2KGekWNy4/J223vnFpcOpmHLuLXrFhe23t0hf1CcyBc0bxDc0lYocV8wgT3//POy3377qVUt+3CYvCCURyYmCEUNVzLfssSVwiT31FNPqTT+3HDDDUrhjEd4BFDkTjrpJKW08jIACCw7EEoirit9cvyhhx5SnxfCKkn8kCFD5Pjjj1cWL058lytXuGqEfwheUV70j1U9Vgb6SBpu9auuukpt/McKFlXy6jf8RnVMMsGyrLlZKVZRKrk0ZS2MPKXDI18aQPZQKP3kjD6geHKgiEUWnw/i80+cuvVLS4enMGWc2IZ5jv2wNXFJxU9QeU5VT7bS/foVdA6CF/NZTJc3sw7mN6hXr17xOYy5jIUMVtibbrpJLeJRoLE+8hUNFE83co67W5504jKRZT/c0+ElVZkrB66X405ZKaeevVqGPLlJ+l9SLXbSu9Bq6IQNFzb7JqF/dEw8PU9c5djnhca9W0smTd4mdQ76U26+a4McdmihS7tqlTLywRu1ZObs7eqUd+OWy6Xt3yrK7TdVp2ixEu9TN6sXcdlUOjLpVJR4yaQf2SjLmGQ6LuCpMc20LvpUJubOTfhAAZOMI8q377ws+SYkSmUq4nM7fBgYy0MmxJ469tV4HZQw64Y39j2SH2KfJ30MywMWSyyyuh6zjaIOhx0T+HH224vHKIyJF2+ZxIeRyzDylAlPQcqyLxm55jMwTvJLc+YNcx9WvsLITLawDSrPYfqdSd4w/YoK77jFOSwU1iqbCU5espWuLIfBPSjfXjwGLR8mHxbKfWqVTTi0o8vz+SBOkleq5K7okw9eUQCKglAozLrNezNstu0Vb+YJEnarhzg/MnnV+dzq0WlhriWpHo2TiYcX/17xGptU6WY+Nz2xUMvSudK4suoMokxSNS9Jtxdl2Ga9TqG61eOcPPVmebe8fnF6T5RfniilOfvtxVsUxsSLt0ziw8hlGHnKhKcgZf0WOn5pQerOVp4wMpMtbIPKc7b6mKqeMP2KCu8shqPCS7qyHAb3VGPoTF8c+9xPoxZF928nne2luudU+I0DCr9kkipvaU03laTS2sdM+6UxclMsw9ZNXZnUk7FCGZZhm98iYBGwCFgELAJRQ6Bh7PAMB2N2VzKVCTAw77XSsrtiUxL6rcdIK4Tp8uysR98Hqc8qlEFQsnksAhYBi4BFwCJQyhFwKg/O++Lsfi7bLs5+ZrutbOGWTj1pH8rJNgi2PouARcAiYBGwCFgELAIWgeJDwM2i6RYXhCOrUAZByeaxCFgELAIWAYuARcAisBsggHUyHaXS1eXNSTJL0ULAjkm0xqO0cWPlq7SNaHT6UxJkqyTwqEc0nRe9LlsU16jxUxR9LO11eo0h8WFc364Kpdtx8NIOaJT7x2RnxyTKI1SyebPyVbLHL8rclwTZKgk86jGG1zAveF0u6lcvhSbqfJcW/rIlU9blXVokwvbDImARsAhYBCwCFgGLQI4QsApljoC3zVoELAIWAYuARaA0IYCl0VobS9aIZss6Sa9dXd4lCw7LrUXAImARsAhYBCwCuUZAKydaqdT3uebLtu+PgB4vM1c6Y2ctlCaCNmwRsAhYBCwCFgGLQEYIoIzwc1NUMqrYFs46AoyRHi+tRKY7dlahzPrw2AotAhYBi4BFwCJgEdCKiVUsS54s6LELw3lghXLjxo0yfvz4pLo3bNig4pcsWZKU5oxYtmyZfPbZZ7J27Vpnkuv9d999J7///ntS2uzZs2Xq1KlJ8c6I/Px8+eqrr2TmzJmyY8eOhGROTQ8bNkz++usvFb9582aZMGGCrFu3LiEfN35pSZmLMcJrTPz67WQvSmPi5C3I/aJFi2TGjBlJWcPIJeUnTZoUl4WkyhwRH3/8seTl5cVjt27dKsik+Vu1alU83Rnwkie/evzSnPVn694L2zAyEwZbL3nevn27Gp8gcwx996onHVy85qCg/QrzLHrxvnr16gTZQs62bNni2Z0//vhDvvjiC6Ftk5YuXZpUj5muw7xIli8v+v9p7XyOdPt+2PrN/V791vUGuebn75RPxufFf+Mn5skP0/Jj749dpddv2CHjJuQlxO1K3RUiz6rVRsFdSfL91HxZuLjAiCm9QeRJKydWsSy940zPAimUTOi9e/eWa6+9NgGNV155RWrUqCHdu3eXhg0bytChQxPSzZsrrrhC6tevL926dZO999475acPeMGfcMIJ8v3338ermT9/vhxyyCFy4oknSocOHaRJkybChO9GTDy1atWSCy64QFq2bCkXXXSR0A9NpD/wwANSuXJlueuuu2SPPfYQeNxrr73UVefzS9N5cnH1GpNU/TZ5jdqYmLwFCa9cuVLatm0rI0aMSMgeVC55KR9xxBHqx0RHmJeSHz366KPSsWNHpbTofCy0mjdvnvB78cUXdXLC1U+e/OrxS0toIEs3XtgGlZmw2HrJ83vvvafmiwsvvFDNMa1bt3Zd9Olue9Wj08Nc3eagMP0K8yzClxfv999/f4JsIWsoXU6i/FlnnSX16tWTPn36qPnvhRdeiGc755xzkuqJJ/5fYNy4cQLGkydPdiZl9d7tOfLD1m/uT9XvMIxv2LhTOnReLV17r5Hel6+VdueulmNPXiktWq2QGT8VKujzFxZI+06r5a+8nb5Vk2fazESlXhe4Y9AGGTPWe1Gg85Wmq1YsS1OfSkNfTGVfu7/T7VdKhZJJsU2bNvLOO+8ktLFixQq58sorhRcnq9mRI0fKNddc4/pC5mX4zDPPyKxZs4RVMuX69++fUJ++YXJ4+OGHXfdePP7440qJxPrz22+/yUknnaSUQl3WvF566aVKifz1119l+vTp8sknn8gHH3wQzwJPTLBYW+69916ZOHGizJ07V1kz4ZUyfmnxinIQ8BoTWEnVb81uFMdE8xbk+uGHH8rhhx+uxsjMH0YuWVBAyBMyzEJn8ODBZnXxMFb1Sy65RAYOHBiP04Fp06ZJu3btBCui/rnlSyVPfvX4pWk+snX1wjaMzITB1kue8Sr861//Uj/mDSyPKPyjR4927apXPa6ZfSL95qAw/Qr6LMKKH+8//PCD/Oc//4nLFjJ2/PHHJ/Xg3XffVZZc5HnBggVKlq+//nplTccTgxLKPKdllKtJlOvZs6cZlfWw33Pkh63f3O/X73Q78P7rtWT5/LqyY109WTC9jpQvV0a69ForW7bulJbNy8vS2XWkSmX/fwCybE4dadOqYroslNhyKCVulki3uBLbyVLGuFb2uZrkvDfT3MIpFUpWx02bNpVBgwYllNcuZz0B9ejRQ/bdd19Xtziu5E6dOqnVcaVKleS6665TE+jChQsT6uRm3rx5wuTx9ttvS/Xq1RPSDz74YLnzzjulYsWKUr58eWWp5CXnJF483377rbI0khcL5XnnnSfvv/9+PCvulvbt28uaNWuEPp588skq7dBDD1XtAqRfWryiHAS8xiRIvzW7URwTzVuQ6+WXX64WMF26dEnIHkYuWWT069dPWXKQXRY5XsrK2LFj5eeff5YxY8YktMfNjz/+qGRx06ZN8ueffwoyjnw6KZU8+dXjl+ZsJ9N7L2zDyEwYbL3kme0nzCuMER90xotw1FFHKXeuWx+96nHL6xfnNwcF7VeYZxFevHhHqUYJRIFEtqgXr0rZsslTN3L33HPPKXmmzlatWqn8LJTnzJlDlMJv8eLFyhpKPSYh/127dk2ad808mYb9niM/bP3mfr9+Z8pvTOykccNyMnbUXvLL/O3KFb5gUYF077tWtm3bKf2vWSfPvLg53syKlTukdftVMm/Bdul12TqZPqvQQrl0WUHsfq3Ub7ZcevZfKytX7XKF4xbvO2CdSjum7Up5/uUtsX9kEa+yRAZ4fzoVSLe4Etk5y7QnAsmzkiMr1jqsj7xwTcJi0KhRo/iLkwkfxdNtzyN7sciraf/991dBJkgnUQeraxRQJw0YMEC9uIlnxc3kievbSVgloQMPPDCeRPtYNSH2sH366adKiUTZvOWWW+L53nrrLTUJY5X1S4sXyEHAa0xS9dtkNWpjYvIWJPzTTz/JbbfdJhUqVEjIHkYuURBNGWFLBhbOgoLkvU1s6/jmm2+UWzyhwdgNE+Wzzz4rtWvXVnKO7OAydlIqefKrxy/N2U6m917YhpGZMNh6yTMW4zvuuEPq1KmjukT7PJ+nn366axe96nHN7BPpNwcF7VeYZxFWvHhH+YOQP+Yw5mE8PM494eTB48LWHk3USX62CeEdguhbs2bNlNJobhV56aWXlFdGWwl1Hdm++j1Hftj6zf1+/c4W/wc1Li/V9ygjc+bmy+YtO+WrSdukIKYTNjukvAx+fFNcARz73lZZsrRAmjQqLxO+zBNc6Oy06tRtjfy6bIcMH1ozZhApI1OnFyqaKI7n91gjM2KK53NP1JTuXatIv5iS+vrbidbjbPWjOOuxCmRxoh2NtlIqlNWqVXPllBem04KIBYHDEE7iJW3mrVKlisqCRcdJWHawKvoRe22YOFFI2YvjJDaxQybvhLEQQRzU4aVfs2ZNda//cGCIeu+77z5p0aKFjlZXv7SEjMVwY/bLbC5Vv828URsTkzdcjtu2bVM/58ECnW/PPffUwYRrULmkDaw9JpbIL+R0BRJXtWpVLknEwuaYY45R+3AJf/3118q1iLLrR0558qvHL82vjXTTvLANKjNhsTXHwItnDuScccYZamsBrmQ3ClIPh/G0bHF1Wzx4zUFh+hXmWaQvXryvX79eTjvtNHn99deVXKL4Pf30066WchMTFEPyvfrqq8pizoL/3HPPVZ4bXNtsT2ILB4t39ieyP568XnyYdWcS9nqOgmKbau539jsTXs2yWCqbNikvy1fssiySflHnKupwzeQp21T2EaO3yBV9q8UsyLtKo4SiQA4etKecdUYleXpIjXjirNmxg6Mx5fSWgdXl6CMqxBTKqtKtSxUZPqJ07K+0SmV8qHeLQLJfLmC399lnn6TT2ihs2vpoVkNeU9HEQgjVrVvXzBYozB4cVqTspeJADhvQnYRlA9LuIcJMzA0bNiQobDw/++yzVVj/wdWJew3Xk2mxJN0vTZePwjVVv00eozYmJm8cKBg1apSKYiFiyo6Zzy0cVC5RGqgbGdFEO8RpxVLH+11xG3700UfxLLh5+vbtKxwm8SI3efKrxy/Nq42iiA8qM9nCVveBvX/sUcWFy5YD6k+XfvnlF2FbiyYsy177uXUefQ3TrzDPoq7f7YqLn8WHposvvljtjWThgrXPSSjIbCl68skn1fYjbc1lbuOniQXPE088oQ49ggEHfbCG8uOZ+PLLL9V8iVW9OCgItn5zv1e/s8k7bmyUPZP2q1tOzj27cuyAzVapWaOsOr395sjC94/OxyEe6MgWhd4ULJTtTq2k4nCFQ51jVkqTDj4ofRk364lC2FQqCVsqvQgY66hwnTzggAPUPkhtzcGShMuiQYMGSRXhqmHTuSb2KEGmu1Gn+V2xkJxyyinKwoD70a0tymslU7dDHG68xo0bE1Qve6wdmphQmWw5EelUJv3SdPmoXFP12+QzamNi8oabk/HlZ75MzTxe4TByifuP/WWaCBMXhtjigTtOb6egLJZ3XtBu5CVPfvX4pbm1UVRxYWQmG9jSD04bc+oY6xr777R3I90+Mudo2eJKvWEoaL/CPIt+7eNNufHGG+MubiysLHxwYzsJKx9Wx5dfflkttrUyST4sm8ieJj1v0x+skihkjzzyiPqRh0OYKJXFSX7Y+s39fv3OFv98Smjjpp3S6vhk71mfHlXlpVe2yOg3tipFsUH9cgnNNjiw8H7uvF1fGZkztzBca+/CV/D0SbVl5/p66rdoZh3572uJSmlChRG/cVMaiXOLj3hXLHshESiU5pCFyM5kxf4cVrq4nlECmOyZ/KHPP/88fqqaTwWxZ5G9mLiuKIOVUbuc+cwLJxlTEYcF2Ef14IMPqtPiU6ZMEX4QFsjhw4erPZx8+qdz586KJ/K/9tprSok8//zzhYNAuEWPPPJIVY7DDtTLaUhW47pOXuJ+aapwxP749RtWozomThh5sfBpKH7HHXecM9n3PpVcmrKGJRRLDhMdistjjz0Wt+KY8uTXIFZ2DqvwOSDKcEgMeeMzNxCLLOSSPW9+8uRXj1+aH2/ZTgvzHPtha2LixyOK+T/+8Q/1XHIwh5PuPJ96EWDKs189ZhpzlJYtrnp/ppnHL+zXL1NmwjyLfu2hxKPoIUNYDvl2Ll8L0HvMTXlGYcSyTx5c3HouA0c+78Y8h1cH5ezuu+8WFl9HH320mqeJ1z+s9Gwluvrqq/1Yy3qaH7Z+c79fv9NlcnbMTT3lx3yZ+HWeDBu+WX1GqEO7SnLSCckKJW5saNDgjdKnZ/LWmMNi+yz3rV1WHh66STi0g1t82e+FlsmWh1dQafc+sFHFLVpSIG1ih3pGjim5Lm+8NM4DOeDjFke8pdKDQNoKJW44Jq/nn39e9ttvP7WiZQ8OExeE8qj3N6Ko4UrmW5a4nZngnnrqqTiKN9xwg1I44xEuARQ8Vs1MquwpQtHQP1aoKIm4rvTJ8Yceekh9DgarJPFDhgxRJyWxeHHiu1y5wlUj/EPwquvjyoreL82FxUhEefUb5qI6JpkA5zztmkouTVnDmsOnp1gEoVww4WFthJzy5MUj7fOy5zAQCyRcs+zx47QsxNcGkD8USj958qvHL82Lr2zEO7EN8xz7YWti4scnX2JA+UHh55Szfj45lAKZ8uxXTzbT/PrllJmgz6Iffyh9zEW4p9nbeuutt6p77Z0x5Zk5DurVq1ccKzBjIYMl9qabblILeZRorI98SQPF042cY++WJ9txXtimmvv9+p0uj1cOXC/HnbJSTj17tQx5cpP0v6Ra7KR3odXQCRkubPZNQv/omHhynrjKsc8LjXu3lkyavE3qHPSn3HzXBjns0EKXdtUqZeSDN2rJzNnb1Snvxi2XS9u/VZTbb6pO0RJLPLNOBdItrsR20DLuikCZmAsl4QMFTDCOKNeCOpIXJd/wQ6lMRfx3ETZVs3ovLoI3PnCu912xz5M+FicPmfY17JjQnrPfXjxEYUy8eMskPoxc4kJEPrwODATlgz1e1MFnTDIhv3r80tJtM6x8hZGZbGGbbt+KqlyYfgV9FlPxisLKXJaJssfimwNDYS2zqXjzSg8rW9QTBluvdsPEp8NjmPrNvFgo96lVNuHQjk7n80GcJK9UyV3JJx+8ophFmVAkNY9mGJ6d97ofXvE6PejV1uOPVDbxcdMTM975y+QWRJmkm7xoM33Z+sOVnOqcOPVm+eScpSvG2W+v3kVhTLx4yyQ+jFx6nWoO2362Fil+9filheU33fxhZCZb2KbLa1GVC9OvoM9iKl75LFWmxMIpW/xkyotX+TDYetWRTvzi2Od+GrVYnk7RIinDqfAbBxR+eaJIGiiGSrVVUiuYxdCkbSKHCGSsUOaQd9u0RcAiYBGwCFgEsoJAw9jhGQ7GWMouAlqppFarWGYX26jVZhXKqI2I5cciYBGwCFgELAIlFAE3pdEtroR2z7Ltg0Dah3J86rRJFgGLgEXAImARsAhYBCwCuxECVqHcjQbbdtUiYBGwCFgELAIWAYtAUSDg6vLmJJmlaCFgxyRa41HauLHyVdpGNDr9KQmyVRJ41CPKSd3SSNnqV7bqKY0YF3WfXBVKt+PgRc2Ird8bASY7Oybe+NiUzBCw8pUZfra0NwIlQbZKAo8aYXgtjfsRs/k5m2zgY5VSLXHhrtblHQ4vm9siYBGwCFgELAIWAYuARcCBgFUoHYDYW4uARcAiYBGwCFgEwiOAZc9a98LjVlpKuLq8S0vnbD8sAhYBi4BFwCJgESgeBLS7WSuV+r54Wret5BoBa6HM9QjY9i0CFgGLgEXAIlCKEECR5KcVy1LUNdsVHwSsQukDjk2yCFgELAIWAYuARSA9BLRSaRXL9PAraaUCK5QbN26U8ePHJ/Vvw4YNKn7JkiVJac6IZcuWyWeffSZr1651Jrnef/fdd/L7778npBUUFMj06dPlyy+/lO3btyekOW/y8/Plq6++kpkzZ8qOHTsSkjk1PWzYMPnrr79U/ObNm2XChAmybt26hHzc+KUlZS7GCK8x8eu3k70ojYmTtyD3ixYtkhkzZiRlDSOXlJ80aVJcFpIqc0R8/PHHkpeXlxCLnI4bN05+++23hHi3Gy952rp1q8yePTvht2rVKlWFX5pbG9mI88I2jMyEwdZLnrds2aKsHTz3QcirniBlnXnc5iDyBO1XmGeRer14nzNnjppnketU9Mcff8gXX3whtG3S0qVLE2QLWXMjlIDly4v+f1q7PUfw44ctPE+dOtWNbfHqt2tmj8j8/J3yyfi8+G/8xDz5YVp+7P2xq8D6DTtk3IS8hLhdqbtC5Fm12ii4K0m+n5ovCxcXGDGlN2haK61iWXrHmZ4FUihR3Hr37i3XXnttAhqvvPKK1KhRQ7p37y4NGzaUoUOHJqSbN1dccYXUr19funXrJnvvvXfKTx/wgj/hhBPk+++/j1fDZNuhQwdp06aNapN6fvjhh3i6GWDiqVWrllxwwQXSsmVLueiiixIUUNIfeOABqVy5stx1112yxx57CDzutdde6qrr8kvTeXJx9RqTVP02eY3amJi8BQmvXLlS2rZtKyNGjEjIHlQuUVSOOOII9WOiI8xLyY8effRR6dixo3rx63yjR4+W/fffX3r27CkHHHCA9O3b1/MzT37yxIKtefPmCb8XX3xRNeOXpvnI5tUL26AyExZbL3lGkTrkkEPU88tzDz4o5F7kVY9Xfrk3dwQAAEAASURBVL94tzkoTL/CPIvw4cX7gAED5LDDDpNLLrlEzbcvvfSSK9uUP+uss6RevXrSp08fNf+98MIL8bznnHNOgmyBpZNYFLVu3VomT57sTMrqvdtz5Ift/PnzlRyceOKJ6h3QpEkTQdmHUvU7DOMbNu6UDp1XS9fea6T35Wul3bmr5diTV0qLVitkxk+FCvr8hQXSvtNq+Stvp2/V5Jk2M1Gp1wXuGLRBxozdom93i6tWLHeLzu6mnUypUDIpMpG/8847CRCtWLFCrrzySuGFx2p25MiRcs0117i+kHkZPvPMMzJr1ixhlUy5/v37J9Snb5gcHn74Yde9F88995zwglm8eLH6denSRe655x5dNOF66aWXqpfQr7/+qiyan3zyiXzwwQfxPPDEBIu15d5775WJEyfK3LlzlTUTXrGG+KXFK8pBwGtMYCVVvzW7URwTzVuQ64cffiiHH364GiMzfxi5ZEEBYQVEhlmgDB482KwuHsaqzgt94MCB8TgCWLR79Ogh119/vbJOYql844035OWXX07Ix00qeZo2bZq0a9dOsEbqn27PLy2poQwjvLANIzNhsPWT55tuukmOOeYYNW/8+eefSnkYPny4aw/96nEt4BHpNweF6VfQZxE2vHj//PPP5cknn1QyxVz2v//9TymLP//8cxL37777rrK0I88LFixQsoxcYk3HE4Plj3lOyxZXkyjHoqgoyes5ok0/bB9//HFBiYRHvAAnnXRSPL9fv9Pty/uv15Ll8+vKjnX1ZMH0OlK+XBnp0mutbNm6U1o2Ly9LZ9eRKpXL+Fa/bE4dadOqom+e0pjI4tzNEukWVxr7vzv3KaVCef/990vTpk1l0KBBCThpt4OegHip7rvvvq5ucVzJnTp1UqvjSpUqyXXXXacm0IULFybUyc28efOEyePtt9+W6tWrJ6SjUN56663qxc8k+dhjjwlxTsKS+e233ypLY8WKFZWF8rzzzpP3338/nhV3S/v27WXNmjVCH08++WSVduihh6p2WU35pcUrykHAa0yC9FuzG8Ux0bwFuV5++eVqAcOiwqQwcskio1+/fsqSg+yyyMHa6EZjx44VXuJjxoxJSNYv9ssuu0zKly8v++23n3Tu3Fm+/vrrhHzcpJKnH3/8UbDAbNq0SVCeeFaoE/JLUxmy+McL2zAyEwZbL3nGWoxye9999wlbXcqWLatwvfjii11761WPa2afSL85KGi/wjyLsOLF+5QpU9S8ikxBZ5xxhron3knIC/MhnhmoVatWypLOQpmFOHTUUUepxThKM94Zk5D/rl27Js27Zp5Mw17PEfX6YXvwwQfLnXfeKcznPBM8JyxwIL9+qwwZ/Il9R1waNywnY0ftJb/M365c4QsWFUj3vmtl27ad0v+adfLMi7ss5itW7pDW7VfJvAXbpddl62T6rEIL5dJlBbH7tVK/2XLp2X+trFy1yxWOW7zvgHUq7Zi2K+X5l7fEPBwZMB2Borw/nQqkW1wEWLUsZBGBlAol1jqsj7xwTcLS2KhRo/gLjy/4o3g69zxShr1Y5NWEexDipekk6mB1jQJqEnsef/nlF6WI1qlTR6pVq6ZcH859QpRhJQ8deOCB6sof2tf723CZffrpp0qJxB1+yy23xPO99dZbahLGKuuXFi+Qg4DXmKTqt8lq1MbE5C1I+KeffpLbbrtNKlSokJA9jFyiDJoywpYMLJwoL05iW8c333yj3OJmGvIKma5yFBKtaJp5U8kTE+6zzz4rtWvXVvKKDOJ6hvzSzDayEfbCNozMhMHWS57184qSj/W4SpUq8q9//Utd3frpVY9bXr84rzmIMkH7FeZZpF4v3nF1I5PazY+iyj0y5iQ8Lmzt0USdzNtsGcA7BNG3Zs2aKaXR3CqCGx2vjLYS6jqyffV6jmjHD1vc/iiRENZWFGe2P0F+/VYZsvDnoMblpfoeZWTO3HzZvGWnfDVpmxTEdMJmh5SXwY9viiuAY9/bKkuWFkiTRuVlwpd5ggs9prtLp25r5NdlO2T40JoxpbiMTJ1eqGiiOJ7fY43MiCmezz1RU7p3rSL9Ykrq628nWo+z0IVir8IqkMUOec4bTKlQori5ES86pwWRfYhum8aZAM28vBggLDFOYvXJKtRJ69evV1G4Ep9//nllqWByZS+Ok1avXq2iTN4JYyGCOKjDy7pmzZrqXv/hwBATMhaRFi1a6Gh19UtLyFgMN2a/zOZS9dvMG7UxMXnDerJt2zb1c1swkHfPPfc0i8TDQeWSNpAfE0vkF3K6AomrWrUqlyTCGsTiBwslL2Vc1EykqQ6eOeWJlySuXfZYEsbCiYsSpdkvLYmhLER4YRtUZsJia46Byb4+GAIWuHrffPNNYcGHd8GNvOox87Iw1bLF1W3x4DUHhelXmGcR/rx4ZwsEc+eFF16orOf//Oc/VXeQXT9CMXz66afl1VdfVRY8Fvznnnuu8tzgNmZ7Els4WLyzP5H98eT14sOvrTBpXs9RUGzZZ8kcjTHCbe539jsMb355sVQ2bVJelq/YZVkk/0Wdq6jDNZOnbFPFR4zeIlf0rRazpu+qDSUUBXLwoD3lrDMqydNDasQTZ82OHRyNKae3DKwuRx9RIaZQVpVuXarI8BGlY3+lVSrjQ71bBAyxD9ffffbZJ+mlicKmrY9mbeQ1FU292q5bt66ZzTesX/ZMfKxIMaezvwrlkheDSVgzIHPSRSFt2LChimfj+dlnn63C+g9WENxJuJ5uv/12Ha2ufmkJGXN8k6rfJntRGxOTNw4U4Mbip913ZrpfOKhcojTwojZlBBklTsuaXztm2hNPPCHHHnussu6wSMLijVXIi9zkCffjRx99pPYX02/km8M9KJ5+aV5tFEV8UJnJFrYckINwdXJAjwN2uGTxmKRLeDm0bHE1D62kqjNMv8I8i37tsrjGFYzC9dBDDykrHZY59hO6EQoy1rx///vfyiV8+umnq2xsSWKvIZ4anikWKhCHHtn2wQGdxbG96a+//rp6JviKBgua4qIg2LJIO/PMM9U+dw7kcPhIk1e/dXo2rrixG9Qvl1DVfnXLyblnV44dsNkqP/+yXZ3exspoEod4oCNbFHpTsFC2O7WSisMVDnWOWSnrNv1T/V59c6ss+z3ZS6IylsA/WqlkTiNsqfQikPZ/yuE0KxvJseZgccSShMuiQYMGSWgxiXGoQJN215juRp3mdWXCoU3TqkgcCgGrb5P0REM7uA8h3Hjsj4Tee+89tcld3cT+4GZk3xgvF5QZk/zSzHxRCKfqt8lj1MbE5O2OO+5QihVx5colTuBmPrdwGLnE/cf+Mk2EtQtbx6W6Ive4CvkElZZNlB72fLmRlzyxVYTFDMqoXpShnPKi90tza6Oo4sLITDaw1ThoXOkXWxyw2KZLzDlsXdBEn8JQ0H6FeRb92scqjCLFIhhC3lAIr7rqqqRiKJ3MXyiOKFzHHXdcPA/WcxbeWNIhbYWnP1glWeQ/8sgj8fwcwmQBzjaN4iI/bMEBay2LAMbP3ILl1+9s8c6nhDZu2imtjk/2nvXpUVV69Fsre1YvqxRFp9LZ4MDCOWzuvO3SvFnhK3fO3O1ycuuKUmvvQpvO9Em1Y4d9ChXOxTGXeV6KE+TZ6ldR1OOmNLrFFUXbts7cIpC2hZKVLw81K13cDygBKJZ8cgLidKI+Vc2ngtiziGWB71VSBiujflHwmRevz/+Y8HA6nFU6L372ynH6ETcOLxkskJz+5OWLZYNN7PDEvq/XXntNKZHnn3++cBAIt+iRRx6pquawA8okpyGZPNnszo96/NJMvqIS9us3PEZ1TJz48WJhvxQ/86XozOd2n0ouTVnj5YsMMdnxmRQOeWHJgUx5cmtHx7GowYKGq42DYhwiwTWrD6uxyEIu+Q6qnzxhrefQCy5v2ubAAXKLq9MvTfNRHNcwz7EftiYmfnyzOEWJAF9O06MkYd3Ve+dMefarx0xjjtKyxZX92GHIr1+mzIR5Fv3ax0X/97//XSmJKIT/7//9P3Xw69RTT1XFTHlmsTJq1Ci1uGGRrecyFiZ83o15DgxRzu6++261QD/66KPVPE28/mGlx5189dVX+7GW9TQ/bOGdufzBBx9Uc7/uG0z49TtdJmfH3NRTfsyXiV/nybDhm9VnhDq0qyQnnZCsUOLGhgYN3ih9eiZvjTksts9y39pl5eGhm4RDO7jFtQWy5eEVVNq9D2xUcYuWFEib2KGekWNKrssbSyQ/J7nFOfPoe686dLq9RhOBtBVK3HBMXricOdnKipY9OExcEMqj3uOCoob1hW9ZsuplgnvqqafiiNxwww1K4YxHeARwdzO5YmnkZcOpT+2yQknklKI+OY7iyV6hxo0bq/ghQ4bI8ccfr1yInPjWli/4h+AV5UX/WNH7pXmwmPNor37DWFTHJBPQkAGTUsmlKWvsIePzIyyCUC6YxHAXQk55Mtsww7y4+SoB+/pom71pnATX3/jjawPIJQqlnzzRDxRPFkostFCk+OwM1k6/NJOXbIed2IZ5jv2wNTFJxTOYoKihoOH25lAHC0vIlOdU9WQr3a9fTpkJ+iz68YbCy+EaLItY53B/81kqvRfRlGfmOKhXr17xeYz5jIUMC2+2CLGQp05c2nxJw+nd0bw4x17HF+XVC1sW97xf8EaddtppCX3DOunX73T5vXLgejnulJVy6tmrZciTm6T/JdViJ70Lt1LFHvkEwoXNvknoHx0TT84TVzn2eaFx79aSSZO3SZ2D/pSb79oghx1aaKmsWqWMfPBGLZk5e7s65d245XJp+7eKcvtN1SlaYolFulOBdIvz6iB5dX5nPV5lbHzuESgTWwEnfKCACcYR5cslL0o2z6NUpiIsOGyq5uWQCVEHdQWpB95wEWFJgtjnSR+DlM2Ex2yWDTsmtO3stxc/URgTL94yiQ8jl+ydRD70SzrddjmIEXbPp1tbuDjhBQXCSX5pzrxB78PKVxiZyRa29Bs8Mh2joJikyhemX0GfRb82kWetWPvlS5WGAoachrXMpqrXKz2sbFFPGGy92g0Tnw6PYeo382Kh3KdW2YRDOzqdzwdxkrxSJYfGqjPErvCKohVlQgHUPJpheHbe6354xQdND5tP5/e6puLHq5wzvjTX46YnFmpZThRC3LOSDaJMUiUvBLeXZIjmVFZeKkFfLM6JU2+WD9tmScvv7LcX/1EYEy/eMokPI5dep5rDtp8NZZI2/RY7fmlh+U03fxiZyRa2Uei3iVeYfgV9Fs36nWHkORsYsHDKBj9O/rJ5HwbbbLbL3sVGLZZns8qM6uJU+I0DCr88kVFFOSysrYxawUyXFV0P5TOtK10ebLnUCGSsUKZuwuawCFgELAIWAYtAtBFoGDs8s3P9rpPj0ea25HCXLWVQK5JY/SB9X3KQKP2cWoWy9I+x7aFFwCJgEbAIWASKBQE3Rc8tLl1msllXujzYcu4IJJ5ocM9jYy0CFgGLgEXAImARsAgUGwJYIrU10mzULc5Mt+HcIWAVytxhb1u2CFgELAIWAYuARcADAayRTgXSLc6juI0uZgRcXd6cJLMULQTsmERrPEobN1a+StuIRqc/JUG2SgKPekSdCpaOL61XrUBaV3f0R9hVoXQ7Dh79rpReDpns7JiU3vHNdc+sfOV6BEpv+yVBtkoCj1pC4LU0KlaplGSrVGoJiPbVVaGMNsuWO4uARcAiYBGwCFgEdicEtFJJn0ujUl0axtIqlKVhFG0fLAIWAYuARcAikGMEtKUxGwqfWx1ucTnusm3eQMAeyjHAsEGLgEXAImARsAhYBNJDAIWPH4qlVi7Tq6nwv+o4y2Zap7M+e59dBKxCmV08bW0WAYuARcAiYBHYrREwFctsAqGV1WzWaevKHgLW5Z09LG1NFgGLgEXAImARsAj8HwKmAkg4LHlZJIlPp76w7dv84RAIbKHcuHGjjB8/Pqn2DRs2qPglS5YkpTkjli1bJp999pmsXbvWmZR0P3v2bJk6dWpSPBEzZsyQSZMmyV9//eWariPz8/Plq6++kpkzZ8qOHTt0tLpyanrYsGHxOjZv3iwTJkyQdevWJeTjxi8tKXMxRniNiV+/nexFaUycvAW5X7RokZIHZ94wchlUnrZv367kzk3W8/Ly5PPPP5e5c+emPJHvJU9bt24V5N78rVq1SnXNL83Z92zde2EbRmaCYuuFCX0JI8/k93ouSAtL3333nfz+++9JxYL2KwzvfhgwZzL//vHHH0m8OCPI88UXXyjczLSlS5cmyBZy5ka8qJcvL/r/af3xxx8Lz42T/LD1ey949dtZv999fv5O+WR8Xvw3fmKe/DAtP/b+2FVq/YYdMm5CXkLcrtRdIfKsWm0U3JUk30/Nl4WLC4yY0htEnvihBHopiF6912Xdrl5lbHzuEAikUPIi7d27t1x77bUJnL7yyitSo0YN6d69uzRs2FCGDh2akG7eXHHFFVK/fn3p1q2b7L333p6ri/nz58shhxwiJ554onTo0EGaNGkiTOrQli1b5IgjjlA/BJOw1wTLxFOrVi254IILpGXLlnLRRRcJ/dBE+gMPPCCVK1eWu+66S/bYYw+Bx7322ktddT6/NJ0nF1evMUnVb5PXqI2JyVuQ8MqVK6Vt27YyYsSIhOxB5TKMPL333ntKbi+88EIl661bt44vPj788EOpXbu2XH755XLooYeqZ8WUNZM5P3lCYWjevHnC78UXX1TF/dLM+rMV9sI2qMyEwdYPkzDyTN+9not0cGHResIJJ8j3338fLx6mX2F498PgnnvuUbLH/FuvXj157rnn4vyYAfp+1llnqTx9+vRR898LL7wQz3LOOeckyBay5qRx48YJsj158mRnUlbvH330UenYsaNS/nXFftj6vRdS9VvXH+S6YeNO6dB5tXTtvUZ6X75W2p27Wo49eaW0aLVCZvyUr6qYv7BA2ndaLX/l7fStkjzTZhaWcWa8Y9AGGTN2izO6VN9rpbBUd3I371xKhZJJsU2bNvLOO+8kQLVixQq58sorhRceq9mRI0fKNddc46rg8TJ85plnZNasWcIqmXL9+/dPqE/fPP7440qJxDLz22+/yUknnaQUP9JRACHSaBPFdPDgwSrO+efSSy9VSuSvv/4q06dPl08++UQ++OCDeDZ4YoLF2nLvvffKxIkTlXUJaya8UsYvLV5RDgJeYwIrqfqt2Y3imGjeglxR4g4//HA1Rmb+MHIZVJ6wbv/rX/9SP+QXCxgLmdGjRysrEHJ/8803K/lhbEaNGuX6Qk4lT9OmTZN27doJ1kj9GzhwoOqeX5rZ/2yEvbANIzNBsU2FSVB5pt9+z0UYXFBQHn74YVdrStB+0V5Q3v0wQJG6++675csvv5SffvpJKZOXXXaZkg9nn959911lQWd+XLBggZobr7/+emUFxJuD5Y95TssWV5Mo17NnTzMq62EsrZdccolouTYb8MPW773g12+z/jDh91+vJcvn15Ud6+rJgul1pHy5MtKl11rZsnWntGxeXpbOriNVKvv/A5Blc+pIm1YVwzRbKvJ6WSLTsU6WCkB2o06kVCjvv/9+adq0qQwaNCgBFu2O1hNQjx49ZN9993V1i+NK7tSpk1odV6pUSa677jo1+S9cuDChTm4OPvhgufPOO6VixYpSvnx5ZankRQahFPbr10+tvGkLpZSXupN44X/77bfK0kg9WCjPO+88ef/99+NZcbe0b99e1qxZI/Tx5JNPVmlYmKpXr64sqH5p8YpyEPAakyD91uxGcUw0b0GuWANR5Lp06ZKQPYxcBpUntkEg38geHxbGmn3UUUcptyLK5rPPPitXX3214gP5hv4/e+cBJ0WxPP4CjnAgiAKCKJJERQUVnij+ABOIiIqIoI/4RMCIAZ+Kf8XIM6GoDxUVVAyIKGJOPERUPiiKZMlZVPKR8TgO/vvts5feuZnZmb29u72j6/PZm5nunu7q6urq6qrqOVzuTojHTzNnzlT8vmPHDlm7dq1QF3MA8MtztpPXZy/ahuGZoLT1o0kYfqbPXvMiLD2WLFkiKDDjx49XssB8P2i/wuDuR4PKlSvLV199pTb14JGenq7QcXMVwy9YL/HMAM2bN1ebH8IwFixYoNLg25UrVypLLt4ZE5CnXbp0ydVns0xe78eNGycLFy6UMWPG5KrKj7Z+64Jfv3M1EjIhMt2lXp1SMu7Nw2Tx0r3KFb5sRbZ065Mhe/bsl343b5EXX90ZrXX9hn3Sou1GWbJsr/S8dovMnpdjoVy9JjvynCG1Gq6THv0yZMPGA65w3OJ9+m9ReU1bbZCRr++KhM1EqyySN9rFbSLvlmbm2/uiT4G4CiXWOqyPKHAmYKmpW7dudMFjoUXxdIs3IhaLshqOOuoodcui6YT+/furRZV0dtUISFzfAILomGOOUff8wYWORSo7OzYWBaskYJalfSyeALFKCGmUSJTNgQMHqnT+vP/++0oIY5X1y4u+UAg3XmMSr98mqqk2JiZuQe6x1txzzz1SunTpmOJh+DIoP2EJHzRokFSvXl21Be3gk/PPP18pfa1bt1ahH7gm4VWsjOecc04MXjzE4ycELsop7nP4FR7E9Qz45akCSfzjRdswPBOUtn40CcPPdN9rXoQlDXIMCx+bYCcE7VcY3P1oULVqVbngggvUBgPZiHcHiyWKphPwuBDaowF6ILcJIcI7BNC3hg0bKqXRDBV57bXXlFdGWwl1Hcm+Eh71ww8/qHAlZ91+tPVbF/z67Wwj0edj66VJxUNKyIJFWbJz1375fuoeyY7ohA2PT5Mhz+6IKoDjPtotq1ZnS/26aTLpu0zBhU6kVceum+W3NftkxLDKEWNJCZkxO0fRRHG8vPtmmRNRPF/+b2Xp1iVd+kaU1LHjY63HieJdmO9ZBbIwqV84bcdVKCtUqOCKGQsdljwTsNy4WWZQ+syyepeNJcYLiKdBOKJ0Em+DG4pdv4kP7QFO182mTZtUulmWeywBAAd1WKydQpkDQ7T58MMPS6NGjVRZ/ccvT5cpqKvZL7PNeP02y6bamJi4MdZ79uxRPw41uEGlSpXckpUCZvIahdz4Mgw/mQ1xIAcFEqURl6YG6oO/sPpQBiuXHzj5ic1T06ZNVTwv91OmTFEuSpRmvzy/NhLN86JtUJ5JlLZOmoThZ/rqNS9MOnAYT/MWV+dmlLJYhfFsOCFMv8Lirtty0kCn64OMyE7iG/WzzndeUQyHDx8ub7/9ttr0sOHv0KGD8tzg2sa6j+sZxRm3OvGZlA1CQ2dbYZ7Lly/vWjwobZ3rgrMyZ7+d+Yk+Y6lsUD9N1q0/YFmkrqs6pavDNdOm71FVjxq9S67vU0FKGisrSigK5JDBleTC1mVl+NBDo2jMmx85OBpRTgcOqChNTikdUSjLS9fO6TJiVPGIr7RKZXSoD4obg+3D9Zeds1OosaBq66NZG2VNRRMLIVCjRg2zWPSeetmVE8/IgRwC0RHyKAoolRqokzStWOp0LEqAWXbr1q1Sp04dlU7gefv27dW9/oPrHEUBt9m9996rk9XVLy+mYCE/xOu3iV6qjYmJGwcKcGPx0+47M9/vPihfhuEn3R4xaM2aNVObDQ7paHc0+dzjJiX2loNqxOB5gRs/oYh+/vnnygJFv4k36tOnj/oqgl+eVxv5kR6UZxKhrRtNwvBz0P4uXrw4ylvQ2Ty0Eq+OMP1KBHc3GmicsCpy6BHXNeE6xA26AQoy1ry7775bhR9hRQcI2eAdLN/MKTYqAAeOCOXggM7KiCt87NixSm4Sswm/FxQEoa3buqDx8+q3zk/GFTd27VqlYqo6skYp6dC+XOSAzW5ZuHivOr2NldEEDvEApzbK8aZgoWxzbk5oDK5woFPESlmjwVr1e/u93bLmj1ivmypURP9opRKZxr2F4kuBhBXKo48+WsVBausgliRcFrVr185FLYQYAfMatPXGdEnrPKwguAuxHuAaMevDXUM8kAbuSXMCCiig2+EeN169evW4FZQBlEcNuBkRuCwupvubfL88/X6qXOP128Qz1cbExA33MmPPD4tNGAjDl0H5ifaxCnH6FSsPcWDayk6IR8+ePWNCPU499VTRLk8n7l78RD0oAjosg/ew4LPQ++U568/P5zA8E4a2XjQJw89B+43M0bzFlfEMA0H7FRZ3Lxrw+R/c3FhWAb5CAY9zkMcJWPmwOr7++utqI66VScrh0qYNDVpu0x+skihkTz31lPpRhkOYKJUFCX609VsX/PqdLPz5lND2HfulebPcluve3cvLa2/tktHv7laKolPprH1MjhK6aMmBr4wsWJRzX+XwnCV49tRqsn9rTfVbMbe6fPxOjlEkWfgXZD1uSiNpbukFiZdtK/8pkMPNCbSDsCI+h50ubmmUABZZFl2Ab/LpU9V8KoiYRWIxcQfyDnEv2uXMZ15++eUX9R4HAojVevzxx9WJ8OnTpws/AMvVc889pxiTBf6ZZ55RiiB5WCBHjBihFl+EbqdOnRRO1PXOO+8oJfLyyy8XDgLhrmfRBzjsQJuchiSWSbfHIu6Xp15OsT9+/QbVVB0TJxlZWPhsFL/TTz/dme37HI8vTV4Lyk8odpdeeqniD6w5nLiGT9jQHHnkkcoqSVwbFnMUAPjwxhtvVHiyyeKZwzt+/IS1nkMvfD4GXuYgGnzLZ4r88nyJkeTMMPPYj7ZBaRKGn4N2FRmleYurjosN+r5fv4LKINoy56IfXzAXcF2z2cWzwz3KJIojYPIzCiNfGOD7uri4tSyDf7GaI+fw+KCcwa8opk2aNFFymnT9w+tDmJE+aKYaKoA/frT1Wxf8+p0o2vMjburpM7Nk8pRMeX7ETvUZoXZtyspZZ+RWKHFjA4OHbJfePXK79E+MxFkeUa2kPDlsh3BoB7e4tkA2Prm0ynvose0qbcWqbGkZOdTzxpii6/JO1invRMfOfM8LF7OMvU8eBdISrQo3HMKL7zwifDiFRwwOggtAeeSAxMUXX6wWYlzJfMsSIH6Rshpuv/12FcPD4qw/T3TeeefpbHXFAooQZdeslVZOmGPVAVASOaVIfCTWgSeeeEIF1WOVREAOHTpUuStZ3DnxXapUzq5x5MiR6n36wE8Dp9pRKgG3PO0y0uVT5erVb/BL1THJC+1KmsFKkYri8aXmNeIVg/ITnwhiEeaHy1sDPIoFlYNjbKg078OH8BjA1wZ4pi0/XoOf4E0Wer3R4msInLqlj155Gpf8uDppy4YryDyOR9swNAnKz/nRf7c6g/KMnwyiXnMuxuML5Cx0ZzMDcNgGZRAw+RkZB2AxNwGZiSX2jjvuUBt5+Bi5yCl2FE83cI69W5lkp3nRFjnsty749Zu1JhG4YcDW6Guc8u53dQV56J6KKs1JMlzYxE0+8Uxk43lR7Ml5XigX+bzQhA+rRJTSDKl+7FqlQJ54Qs7SWz69hHz6bhXp3jfnBDjliaG8946ctnguioA10unidkvL775pqyi4APo5v9s9WOsvEXGl5PhS/qYAAsaR5EsbLC98ExJlMB7wqQuCqrE85AWwBBFz4xXgbdYNbsQMUR4gzpM+5hUHs438vg87JuDj7LcXjqkwJl645SU9DF+G4Sc/nDjsAE8G4Uu/eogVow5i/Jzgl+csG/Q5LH+F4Zlk0TYoPwftc17LhelXsnBHscIrpGVZIn3APcyBobCW2UTa4p2wvMU7YWhL+bxCIjgm2iYWyqpVSsYc2tF18fkgTpKXLeuu5FMOXFNdKTIVSfMe/J3PpAFe6Tm5wf/Gqydevm4paDld3utanOtx0xMTtlBqArKTDaJMUp4F0m2R1HUFvXqdQnV73yk4dbC8W9nilObst1ffUmFMvHDLS3oYvgzDT344cWglGeC32fHLS0bbQeoIwzPJom1Qfg6CfzLKhOlXsnDXcZl5wR9lNFn45AUPv3fD0NavnrB5KyOf+6nbaF3Y1/KtPKfC/90/50sm+dZIPldcGFZJvy5pfCiT6oq5Xz9SNS/PCmWqdsziZSlgKWApYClgKRCUAnUih2c4GGMhuRRINSVOK5JYDwH9nNxeH5y1WYXy4Bx322tLAUsBSwFLAUuBpFPATUFzS0t6wyErTEWcQnYh5YonfMo75XpiEbIUsBSwFLAUsBSwFLAUMCiAJVJbI41k1zQz396Hp4BVKMPTzL5hKWApYClgKWApYClQRCiANdKpVLqlFZHupCyari5vTpJZSC0K2DFJrfEobthY/ipuI5o6/SkKvFUUcNQj6lSMdHpRv+Z3v7QCaV3d+ccprgql23Hw/EPB1hyPAgg7OybxqGTzE6WA5a9EKWffi0eBosBbRQFHTWdwLY4KEcpkMvoVTym1SqXmpPy5uiqU+dOUrdVSwFLAUsBSwFLAUsBSoPAooJVKMEiGElt4PUm9lq1CmXpjYjGyFLAUsBSwFLAUKHIU0BbCVFLU3HBxSytyxE5BhK1CmYKDYlGyFLAUsBSwFLAUKGoU0IpaKiqWGidNU42rfrbXvFPAKpR5p6GtwVLAUsBSwFLAUsBS4G8KaGUNJU7fFyZx3PBwSytMHItD2/azQcVhFG0fLAUsBSwFLAUsBVKMAiiTKG78Cgu8FEeNW2HhVRzbDaxQbt++XSZOnJiLBtu2bVPpq1atypXnTFizZo18/fXXkpGR4czK9Tx//nyZMWNGrnSdsHbt2rg7n6ysLPn+++9l7ty5sm/fPv2qunJq+vnnn5e//vpLPe/cuVMmTZokW7ZsiSnHg19ersIFmOA1Jn79dqKXSmPixC3I84oVK2TOnDm5iobhS96fOnVqlBdyVfZ3wt69e1U5k9czMzNl3rx5uX5LlizxqsaTn3bv3i3wvfnbuHGjqscvz7OhPGZ40TYMzwSlbZA5Bl0WLFgQt1de8yLuiy4FfvrpJ/njjz9y5QTtV5i56EYDZKUbf7nhpJH8888/5dtvvxXaNmH16tUxvAU93YCFdt26/P+f1l988YUwf5zgR1tw9loXvPrtrN/vOStrv3w5MTP6mzg5U36ZlRVZPw68tXXbPpkwKTMm7UDugTvKbNxkvHggS36ekSXLV2YbKcX3Fn7SylthKJa6bSeFvRRNZzn7HJwCgRRKFtJevXrJLbfcElPzW2+9JYceeqh069ZN6tSpI8OGDYvJNx+uv/56qVWrlnTt2lUOP/xwT2Vw6dKlcvzxx8uZZ54p7dq1k/r16wtC3QTwueKKK+SGG24wk2PuETxVqlRR5Ro3bixXXXWV8J4G8h977DEpV66c3H///XLIIYcIOB522GHqqsv55ekyhXH1GpN4/TZxTbUxMXELcr9hwwZp1aqVjBo1KqZ4UL7ctWuXnHLKKeqHcOGeRckNPvroI8W3V155peL1Fi1aqM0H9G7UqFGu38UXX+xWjS+vsWE76aSTYn6vvvqqqscvz7WhPCZ60TYoz4ShbZA5hgKFTBg5cqRvz7zmhe9LHplsMs444wz5+eefoyXC9CvMXPSiAbzsxl+PP/54FCd9Q98vvPBCqVmzpvTu3VvJv1deeUVnyyWXXBLDW/CaEyZMmCDw9rRp05xZSX1++umn5aKLLhKUfw1+tPVbF+L1W9cf5Lpt+35p12mTdOm1WXpdlyFtOmySf5y9QRo1Xy9zfs1R0Jcuz5a2HTfJX5n7faukzKy5sUq9fmHQ4G0yZtwu/XhQXLViWRid1Uolcl7/SLOQXArEVSgRii1btpQPPvggpuX169crhY4Fj93sG2+8ITfffLPrgsxi+OKLL6qdNrtkFMF+/frF1Kcfnn32WaVEYpn5/fff5ayzzlKKn87n+uSTT3oqpLrcNddco5TI3377TWbPni1ffvmlfPrppzpbWVURsFhbHnroIZk8ebIsWrRIWTPBlXf88qIVFcKN15iASrx+a3RTcUw0bkGun332mZx88slqjMzyYfiSDQUAr8HDbHSGDBliVqfusW7feeed6gf/sgiieI4ePVopoVgP9W/WrFnqnUGDBuWqJx4/8W6bNm2idVHngAEDVD1+ebkaymOCF23D8ExQ2sajCV2B/ihIpvLh1kW/eeFW3isNBQUZw8LjhKD94r2gc9GPBijwmre4vvzyywolt830hx9+qCzo8POyZcsUL992223KCognBssfcs6sz+wf7/Xo0cNMSvo9Fterr746ytdmA3609VsX/Ppt1h/m/pOxVWTd0hqyb0tNWTa7uqSVKiGde2bIrt37pfFJabJ6fnVJL+f/D0DWLKguLZuXCdNssSirFTZnZ9zmk7NMfj5rhVZf87Otg7XuuArlo48+Kg0aNJDBgwfH0Ei7HbQA6t69uxxxxBGubnFcyR07dlS747Jly8qtt96qXC/Lly+PqZOH4447Tu677z4pU6aMpKWlKasEC5mGX375RR555BFBUHoBC8+PP/6oLI3Ug4Xysssuk08++ST6Cu6Wtm3byubNm4U+nn322SrvhBNOkIoVKyqF1S8vWlEh3HiNSZB+a3RTcUw0bkGu1113ndrAdO7cOaZ4GL5kk9G3b19lyYF32eSgJDqBMAj4m7J8WBhr9mmnnabciiVLllRWbizd8Ct4denSRZV31hOPn2bOnKn4fceOHUJIB3OFOgG/PGc7eX32om0YnglK23g0oS/Dhw9XCnyHDh18u+Y1L3xfcskkXAEFZvz48UoWmEWC9ivMXPSjAeMPb/Gj3O23367ogRfHCfALCieeGaB58+ZKCWejrEMF4NuVK1cqbw11mgD/w7vIv/yCcePGycKFC2XMmDG5mvCjrd+64NfvXI2ETIhMd6lXp5SMe/MwWbx0r3KFL1uRLd36ZMiePful381b5MVXd0ZrXb9hn7Rou1GWLNsrPa/dIrPn5VgoV6/JjjxnSK2G66RHvwzZsPGAKxy3eJ/+W1Re01YbZOTruyL/yCJaZZG80RZBE3m3NDPf3hd9CsRVKLHWYX1kwTUBS03dunWjCx4LLYqnW2wPsViU1XDUUUepWxZNJ/Tv318tqqSzq0ZA4voGcIngMsddguLnBVglgWOOOSZahPaxeALEKn311VdKiUTZHDhwYLTc+++/r4QwVlm/vOgLhXDjNSbx+m2immpjYuIW5P7XX3+Ve+65R0qXLh1TPAxfsrCZPEJIBhbO7OzY2CYsl1gcq1evrtqCdvDJ+eefH9M284SNDLG5bhCPnxC4L730klSrVk3NF3gQ1zPgl+fWVl7SvGgbhmeC0jYeTcDl7rvvVop+enq6b7e85oXvSy6ZyDEsfGyCnRC0X2HmYjwaaByQU7ipr732Wp0Uc8XjQmiPBuiB3Eb5JA4ToG8NGzZUSqMZKvLaa68pr4y2Euo6kn0lPOqHH35Qln1n3X609VsX/PrtbCPR52PrpUnFQ0rIgkVZsnPXfvl+6h7JjuiEDY9PkyHP7ogqgOM+2i2rVmdL/bppMum7TMGFTqRVx66b5bc1+2TEsMoRY0kJmTE7R9FEcby8+2aZE1E8X/5vZenWJV36RpTUseN3J4pqyrxnFciUGYoCQySuQlmhQgVXZFjonDtZLDcchnACi7RZVi8MWGK8AOUR4YjSiQIJ3HHHHUo44v7yg02bNqlsE3fu2eEDHNRhsa5cubJ61n84MESbDz/8sIpb0ulc/fLMcgVxb/bLbC9ev82yqTYmJm64HPfs2aN+zoMFulylSpX0bcw1KF/SBlYkk5bwL4BL0As4kNO6dWvlmsalaQKKJNa9qlWrmsmu905+YvPUtGlTFWPJ/ZQpU5SLEqXZL8+18jwmetE2KM8kSlsnTTiwwQbywQcfVOEN8bpljqVXWQ7jad7i6tw88B5WQTwbTgjTrzBz0WzHSQOdB1+/+eabKo6dzXs8QDHEsvv2228rSzfvYOFlw4Nrm/AkXM8ozsQnEh9P2SA0jNe2X3758uVds4PS1m1dMCt09tvMy8s9JG9QP03WrT9gWaS+qzqlq8M106bvUdWPGr1Lru9TQSKOiyighKJADhlcSS5sXVaGDz00mjdvfuTgaEQ5HTigojQ5pXREoSwvXTuny4hRxSO+0iqV0aE+KG4Mtg/XXxZN52ltFDZtfTRro6ypaGIhBGrUqGEWi95T7wUXXKDiGTmQQ5A5pxZfeOEFOffcc+Xdd99VB3Vo77333os5bEMlWJQAFAYNW7dulTp16qhHAs/bt2+vs9QVVyeKAm6ze++9N3BeTMFCfojXbxO9VBsTEzc2DLix+Gn3nZnvdx+UL1Ea2OSYPAKPkqYVS2c7xKA1a9ZMbTY4pKPd0ZTD1c4PhTIeuPEa7sfPP/9cxRfTb+KN+vTpozYyfnnx2kpmflCeSYS2bjR54oknBKsocmLs2LGyMuKqxXVrhsCE7d/ixYujvAWdzUMr8eoK068wc1G360YDnYeyB2+6WU11Ga4oyFjzsOpCJ21FJ2SDWEM8NcwpNioAB44I5cDyCX2hM3Piu+++c/16gnopH/4Eoa3buqBR8eq3zk/GFTd27VqlYqo6skYp6dC+XOSAzW5ZuHivOr2NldEEDvEApzbK8aZgoWxzblmVhisc6BSxUtZosFb93n5vt6z5I9ZLogoV0T9aqUSmcW+h+FIg4Q+bH3300SoOEmsOFkcsSbgsateunYtaCDF9WIFM/UkV092oX8IKwsEEhD2uEe1qZ7E//fTTo7E3HIogmJ1DFJxsNC2gKKC6HdyHAK4z7SZHGUAp1YCbEUWAxcVp/fTL0++nyjVev008U21MTNxwL+tDB6VKxQpws5zbfRi+xP1HfJkG7klzA069wpdYsNnYmMok5VmsmzRp4urKM+vz4idCRdjM4NbUmzIs+Cz0fnlm3fl9H4ZnwtDWiyZYE5mz2kOBfAFQbNn8JQLIHOSKBvoUBoL2K8xcpH0vGmjc3nnnHRUTjlz0Aqx8yC94kY048lIDLm0sstpdrq3w9AerJJv8p556ShdXhzDZgOOOLyjwo63XugBufv1OFu58Smj7jv3SvFluy3Xv7uWle98MqVSxpFIUnUpn7WNyZNiiJXvlpIY5S+6CRXvl7BZlpMrhOTad2VOrRQ775CicKyMu88w4J8iT1a/8qMdNaXRLy4+2bZ2FS4GELZTsfFH22OnilkYJQLHkkxPAN998Ez1VjduKmEVizHAZ8g5xL9rlzKcxOGwDoNhhleCzGMTDTZ8+Xf0oj5DUP9pD2PGMMokFcsSIEWrx5dM/nTp1UjhRF8IYJfLyyy8XDgLhPjr11FNVexx2oE0O+VCfbo9F3C9PvZxif/z6DaqpOiZOMrKw8IkYfuai6Czn9hyPL01eY/F97rnn1K4ZhfGZZ56JHqYx+QnF7tJLL1X8gTWHzRF8YiqjWC/5xIwTUILgS04q+/ETVjgOvfD5GNrGugTf8pkivzxne/n5HGYe+9E2KE04nKfnO1e8CtAfOQKY/By038gozVtcdVxs0Pf9+mXyTJi56McX4IVijauaDYsTTH5GKcUtTugFLm4ty+BfPu+GnIOOKGcPPPCAsPmiTr5+YdIZeYoSf9NNNzmby9dnP9p6rQsg5NfvRBGeH3FTT5+ZJZOnZMrzI3aqzwi1a1NWzjojt0KJGxsYPGS79O6R26V/YiTO8ohqJeXJYTuEQzu4xbUFsvHJpVXeQ49tV2krVmVLy8ihnjfGFF2XdzJOeXvVkeh42vcKhgIJK5S44RBefBfuyCOPVDta3DIILgChry0LKGpYX/iWJbteBBxWHg2cXEThRInj80S4XM477zylTKBQ8GMXaoIzjgglkVOK+uQ47jJiherVq6fShw4dqtyVxChx4ltbvvR37cBVt8WVHb1fnolLKt179RscU3VM8kI/TlmbEI8vNa/xDjFkfJaKTRDKBUIMdyFg8hNfBGARZpeNy1vzibaiUp6P57t91w9FAL5EofTjJ/qB4skmio0W1lBiNDl165dH2/kFTtoGncfg40fboDRx9gt89Lwlz+RnZ9n8evbrl8kztB90LvrxBfUgFwEO0zjB5GdkHNCzZ88oj8KrKKzETxKDzsYcJRqXNqfYnXJU1+8ce52en1cv2sZbF/z6nSi+NwzYKqefs0HObb9Jhj63Q/pdXSFy0jsnlCqiq8cALmziJoFLL4o9OU9aucjnhSZ8WEWmTtsj1Y9dK3fdv01OPCHHUlk+vYR8+m4VmTt/rzrlXa/xOmn1f2Xk3jsq8mqRBWQl8tQEtzQz37ynrC7vrMcsZ+9TiwIlIrvfmA8UIGAcSb4Ys1DyDT+UynhAkD1B1ezeCwrAjZgh7aIk7pI+FiQOee1r2DGhPWe/vXBIhTHxwi0v6WH4knAK+MPrwEBe8EjkXWLFwMXNvemXl0hbvBOWv8LwTKrRNlEaOd8L06+gc9HZRn48szHnwFBYy2yiuITlLdoJQ9tE8TLfSwRH8/0w91goq1YpGXNoR7/P54M4SV62rENj1QUiV3BF0UplQAHUOJr34Ox81v3wSg+aH7acLu91jYeP13vO9OJcj5uemLNNclIhxDM72SDKJFWyQLotkiGaC13UKTh1sHzoiorYC85+e6GfCmPihVte0sPwpdep5ry0n5d3/TY7fnl5aTPMu2F4JtVoG6affmXD9CvoXPRrL1l5bJxSCR+3foWhrdv7iaYRu1i30bpEX0/6e5wK/3f/nC9PJL3yAqpQWxm1gplos7oe3s9rXYniYN+LT4E8K5Txm7AlLAUsBSwFLAUsBVKbAnUih2f2b8050JnamBYt7JKlDGpFEqsfoJ+LFjWKN7ZWoSze42t7ZylgKWApYClgKVBgFHBT9NzSEkUomXUlioN9z50CsSca3MvYVEsBSwFLAUsBSwFLAUuBAqMAlkhtjTQbdUsz8+194VHAKpSFR3vbsqWApYClgKWApYClgAcFsEY6FUi3NI/XbXIBU8DV5c1JMgupRQE7Jqk1HsUNG8tfxW1EU6c/RYG3igKOekSdCpZOL65XrUBaV3fqj7CrQul2HDz1u1J8MUTY2TEpvuNb2D2z/FXYI1B82y8KvFUUcNQcAq7FUbGKpyRbpVJzQGpfXRXK1EbZYmcpYClgKWApYClgKXAwUUArlfS5OCrVxWEsrUJZHEbR9sFSwFLAUsBSwFKgkCmgLY3JUPjc6nBLK+Qu2+YNCthDOQYx7K2lgKWApYClgKWApUBiFEDh44diqZXLxGrK+a86znfzWqezPvucXApYhTK59LS1WQpYClgKWApYChzUFDAVy2QSQiuryazT1pU8CliXd/JoaWuyFLAUsBSwFLAUsBT4mwKmAsh9WPCySJKeSH1h27flw1EgsIVy+/btMnHixFy1b9u2TaWvWrUqV54zYc2aNfL1119LRkaGMyvX8/z582XGjBm50kn49ddfZc6cOa55ZmJWVpZ8//33MnfuXNm3b5+ZpU5NP//88/LXX3+p9J07d8qkSZNky5YtMeV48MvLVbgAE7zGxK/fTvRSaUycuAV5XrFihSsvhOFLeGnq1KlRXvBqNzMzU7755htZtGiR56n7L774QijnB178tHv3boHvzd/GjRtVVX55fm3lJc+LtmF4JihtvWgC/tnZ2Wrx+OOPPwJ1x2teBHrZUeinn34St3aD9ivMXEQuImP//PNPBxY5j0H7xfvffvut0LYJq1evjuEt+MwNWKjXrcv//2ntNVf8aOu3Lnj1262PXmlZWfvly4mZ0d/EyZnyy6ysyPpx4I2t2/bJhEmZMWkHcg/cUWbjJuPFA1ny84wsWb4y20gpvrfwEz+UQC8F0av3+l23q9c7Nr3wKBBIody7d6/06tVLbrnllhhM33rrLTn00EOlW7duUqdOHRk2bFhMvvlw/fXXS61ataRr165y+OGHe+4uli5dKscff7yceeaZ0q5dO6lfv74g1AEE7imnnCLNmzeXNm3ayEknnSRr1641m4neI3iqVKkiV1xxhTRu3FiuuuoqoR8ayH/sscekXLlycv/998shhxwi4HjYYYepqy7nl6fLFMbVa0zi9dvENdXGxMQtyP2GDRukVatWMmrUqJjiQfly165dip/gKQQdV6/F/LPPPpNq1arJddddJyeccIKaDyY/gcDTTz8tF110kbDwe4EfP6FMwNPm79VXX1VV+eV5tZWXdC/aBuWZMLT1owmKfs2aNaVnz55y1FFHSZcuXXy75TUvfF/yyKTtM844Q37++edoiTD9CjMXH3zwQSUXkbH09+WXX462yU2QflHmwgsvVO/37t1byb9XXnklWs8ll1wSw1vwmRMmTJggLVq0kGnTpjmzkvrsNlf8aOu3LsTrdxjEt23fL+06bZIuvTZLr+sypE2HTfKPszdIo+brZc6vOQr60uXZ0rbjJvkrc79v1ZSZNTdWqdcvDBq8TcaM26UfD4qrVgoPis4epJ2Mq1AiFFu2bCkffPBBDInWr18vN9xwg7DgsZt944035Oabb3ZdkFkMX3zxRZk3b56wS+a9fv36xdSnH5599lmlRGKZ+f333+Wss85Sih/5I0aMkB07dgh5WEnS0tJk5MiR+tWY6zXXXKOUyN9++01mz54tX375pXz66afRMuCEgKWehx56SCZPnqwsT1gzwZV3/PKiFRXCjdeYgEq8fmt0U3FMNG5Brih4J598shojs3wYvmRDAcBP8DAbnSFDhpjVqXssPfD2XXfdpXgE+r/55pvRRZeNztVXXy0DBgzI9a6ZEI+fZs2apTZKWCP1T9fpl2e2kYx7L9qG4ZmgtI1HE+Ym8xSFgrLvvfeefPfdd67d9JsXri94JKKgPPnkk67WlKD9ouqgc5G+PfDAA6pfeF9QJq+99lrFA9QTtF8ffvihsrTDz8uWLVO8fNtttymLOZ4YLH/IOc1bXE3gvR49ephJSb/3myt+tPVbF/z6nWgHPhlbRdYtrSH7ttSUZbOrS1qpEtK5Z4bs2r1fGp+UJqvnV5f0cv7/AGTNgurSsnmZRFEosu95WSITsU4WWSIcpIjHVSgfffRRadCggQwePDiGRNodrQVQ9+7d5YgjjnB1i+NK7tixo9odly1bVm699VYlJJcvXx5TJw/HHXec3HfffVKmTBmlMGKpZCEDUBYqV66s8kqXLi1HHnmkEpwq0/iDhejHH39UlkbqwUJ52WWXySeffBIthbulbdu2snnzZqGPZ599tsrD+lSxYkVlQfXLi1ZUCDdeYxKk3xrdVBwTjVuQK5ZClLzOnTvHFA/Dl2wy+vbtqyw58C6bnNGjR8fUxwPhEi+99JLcdNNNKg8eBnCrA+PGjZOFCxfKmDFj1LPXn3j8NHPmTGWZZ9OE5Z122DQBfnle7SWa7kXbMDwTlLbxaILFGE8DH3TGe8DcdJMb9NVrXoSlw5IlSwQFZvz48ao98/2g/QozF5FpX331ldq401Z6erpqUodOBO0X/IIyCr0APDngQYjGggULVNppp50mK1euVBZPvDMmwP9YgKFxfoHfXPGjrd+64NfvvPYjwnZSr04pGffmYbJ46V7lCl+2Ilu69cmQPXv2S7+bt8iLr+6MNrN+wz5p0XajLFm2V3peu0Vmz8uxUK5ekx15zpBaDddJj34ZsmHjAVc4bvE+/beovKatNsjI13dFQmqiVRbJG+3iNpF3SzPz7X3Rp0BchRJrHdZHFlwTsDTWrVs3uuAh8FE83eKNiMWirAZcV4Cbu7p///5qUSWfXTUCEtc3wEJHjCNuzgsuuEAtslg7nYBVEjjmmGOiWbSPxRMgXgsBjhKJsjlw4MBouffff18JYayyfnnRFwrhxmtM4vXbRDXVxsTELcg9lpx77rlH2FiYEIYvUQJNHiEkg00LMXsmsGC1bt1ahXfgmoQfCbk455xzVDFCPn744QflMjffc97H4ycELoorrnX4FR7E9Qz45TnbyeuzF23D8ExQ2sajCVar4cOHq9CV008/XcmYSy+91LWLXvPCtbBPInIMCx9VSo9KAABAAElEQVSbYCcE7VeYuVi1alUlz5CHyD9kGhZLFE0gaL+w5BLao4H3kNuEEOEdAuhbw4YNldJohoq89tpryiujrYS6jmRf/eaKH2391gW/ficL/2PrpUnFQ0rIgkVZsnPXfvl+6h7JjuiEDY9PkyHP7ogqgOM+2i2rVmdL/bppMum7TMGFTqRVx66b5bc1+2TEMAwiJWTG7BxFE8Xx8u6bZU5E8Xz5v5WlW5d06RtRUseOj7UeJ6sfBVmPVSALktqp0VZchbJChQqumLLQOXeyxCFqq435Eou0WVbvwLHEeAHxNAhHhCzxNgBuP6wT7Kyx3OCycQse37Rpkypv4s491hCAgzos1lpgq8TIHw4M0ebDDz8sjRo10snq6pcXU7AAHsx+mc3F67dZNtXGxMQNl+OePXvUz3mwQJerVKmSvo25BuVL2sB6Y9IS/gWcrkDdAO/AQ/Afh9CwZAHly5fXRQJfnfzE5qlp06Yqnpf7KVOmKBclSrNfXuAGQxT0om1QnkmEtqDnpAlpHIJinLS1FlpoJZt8E8yxNNPNe/6FqeYtrs7NA2WRLXg2nBCmX2Hmom4HdzCAfCSGUT8H6ZeuQ1+1Iv72228r2rHh79Chg/Lc4NrGuk+YBoozLndiNymbSFu6zSBXr7kSlLZu64LZrrPfZl5e7rFUNqifJuvWH7AsUt9VndLV4Zpp0/eo6keN3iXX96kgJY2VFSUUBXLI4EpyYeuyMnzooVFU5s2PHByNKKcDB1SUJqeUjiiU5aVr53QZMap4xFdapTI61AfFjcH24frLrloLPP0mi622Puo0rpQ1FU0shECNGjXU1fmHerFAEs/IgRyC1AGC94kJInD8888/l3//+98qTsn5f66JhQNYiDRs3bpV6tSpox55v3379jpLXXF1YoXCvXTvvfcGzospWMgP8fptopdqY2LixoECFAh+2n1n5vvdB+VLlAY2OSaPwKOkacXS2Q7v4AolvpbDaMTZJQJuvIaSCk9jnaLfxBv16dNHKVl+eYm0n+g7QXkmEdq60QQFlphWYuTIh+7wQ16saIsXL47yFnQ2D63Eo0uYfoWZi7pdLIccbMQ9TUgO/Q4LKMhY8+6++24VKnT++eerKghJoj4s39CQjQrAgSPCPjigszLiCh87dqyaE8SpEnNZUBCEtl7rAjh69TuZ+OPGrl2rVEyVR9YoJR3al4scsNktCxfvVae3sTKawCEe4NRGOd4ULJRtzs0Jm8EVDnSKWClrNFirfm+/t1vW/BHrJVGFiugfrVQi07i3UHwpkLBCefTRR6s4SG3NwZKEy6J27dq5qIUQI7Bcg7bsmO5GnccigisR6wFuRF0fO1jqMAN7cYFRHmXRBK2A6nbIw41Xr149Veyjjz5SyqN+BzcjApfFxXR/k++Xp99PlWu8fpt4ptqYmLgNGjRIjT3jj9UqDIThS9x/xJdp4J40JxDGwSljM5zj1FNPFe3WdJb3e/biJ+pGEdBhGdSBBZ+F3i/Pr61k54XhmaC0BUcvmuj5SyygBuY/czlRQObAV/qH1S4MBO1XmLnIJ37YSOiNMbGi8DGHkMIAMhKr4+uvv6424lqZpA5c2tBZg5bb9AerJArZU089pX6U4RCm1+EnXUeyr3609VoXwMGv38nCkU8Jbd+xX5o3y2257t29vLz21i4Z/e5upSg6lc7ax+QooYuWRHzff8OCRTn3VQ7PWYJnT60m+7fWVL8Vc6vLx+/kGEV0+aJ0dVMaSXNLL0r9srjGp0DCCiXCivgcdrq4pVECcNXwyQkAV5U+Vc2ngohZJBYTVyHvEPeiXc585uWXX35R7xEnSazW448/rk6ET58+Xfixgz3vvPOUhQiXDcKW3Tx1Uw9KJafAWXwRyJ06dVI4Udc777wjKJGXX365cpnjMkMhADjsQJtYPonn0u1Rj1+eejnF/vj1G1RTdUycZGRh4TAWPzYNYSAeX5q8hiX0ueeeU4IOF+MzzzyjNha0Z/ITh7+wjj0QiWvDiokCAK/deOONcVFjk0VZDvb48RPWeg69YIWnbQ6iwbdXXnmlsuR75cVFIIkFwsxjP9oGpQnKNBZjZAEKEAeu+KqE/kKEyc9Bu4mM0rzFtXr16kFfVeX8+mXyTJi5CL8TJ8qGFu8N98g3lMN4YPIzCiNfH+D7uri4tSxjY4JFHTmHxwflDF5GaW3SpImS06TrHzQnzEgfQouHQ7Ly/WjrtS7Qtl+/E8VtfsRNPX1mlkyekinPj9ipPiPUrk1ZOeuM3Aolbmxg8JDt0rtH7vCXEyNxlkdUKylPDtshHNrBLa4tkI1PLq3yHnpsu0pbsSpbWkYO9bwxpui6vNn0mYYfPQZuaTrPXosHBRJWKHHDIbz4bA8LLjtaYnAQXADKo459RFHDlcy3LHE7I+BeeOGFKAVvv/12pXCixFEPbkiUR5QJ/WMXymLCwsyhBQ5QYM3hkASAkshCo0+APvHEE+pzMFglSR86dKg0a9ZMWbw48V2qVM6uUX92CFx1W1zZ0fvlRZFPsRuvfoNmqo5JXkhY0gxWilQUjy81r9EmCzafpWIThHKBwMNKCJj8xOLM4TBcgvA3FnR4Cj6KB3xtgLLwrR8/0Q8UTw4VsUHi0A+fneHUrV9evPbzku+kbdB5TJt+tA1KE+jARvDdd99VcarEmHKQDsUWMPlZJRTAH79+mTwDKkHnItZMZCkyiHALNiocqEHhiwcmPyPjAKzppixjI4Ml9o477lAbeZRorI+cYoe33cA59m5lkp3mRdt464JfvxPF8YYBW+X0czbIue03ydDndki/qytETnrnWA2dJMOFTdwkcOlFsSfnSSsX+bzQhA+ryNRpe6T6sWvlrvu3yYknpJEl5dNLyKfvVpG58/eqU971Gq+TVv9XRu69o6LKL6p/sEY6FUi3tKLaP4u3OwVKRNwsMR8oQMA4ktzf/DuVhZKDMSiV8YDPYBBUze49L0AsDS4aYrriAbgRM4SFEyDOkz7mFYd47SYzP+yY0Laz3174pMKYeOGWl/QwfInVEf7wOjBg4oF1nHJByprvhbmHv6mfGD8n+OU5ywZ9DstfYXgmDG298EUeYVVD2crvQyNeODjTw/Qr6FykDZQnPD9aXjnbzeszG3MODIW1zCbabljeop0wtE0UL/O9RHA03w9zj4WyapWSMYd29Pt8PoiT5GXLuiv5lAPXVHcdo0hqHM178Hc+kwZ4pefkBv9r6/GnVTLp46Yn5mhZ/jj45rKTDaJMUgkLpNsi6duAS2YYZdApOHWwvEu1xSrJ2W+vzqXCmHjhlpf0MHzpdarZrf0gmxi398Kk+fG3X16YNvJSNgzPhKGtF04sokH52auOZKeH6VcY3HXsZbLx1fWhqIbBR79XkNcwtE0mXisjn/up22hdMqvMU12cCv93/5wvT+SpokJ8WVsltYJZiKjYpguAAnlWKAsAR9uEpYClgKWApYClQL5SoE7k8AwHYywklwJaqaRWq1gml7apVptVKFNtRCw+lgKWApYClgKWAkWUAm5Ko1taEe2eRduHAgkfyvGp02ZZClgKWApYClgKWApYClgKHEQUsArlQTTYtquWApYClgKWApYClgKWAvlBAVeXN0HwFlKLAnZMUms8ihs2lr+K24imTn+KAm8VBRz1iHJStzhCsvqVavUUx7Hy6pOrQul2HNyrApue/xRA2NkxyX86H6wtWP46WEc+//tdFHirKOCoRwpcbTyipkbqX5Ol3KZ+T3MwtC7vojJSFk9LAUsBSwFLAUsBSwFLgRSlgFUoU3RgLFqWApYClgKWApYClgKFTwEsjQebtTERqru6vBOpyL5jKWApYClgKWApYClgKVDcKKDDDLRSqZ+LWz/z2h9rocwrBe37lgKWApYClgKWApYCxZ4CKJL8tGJZ7DscsoNWoQxJMFvcUsBSwFLAUsBSwFLg4KWAViqtYhnLA4EVyu3bt8vEiRNj3448bdu2TaWvWrUqV54zYc2aNfL1119LRkaGMyvmmRPN06dPV7+srKyYPB7mz58vM2bMyJXuTODd77//XubOnSv79u2LyaaN559/Xv76669oulcfFyxYoPpIX1MJvPD167cT/1QaEyduQZ5XrFghc+bMyVU0DF/y/tSpU2N4IVeFkYRdu3ap3ens2bNzZWdmZso333wjixYtinsif+fOnTJp0iTZsmVLTD27d+9WvA1/69/GjRtVGb+8mEqS+OBF26A8AypBaYtMQL78+eefuXqwd+9eNT5BZAwve82LXBUHSPjpp5/kjz/+yFUyaL/CzMUNGzYoGkBfJ/jRx1kWGn777bfilJ2rV6+O8pXmL+e7PLNYrluXf//TOjs7W7XhRleNjxvdGVfmGPLc7asXYfhSt+O8ZmXtly8nZkZ/Eydnyi+zsiLrx4GSW7ftkwmTMmPSDuQeuKPMxk3Giwey5OcZWbJ8ZbaRYm+LGgVMa6VVLHNGL5BCiUDv1auX3HLLLTFj/tZbb8mhhx4q3bp1kzp16siwYcNi8s2H66+/XmrVqiVdu3aVww8/XAkUM1/f//bbb3LMMcdI+/bt5bzzzpN//OMfsn79epW9dOlSOf744+XMM8+Udu3aSf369QXB4wYIzCpVqsgVV1whjRs3lquuukrohwbyH3vsMSlXrpxK8upj//795cQTT5Srr75a9fW1117TVRTq1QvfeP02kU61MTFxC3LPAtyqVSsZNWpUTPGgfImCeMopp6gfAoF7N4WGytlUwHvwUcuWLeWkk04SFEPgs88+k2rVqsl1110nJ5xwgporJq+pQn//uf/+++WQQw4RaH/YYYepq85HoaJe8/fqq6+qbL88/X4yr160DcozYWj74IMPKpmAfKlZs6a8/PLL0a589NFHKu/KK69UMqZFixa5FPFo4ciN17wwywS9Z5NxxhlnyM8//xx9JUy/wszFDz74QI444gglY5GTyBsNfvTRZbjS9wsvvFDRsHfv3kr+vfLKK9Eil1xySQxvwWdOmDBhgkDjadOmObOS8gxNGeOePXvKUUcdJV26dMlVrxvdUeCPPfZYtSYwV0899VTZunVr9N2gfBl9weNm2/b90q7TJunSa7P0ui5D2nTYJP84e4M0ar5e5vyaY9xYujxb2nbcJH9l7veoJSeZMrPm5jaIkDto8DYZM26X7/s2s2hQQCuWRQPb/MUyrkKJUGQBReCZgJJ3ww03CAseu9k33nhDbr75ZtcFmcXwxRdflHnz5gm7ZN7r16+fWV30HuGJoGP3ShubN28WLRSfffZZpURitfn999/lrLPOUkph9GXj5pprrlGLPwoqFqUvv/xSPv3002gJcELAAl59ZDf83HPPybvvvivU87///U8Q1AsXLozWUxg3XviCS7x+a3xTcUw0bkGuKHEnn3yyOK05YfiSDQUAP8HDbHSGDBni2vwdd9whTZs2Vfy7du1atXiPGDFCWYHg+7vuuktZJxmbN99803VBBteHHnpIJk+erMpiaWFeaIvnrFmzpE2bNoI1Uv8GDBig8PHLc0U4D4letA3DM0FpyybxgQcekO+++05+/fVXpUxee+21qv94Fe688071Q25goULhHz16tGvv/OaF6wseiShmTz75pGucVNB+UXXQucjGhA370KFDFQ2QL2ySfvnlF/GjjxP9Dz/8UFly4edly5YpXr7tttsE6zmeGJQyeE/zFlcTeK9Hjx5mUtLv4X/kLv1iPrz33ntq7GnIj+433XST1KtXT3m3mH/Vq1ePGjjC8GXQDn0ytoqsW1pD9m2pKctmV5e0UiWkc88M2bV7vzQ+KU1Wz68u6eX8/wHImgXVpWXzMkGbtOVSnAJuVki3tBTvRr6iF1ehfPTRR6VBgwYyePDgGES0y1kLoO7du6sdNpPbCbj3OnbsqBTFsmXLyq233qqUuOXLlzuLKkUTJa5UqVKSlpYmZcqUUW51Ch533HFy3333qTTysFS6tcfC8+OPPyrrD+9jobzsssvkk08+ibb3xRdfSNu2bdWzVx9xu2M16NSpkyrXunVr9Ux6YYIXvkH6rfFOxTHRuAW5Yg1EkevcuXNM8TB8ySajb9++ypLDOLPJcVNWUGJQsh5++GHBXVeyZEmZMmWK/Otf/1KhFC+99JKw4AHwN+AWHsHmiLE7++yzVRmsmRUrVoxa62fOnKl4eseOHcKiSV3wOeCXpwok8Y8XbcPwTFDaVq5cWb766iu1aaUL6enpqicoQYQEIFcYIz7ojGX3tNNOU+5ct+56zQu3sn5pS5YsETav48ePV+Njlg3arzBzkToBLLQoeVji2MDiGfGjj4kX9/AL1l08M0Dz5s2VEk4YBhZ2APqtXLlSKW/aO6MyIn/gfyyG8GR+AXMJ/BhPLPS0pdcBL7oz5whd6tOnj6JH+fLllaeL8CkgDF+G7VcETalXp5SMe/MwWbx0r3KFL1uRLd36ZMiePful381b5MVXczwV1L1+wz5p0XajLFm2V3peu0Vmz8uxUK5ekx15zpBaDddJj34ZsmHjAVc4bvE+/beovKatNsjI13dFXPphMbXlC4MCOpayMNpOxTbjKpRYULA+suCagMWgbt260QUPAYHi6RYXQywWZTXg6gBYNJ3QrFkzJVDHjh2rrDV79uxRCwrlcD+jRALsuBGeuL6dgDAGcJ1roH2smgAWARYxvbB79RGBjsVLuzZZJHhG8BUmeOEbr98mzqk2JiZuQe6xZt1zzz1SunTpmOJh+BJLkMkjuBoZXxYwEzTfoGxixUTpwXLGlUWcjQahH1jX4UesjOecc45ZhbpnYzNw4MBo+vvvv68WfDwAAMIJ5RT3OfxKOq7neHmqQBL/eNE2DM8EpW3VqlXlggsuULKA+Y334oGIxRJFCloPGjRIWaPoHu1Ds/PPP9+1t17zwrWwTyJyDAsfm2AnBO1XmLkIz8J7hFOgLLGJwNoIf/nRx4kblj/q0AA9kNuEauAdAuhbw4YNlSJnhooQyoOlXFtgdR3JvlL/8OHDVSjS6aefrvC59NJLVTNedMe40KRJk6j8pjDxtFg4CUEIw5eJ9ufYemlS8ZASsmBRluzctV++n7pHsiM6YcPj02TIszuiCuC4j3bLqtXZUr9umkz6LlNwoRNp1bHrZvltzT4ZMaxyxCBSQmbMzlE0URwv775Z5kQUz5f/W1m6dUmXvhEldez4WOtxonjb95JLASySzh8tWEtlDp3jKpQVKlRwHREWOudOFguCm2WGRdosq60QWGK8gJ0s5YiTMWOYKI8QQXCikD799NO5qti0aZNKM3HnHgsRwG6XxZpFCzDLqYS//6AYgDfxWygT//znP1UOimVhghe+8fpt4pxqY2LihuuLjQQ/58ECXa5SpUr6NuYalC9pg3E0aQn/Ak5XoD6ggFWSsAfcdCg2WLk1UB/8hdWHxS7epgPrCjyM1bNRo0Zqg4RLnRhLNku0hYsSpZlnrzzdfjKvXrQNyjNhaKvx1gf1mPPE7+lnnQ9NUdyZk7iS3cAcS7d80jjMoXmLq3PzQBntGeHehDD9CjMX4S/c9cgjwiD+85//qM2zueHW9PCij4kn91pxe/vtt9Wmhw1/hw4dlOcG1zbWfeI0UZxxP2MdpWwQGjrbCvNMGBHzTlvf4W29afKiO/WDK2EITzzxhDz11FPqRzprQVC+pHyigKWyQf00Wbf+gGWRuq7qlK4O10ybvkdVPWr0Lrm+T4WIF+NASyihKJBDBleSC1uXleFDD41mzpsfOTgaUU4HDqgoTU4pHVEoI9bXzukyYpSNr4wSKYVudLyk2zWF0Cw0VAy2D4cDO2ct5PSbLKja+qjTuFLWVDS1xa9GjRpmsZh73OKff/65EqwIP32qjzaxaCB4OZBDgLcTsGwApuKHYlqnTh2VTuA5h37iAe5y3FEsJAgy8zBQvHcLIz9ev02cUm1MTNyIU2XB4afdd2a+331QvmTxYrNg8gg8SppWLHU7uOYAwi04pMFBL1yDWO41UB9uUqw8WCtZ/LyAzQnKES7ae++9VxVDEYXfsdDRb3a8uPhQPP3yvNrIj/SgPBOGthpPrGYc6sM1i6KOhU4DijWeCxRvDulQf6KwePHiKG9BZx2fHaS+MP0KMxf1xhYZQ1zw3XffLUcffbSMGzcuipYffaKFIjcoyFh6qYNwIG3NJXQAmmL5Zk6xUQHYrBNSQNz6yogrHM8Qc4KYVuieTEDxI0YZPJgDzBVwCWIVZRNx4403yuuvv64s+TrWGZ4Mypd57Qtu7Nq1SsVUc2SNUtKhfbnIAZvdsnDxXnV6GyujCRziAU5tlONNwULZ5tyc0Bhc4UCniJWyRoO16vf2e7tlzR+xXhJVyP6xFEhxCiSsUCLw2FVraw6WJNxBtWvXztVlhBhlNWjrjelu1Hkojzo2hjTT7YxAwpWIZeGHH35wbYt3tJKp2yENNx5B3QCLEgt6PKA9FFgUUIQfBy+wHGnFNN77BZ0fr98mPqk2JiZuuDkZX34mL5hlvO7D8CUuNuLLNHBPmhP0Jkkv/OTjase6QogHJ1bNUA9OoGqXp7MuXNos7igypvub91EEtHud97Dg6wNqXnnO+vPzOQzPBKUtn7dBidYbRpR3xhB3JoC1klPHWNdQsLR3I9F+InM0b3Gl3jAQtF9h5iLubkBvZLAmsplFtsajj4k7G18seShdbLa1MkkZXNrwngYtt+kPVkkUUdPyxyFMlMpkgpbHxHZqYOOEbI4HxEajVFKW2FbwxQ0OhOHLeO145fMpoe079kvzZrkP2fTuXl5ee2uXjH53t1IUnUpn7WNylNBFSw58ZWTBopz7KofnLMGzp1aT/Vtrqt+KudXl43dyjCJe+Nj0gqcAVkkL/hTI4Wb/Mq65CCvic9jp4ppBCUDYI/wBXBv6VDWfCiJmEYsOriveId5HL9B85oUTjQALNfFpLKws8Fh9OPCAsOWwAPEyjz/+uDptq79VyXtYIDl1y8LMosRBGnCi/DvvvKOUyMsvv1wFgONiYdGPByxyF198sdpRo8Q+8sgjcuSRR8q5554b79VCyffrNwil6pg4icUihzWYH3FWYSAeX5q8hiWUA2AIChSXZ555Ril7tGfyE5skXK1YKDkowmKNhYV4SfiBzcYDkbg/LJwoAPAh1hSATRbPnFjmYA08zMlb4ik1/8KzWOs5XIDLm7axLsG3hFv45alGCuhPmHnsR1uTJow1MXUo2HguuEeZRDFCoSa+DlphReOkOzTTmwCTn4OSABmleYsrp4XDgF+/TJ4JMxeRhVjGCX/AhUtsIwdV+GyaH33A2+RnFEa+MMD3dVFKNX9BR6zm8B68y0YZfkVxRylDTpOuf+BCKJE+aBaGPn5l2RxRN/IbhRYlka+EeH3xw6yLA5XQHhoz/lj32WQB8fjSrCfo/fyIm3r6zCyZPCVTnh+xU31GqF2bsnLWGbkVStzYwOAh26V3j/K5mjgxEmd5RLWS8uSwHerQDm5xbYFsfHJplffQY9tV2opV2dIycqjnjTHW5Z2LkIWc4IyT5Fn/Chm1lGk+YYUSNxzCa+TIkWpRZUdLDA6CC0B51PGNLAgIAD6NgXUPAffCCy9EiXD77bcrhZMEPs+C4EHYcQqWdnDfsOjSBu4YBC2Khv6xM0dJRDDpE4O4j4gVwipJOp/kwG2GxYsT3wR6xwMWGwLb+YwJ7jHc33xCiMD5VAWvfoNvqo5JXmjJiWsT4vGlyWsoLXx6ik0QygXCQS9STn5CKWQxQ1HA7c23V7GssXBzOAx3IbyPBR1+g8cAvjbAMwolcwVgXmje5Yr1iH7QBgc02GjpWEFc6355qsJ8+uOkbZh57EdbkyZY8pAj0IRNI4o4c475j+sb5QeFn7mraQbdAZOf84kEuar165eTZ4LORWJWP/74Y9VvrIV4aeAF4mb96ANyJj8j4wAs5ppWXNnIYIlFtqK8ItewPmLpg3/dwDn2bmXCpsHXeIe0DKV/HIxEIYwHhEAhd6mDPjH/+MoCEI8vVaGQf24YsFVOP2eDnNt+kwx9bof0u7pC5KR3jtXQSTJc2MRNApdelPNdY7O5cpHPC034sIpMnbZHqh+7Vu66f5uceEKaKlI+vYR8+m4VmTt/rzrlXa/xOmn1f2Xk3jvy76S9iZu9T4wCrBVmHCXPFkRKRKxwMR8oQMA4knzpxEJJUDmWmnjAp0DYgbMoxwOUTtzoQcr61QVuxOnouCviPOljmHrpo1Ym/NrKr7ywYwIezn574ZYKY+KFW17Sw/AllkX4I8hGgRAINhduZdnAkO6WF6YvtEEdtOMEvzxn2aDPYfkrDM+EoS2bRrweeq4Gxb8wyoXpV9C5SD9QoJFXbhveZNCHzTcHhsJaZhOlsRtvsb7QTzYQYQ8BIYd5x41HwvCl2R83HM38ZN7zWaGqVUrGHNrR9fP5IE6Sly3rruRTDlyt61VTrGCvWomkVfPe7Vlj5iyn08NeU7EeNz0xZ5sUtndGeXayQZRJXmGBdFskjeqitzqeKJqQ4I1TcOpg+TDV0ccwCmiYuvOrrLPfXu2kwph44ZaX9DB86XWq2a19Pz7gcEAywK8Nv7xktB2kjjA8E4a2Ou4wCA6FXSZMv4LORfrk/Dyb2c9k0AdFLAw+ZvvJukcpShQH7QFzwyUMX7q9vzLyuZ+6jda5ZRVKGqfC/90/58sThYKAbTSGAijyyVLsYiouRg95ViiLES1sVywFLAUsBSwFDlIK1IkcnuFgjAVLAS8KaKWSfJRLDdZqnEMJq1BqjrBXSwFLAUsBSwFLAUsBSwEfCljl0Zs4sScavMvZHEsBSwFLAUsBSwFLAUsBSwFLAVcKWIXSlSw20VLAUsBSwFLAUsBSwFLAUiAoBVxd3gRNW0gtCtgxSa3xKG7YWP4qbiOaOv0pCrxVFHDUI2rG7uk0e01dChxM4+WqULodB0/d4Sr+mCHs7JgU/3EurB5a/iosyhf/dosCbxUFHDWngKuN4dPUOHiuRUUptS7vg4cnbU8tBSwFLAUsBSwFLAUsBfKFAlahzBey2kotBSwFLAUsBSwFLAUsBQ5QAEtjUbE2HsA6+J2ryzv467akpYClgKWApYClgKWApYClQDwK6HAFrVTq53jvFZV8a6EsKiNl8bQUsBSwFLAUsBSwFCjyFECR5KcVyyLfob87YBXK4jKSth+WApYClgKWApYClgJFhgJaqSwuimVghXL79u0yceLEXAO1bds2lb5q1apcec6ENWvWyNdffy0ZGRnOrJjn7OxsmT17tnz33Xeyd+/emDz9sHbt2rin3bKysuT777+XuXPnyr59+/Sr6sqp6eeff17++uuvaLpXH3fu3CnffPON7NixI1o2FW688PXrtxPvVBoTJ25BnlesWCFz5szJVTQMX/L+1KlTY3ghV4VGwhdffCGZmZlGiig+pQ7nPJg/f77Mmzcv18+Lr0l3q2f37t1CXeZv48aNURwWLFgQk+fEI1owxI0XbYPyDE0Fpe2GDRuUHKFuL6Dv9DMeeM2LeO+55f/000/yxx9/5MoK2q8wc5FGvHBHBk2aNEm2bNkSxQU56sZbbvjql/7880/59ttvBbxM2LRpUwz/QOtdu3aZRdQ9C+C6dcn5f9du88hP9iOzp0+frn5O/EGOvk2ZMsV1zfDqt7ODWVn75cuJmdHfxMmZ8susrMj6caDk1m37ZMKkzJi0A7kH7iizcZPx4oEs+XlGlixfmW2k2NuDlQKmtbKoK5aBFEoWuV69esktt9wSM+ZvvfWWHHroodKtWzepU6eODBs2LCbffLj++uulVq1a0rVrVzn88MM9lUEEart27aRly5aqXsr+8ssvZlVKYFxxxRVyww03xKSbDwjEKlWqCOUaN24sV111VYygIf+xxx6TcuXKqde8+vjCCy/IIYccItddd51UrFhRhg4dajZTaPde+Mbrt4lwqo2JiVuQe5SQVq1ayahRo2KKB+VLFsxTTjlF/ZjI3LPw+MHTTz8tF110kVr4dbmPPvpI8fSVV16p5kGLFi2iC/9JJ50kjRo1yvVjAXeCXz1s5qjL/L366quqis2bN8uJJ54Yk3fttdc6qw/17EXboDwThrYffPCBHHHEEUq+ICOuvvrqXLiiJJ155pkycuTIXHlmgte8MMsEvUexP+OMM+Tnn3+OvhKmX2HmIg144X7//fcrGQTtDzvsMOEKwOduvPX444+rfPMPdV944YVSs2ZN6d27t5KNr7zySrTIo48+GsM/8JlzozZhwgSBt6dNmxZ9L9Ebt3nkJ/t/++03OeaYY6R9+/Zy3nnnyT/+8Q9Zv359tPmePXuqvrFOHXXUUcoAQGa8fkcr+Ptm2/b90q7TJunSa7P0ui5D2nTYJP84e4M0ar5e5vyao4QvXZ4tbTtukr8y9ztfj3mmzKy5sYq7LjBo8DYZMy63wq7z7fXgo4BWLItyz+MqlAhFlDuEvglMZhQ6FjV2rG+88YbcfPPNrgsyi+GLL76odtOrV69W7/Xr18+sLnr/8ssvKyvEypUrhV/nzp3lwQcfjOZz8+STT3oqpLrgNddco5RIBBHWzi+//FI+/fRTna2sIZdccol69uojVoGBAweqvi1atEjef/99uf322wXrV2GCF77gFK/fGu9UHBONW5DrZ599JieffLI4LVph+JINBYClDx5m8zJkyBDX5rEGoegMGDAgJh/L95133ql+8DaLIkrp6NGjVTks4FgX+aH41atXT41R9erVQ9Uza9YsadOmTbQu6tO4YIEH4Evd1scffxxTf5gHL9qG4ZmgtGWOoQSwUfv1119l4cKFaoNgbiKhMUoQtPUDv3nh954zDyUEGeNmLQjaL+oMOhcp64U7/P3QQw/J5MmTBRnEWCNLkWkolnq8uSI7AbeN9ocffqgs3/D6smXLFJ/fdtttUUs79P7Pf/4TU1+zZs1UffzhvR49ekSfE73xmkfU5yf7WQNQctlYMMeZS1oh/vHHH+XNN9+UJUuWqL5hPIBmQLx+q0Iufz4ZW0XWLa0h+7bUlGWzq0taqRLSuWeG7Nq9XxqflCar51eX9HIlXN48kLRmQXVp2bzMgQR7ZykQoYCbXHFLK4rEiqtQsnNt0KCBDB48OKZ/M2bMUM9ayHTv3l1ZGVh0nICrpmPHjkoglC1bVm699VYlQJcvX+4sqoTK//t//08t7rgVn3nmmaigpDCC75FHHhGEoRew8CBkELhlypRRFsrLLrtMPvnkk+gruFvatm2rnr36iDJAXSgaALt7wNwZq4QC/uOFb5B+a1RTcUw0bkGuWIzZwLDhMCEMX7LJ6Nu3r7LWYCFjk6MVQbNO7seNG6eUnTFjxsRk4YKE96mHjw5jzT7ttNOUW5GC8DtWcH7acoR1xgnx6pk5c6ay0BF2QbgH9aal5XykASUD6x3PKyObsFKlSim+d7YR9NmLtmF4JihtKQfg/UApOvbYY4VNIBZXDcOHD1dKeocOHXSS69VrXrgW9klEMXn22Wdl/PjxyithFg3arzBzkfq9cEdxIu/ss89WaJxwwgkKJ6wZjLfmLcqx2YVWxx9/vImyuodfUNjw2gDNmzdXsg0lFYUdhRUFEt4Cd+otWfLA8sDc6NKlSy56qMpC/PGaR1QBfl6yn/afe+45xdv0G7muN/ZY0wGstwAWShR0wK/fqkCcP5EpLfXqlJJxbx4mi5fuVa7wZSuypVufDNmzZ7/0u3mLvPjqzmgt6zfskxZtN8qSZXul57VbZPa8HAvl6jXZkecMqdVwnfTolyEbNh5wheMW79N/i8pr2mqDjHx9V+QfWUSrtDcHAQWYz8VBqTwgMTwGjd0w1kcWXBOwxtStWze6qLGYoni6xe8Qi0VZDUx4AOFlAjEyixcvVsIAC06FChWU+1vHy+BuwmXOgoxg9QIWJAAXiQba//3339UjVpGvvvoqKqS9+ojwZaf7z3/+U+3OL7jgAmV1YNErTPDCN16/TZxTbUxM3ILcY8265557pHTp0jHFw/Al1jCTR3C3slkgjssJhHX88MMPyi1u5rHZGDRokGiLI3TFkn3++eebxZQyikJJ3C6hE06IVw8C56WXXpJq1aqpuYTXQC+kKJvQAxwaNmwoRx99dIyb1tlWvGcv2gblGeoPSlvGC7pjVSpfvrySJ1iV0tPTFZrgcvfddytFX6d54e81L7zKe6Ujx7DisQl2QtB+hZmLtOGFO+E6eEk0wFsofIy/CZTBgucV6oA3BhproD1kOsonmxAAHkdOko6VU8edv/baa8oiqq2zqnCCf7zmUTzZj7KL3B07dqyy1O/Zs0dt4kCDuUaYFGUIO7nrrrtUOBN5fv0mPygcWy9NKh5SQhYsypKdu/bL91P3SHZEJ2x4fJoMeXZHVAEc99FuWbU6W+rXTZNJ32UKLvSIwVs6dt0sv63ZJyOGVY4owyVkxuwcRRPF8fLum2VORPF8+b+VpVuXdOkbUVLHjt8dFDVbrghSAOXR+aMbRV2pjKtQotS5AYuZc2HEOqN3jeY7LNJmWb0wOA+5bN26Vb32+uuvq1gpAqwRntqic8cddygBiPvLD3R8mok79+ziAQ7qIJArV66sns1yKuHvPyiwWGUAdsTgjSXJrY9/v1IgFy984/XbRC7VxsTEDZcjCwY/vZkw87mvVKmSM0k9B+VL2oC3TFrCvwCWMieg7MQDDsK0bt1aLXi4O01gUcbdzaYkHjjrwVLetGlTIZaOe+YF8W0o1ACWGdzGuEexrqEkoDywSCcCXrQNyjNhaEuoAdYk5iKWVtyu/fv3V5tNPBRsIHF3Et4QD8yx9CoLTTRvcXXbPGgLmLOOMP0KMxdpJwjuHGhkXB9++GEVO6nxg+dx+WLlZWMfD1AMsWS+/fbbyoKH3CUuEWUN3odXyccav3TpUlUvZYPgGK9tr3kUT/bregknQQ5TXse2simBd7CqYpEEtEKv3+Pq7LeZF+8esjaonybr1h+wLPLOVZ3S1eGaadP3qCpGjd4l1/epELHuHqgRJRQFcsjgSnJh67IyfOih0cx58yMHRyPK6cABFaXJKaUjCmV56do5XUaMsvGVUSIVwxsdL+l2LcrdNdg+XDeqVq2a67Q2Cpu2Ppq1UdZUwrAQAjVq1DCLKXchCQhGdpZo6yiRBOLjSueAzLnnnivvvvuucPqS9t57772Ywza8r13UKAwaEEB16tRRjwSXE9wdD/73v/8pVxBWU+J1uGIhwBWWihCv3ybOqTYmJm5sGFgY+GkXnZnvdx+UL1Ea2OSYPAKPkqYVS792nHkoeFhIOCTB4Rrq14ASyAJNzKPpRtT55tWtHhbKzz//XFmNoAnzok+fPuqLCbxLvB8H4lAEseLg+iScxBlfaraTyH1QnglDW72pe+KJJ5TSiDUSCyuuUdKwiiInUHZWRixpnPJ2C6sJ2h/msOYtrjoOL8j7YfoVZi4GaZtQDDYruL/vvffemFdQ9uBbN4uqWRDlGWUdGkNDbUUnRANl9ZxzzlFK2b/+9S8VcsDGhVAOLJ/QnjFgvvD1DeeBHbOdRO71nHOT/Sj+GgiXYi7QD0Je2CDgKofenHjHm8YXOdh8oQwDXv3WdQa94sauXatUTPEja5SSDu3LRQ7Y7JaFi/eq09tYGU3gEA9waqMcbwoWyjbn5ii+uMKBThErZY0Ga9Xv7fd2y5o/cntJVEH7x1IghSlwYNULiSRCH8sCO1p2jFiScAfVrl07V024UThUoAErCmC6G3lGYFOvXmR0GkIMa+bpp5+uds2ks1NlweQQBacXTQuojnWkHVyEAK4z7SZnwUcpjQf077jjjosqvpxoBwcWpVSEeP02cU61MTFxw4WsDxYQDxgGwvAlrk1iyDRwT1pY4NQrB2awHrHpMZVJ6tKWdqxtfuBVD2EkKBK4NfWGjfnAQs+CioJAPDCbLYA85oN2w/u1GSYvKM9QZ1Da4u4GtEKBhQ1vAHKFvjFntYcC+QKg2KJcJQLIHEIXNNCnMBC0X2HmYrz2CXUgrhXl1807884776h4cRRkL8C6yruEE7AZR45pwGODTESBZ8MD3dlcYenG0ocB4KmnntLF1QFNNue445MFfrIfnkB5JIZWK8HE2GIxBzcUSWJMtXUWBRlAoQRPr36HwZ1PCW3fsV+aN8t9yKZ39/LSvW+GVKpYUimKTqWz9jE5MmzRkr1yUsOcJXfBor1ydosyUuXwHJvO7KnVIod9chTOlRGXeWacE+RhcLdlU4sCWCWLKyRsoWRiE2uD241YSJQAFEs+KwGwS9SnqllIiVlk94g7j3ewQGrFkc9f6FOdKBIINhZ3XBkEYiNIOFSDINQ/2kOg8cziiQVyxIgRKoYTF2CnTp0UTlg4ELgIzMsvv1xZbnARnXrqqXHHFLc4yiNWUHbJWCdxs/CJilQEv36Db6qOiZOWLNocMuFnLnzOcm7P8fjS5DUWGviLCY4yxwEwDtgAJj+5taPTUN4uvfRSxYtYc9g48a08U1HFqoa7Wx8a0O+iIMGzxKr51YOFjtALrC7ghXUJniZejEUU5QvLDYs/myAOlKDcopglE8LMYz/amv1GDjB/ceMSYsInoLCu4oK97777ovOdeY5XARojRwCTn4P2ExmleYtrWKXbr18mz4SZi364Ex+LMskhROSd/g6jjlVH+eMAYpMmTXJVY9IHpRS3ODG88IyuB75DqUZhhBfZvFOGzToWT2S4lrla1qLg33TTTbnay2uCl+wnTpofX1MgDp65BY+DAxsRLKvwDVZT8CdWmbUJWeDXbz9850fc1NNnZsnkKZny/Iid6jNC7dqUlbPOyD2ncGMDg4dsl949cofGnBiJszyiWkl5ctgO4dAObnFtgWx8cmmV99Bj21XailXZ0jJyqOeNMdbl7Tc+RT3PjJ+kL/q5qPcrYQslbjgEFN95RMBgycP1ghUPQOijEF588cVKEGJhIc4LQFGjrAZcdLg6iBPjys5SWxMp6+aW0rtRXQdKIicB2W1jHUApRSCykLNg8VkSXJIITZTTIJYvlGNciZxu1ECMl8ZNp6XS1avf4JiqY5IX+jldyPH40uQ1PgOE+05vgvhiAa40wMlPXjjytQAsJfzgLw0oRLgRARRKbTXR+VxRBOBZ8IhXD3z7wAMPRDdhKJCaLzmEwGddtMUfaykKWl7BSVsUmqDz2I+2Zr9x0/OJI5RjDsAxV+krssAJ4GPOW5OfnWXz69mvX06eCToX/XDV391ExmpLLeX56gYbc61YchjLCSZ99PdznZth+B8ZS9wk3h6UV8aAZzdvE204+cLZbqLPfrKf0CfoiwcCAGcs8wBzmkNUfEcWAH/c8yih8fqtXnD5c8OAnHh+sjjl3e/qCvLQPTmH6SL6eAzgwiZu8olnIpvLi3K+a2wWKBf5vNCED6tElNIMqX7sWqVAnnhCztJbPr2EfPpuFWXh5AQ4QAzlvXfkPrhn1mnviy4FUB5NK6X5bN4XxR6WiOxwYyL3UdQcSb79wrpCYP2RRx7pW45MguyxQjgtNW4vUo7yQcq6va/TwI04PO2GJO6SPoapF3cRCgPuc4RUQUPYMQE/Z7+9cE6FMfHCLS/pYfgS9x784XVgIC94JPtdvuMHnm7uTSyVWNL1pi5o22H5KwzPhKEtc4y5aiqNQftQ0OXC9CvoXCzoPri1h9LGGCRLaQzLW+DkJ/uxqBJe5Sa/eY9Dk1j0w+CfCI5utAuShoWyapWSEfxyl+bzQZwkL1vWobEaRcHVVEaMLHtbRCjgVBrNZ/Pe7I5XulkmyH0y63HTExO2UGrkmbhBlEnK62B4/a7flUUzGQu806Wlg+X92nbmoWzomChnXqo+O/vthWcqjIkXbnlJD8OXXqea89J+fr3rtpDqtnDn8stvCMMzYWiLm7KoQJh+BZ2LqdB3HXNemLj4yX4da+uGn997buWdacQu1m2UYyV05hXGM6fC/90/58sThdG+bdNSICwF8qxQhm3QlrcUsBSwFLAUsBRINQrUiRye2b+1ZqqhZfEpZhTAwoylUIP5XNStz1ah1KNqr5YClgKWApYClgKWApYC+UwBp+LofM7n5vOtepdIjnxry1ZsKWApYClgKWApYClgKWApUAwpYBXKYjiotkuWApYClgKWApYClgKWAgVJAddT3gWJgG3LUsBSwFLAUsBSwFLAUsBSIP8pkAz3OjGggU95uxXM/27aFrwoUJCftfDCwaYXXwpY/iq+Y1vYPSsKvFUUcNTjCK7JUAh0ffZ6cFHAPAyUHz23Lu/8oKqt01LAUsBSwFLAUsBSwFLgIKKAVSgPosG2XbUUsBSwFLAUsBSwFCjaFMDSmN/WxkQoZD8blAjV7DuWApYClgKWApYClgKWAoVAAR32oJVK/VwIqMQ0aS2UMeSwD5YClgKWApYClgKWApYCqU8BFEl+WrEsbIytQlnYI2DbtxSwFLAUsBSwFLAUsBRIkAJaqSxsxTKwy3v79u0ybdo0ad26dUyXt23bJj/99JM0aNBAateuHZPnfFizZo0sWrRImjRpIn7/k1i/R71HH310rv+jPX/+fPnrr79UPbqsvv7555+ybNkyOfPMM4X/we0Hc+bMkR07dqh6ypUrFy3KKfcXXnhBrrnmGtHpzv5nZmbKkiVLou/oG/7PMbQoCHDipNvMysqSH3/8USpXriwnnXSS8H+tvaCojIkX/n7pXvTJD57du3evmgdHHXVUrnmwYMGCmE8sVKhQIVrGL8/Zt4Jow2xzxYoVAg0bN25sJksYnvGaYzEV/v3gNV5+/c7Ozla8Xrdu3VxyIkwbbmXjpXnJp6D0CTNPd+7cqeQvspN5rWHTpk2ybl3s/5+uU6eO8H+td+/eLYyhCfy/9KpVq5pJ0ftE2oi+HLlBLnMKuWHDhmZyrntk59SpU9V4HXfcceods5CbfCdt3759ZjF1f8IJJ0TlPHKf/jZr1kyc/2vdL8+sNCtrv3z97Z5oEkvIYZVLymmNS0fkaE7y1m37ZNr0LGl9TtloWvQF42bCpExpckppqVolt/z9eUaWVDm8pNSrU8p4w95aCiROAe321kqlfk68xvBv5uZ0lzoQ6L169ZJbbrklJvett96SQw89VLp16yYIsWHDhsXkmw/XX3+91KpVS7p27SqHH3543E8fIHDOOOMM+fnnn6PVLF26VI4//nilLLZr107q16+vFnFdoGfPnkpIgSsL+zfffKOzYq67du2SU045Rf0gPvcoohoQXo899lhUmXTrP2UaNWqU63fxxRfravL16oYTDYJXlSpV5IorrlCKwFVXXSWUdYOiNCZu+PuledEnP3j2o48+Ujx95ZVXqnnQokUL2bJli0Jv8+bNcuKJJyrFHuWe37XXXhs3z9m3gmjDbHPDhg3SqlUrGTVqlJksQXkm3hyLqTTy4DVefv3WSgnznvnepUsXZ7Uxz15txBQK+OAmn3g1KH3CzNP7779fDjnkEFU3G3Ha0PDoo4/G8Bb8hRIPTJw4MVfeq6++ql+NuSbahq7kjz/+UHJ55MiROsn1+tlnn0m1atXkuuuuE5RBZLWWT37ynX65yVsUamDgwIFy7LHHyo033qjWpBEjRkTb98uLFvr7Ztv2/dKu0ybp0muz9LouQ9p02CT/OHuDNGq+Xub8mqVKLV2eLW07bpK/Mvc7X495psysuTnvxGREHgYN3iZjxu1yJttnS4E8UwBFsjCUSRCPq1Ai+Fq2bCkffPBBTEfXr18vN9xwgyCg2CG/8cYbcvPNN8coZvoFBNuLL74o8+bNk9WrV6v3+vXrp7NjrgiXJ5980jUm4Nlnn1VK5MaNG+X333+Xs846Syl+VIBF7s0331RWQ3ajKFIPPfRQTN36AWURoB5wR8EdMmSIzlaC+JJLLlHPXv1HCcUCoH+zZs1S5QcNGhStJ79uvHCiPayq9P23336T2bNny5dffimffvppLlSK2pjk6oBPghd98oNnsZrceeed6gdvY2VjczJ69GiF4dy5c9UVq6jmlY8//jhuntm9gmjDbI9F/+STT1aWSDM9DM/Em2NmvV7jFa/fzG/mKYoIVsH33ntPvvvuO7Pq6L1XG9ECAW/85FMY+gSdp/SLfk6ePFl5d+AnZClzG/jll1/kP//5T5S34DEsdAAyqU2bNjF5AwYMUHnmn7y0QT2MU+/evRXvm/U677HIskbcddddqi+MCTIbzxfgJ9/xSOn5wyatXr16StZVr15dGRUef/xx+eGHH1S9r732mtx+++3CpgYrsleeEz/z+ZOxVWTd0hqyb0tNWTa7uqSVKiGde2bIrt37pfFJabJ6fnVJL1fCfCXX/ZoF1aVl8zK50m2CpUAyKKAtkWZdbmlmfn7fx1Uo2QHjwh08eHAMLjNmzFDPPXr0UNfu3bsL7hSEqhMmTZokHTt2VLtlXMK33nqrsqQtX77cWVQphAiW8ePHS8WKFWPycY/cd999UqZMGeXmwK2t28OiAmhXOhYLBJYboGT17dtXWfLAGeVWKwCU/+KLL6Rt27bqVa/+40bGHc4P1zo7biwk0CG/wQsnlBkUaywY0AhX5WWXXSaffPJJLpSK2pjk6oBPghd98oNnsUQy5vAT7j4sSaeddpp8++23CkMUAB1+sXLlSilVqpQaGzL98szuFUQbZnvwMgt/586dzWQJwzPx5phZsdd4xes3ijvWeOjOvEdeuMkU2vJqw8QjyD1hLl7yKSh9wsxTlCdwP/vssxV6WPXoJxYIFDkUTRTItWvXKoUOeaRDXGbOnKl4j7Ae8pG9bmFAeWkDpIYPH642UR06dPAlIfi+9NJLctNNN6ly4AOw2QL85DtltbxFQQSefvppdUUphVeZZ7jtmY8YL3jHL0+9HOdPhLWUW3rcm4fJ4qV75cuJmbJsRbZ065Mhe/bsl343b5EXX90ZrWX9hn3Sou1GWbJsr/S8dovMnpdjoVy9JjvynCG1Gq6THv0yZMPGA+77jZv2SZ/+W1Re01YbZOTruyIhMtEq7Y2lQGAKIBcKU6mMq1CyG8b6iOJlAtYY4pa0gEKoo3ji+nACcS2U1YCyByDknEAdWBhRQJ3Qv39/JTRIZ8f68ssvC65v4Pzzz1f3CFdcj+yCtZVEFTD+LFy4UI455phoCq54rFfEYyGQvvrqq6gA9+p/9OXIDfRBkXv++efN5Hy798IJqyRg9g26Y811QlEaEyfu8Z696JMfPIt1G6s0lhIAur7//vuKH3lmUf/1119VPrFlxATrMA6/PN7VUBBt6La4gu8999wjpUuXNpNV34LOY785FlNp5MFrvOL1m/mNMkN4x+mnn67kz6WXXuqsXj17teFa2CfRTz4FnVNh5imbQly2GuAtFFK8RisjGxSAkCPGBRmN1wjFDWBxQYHDxUw+7+iNtyrw95+8tAGv3H333WpDnp6eblab6x4Fjxh8wqQefPBBJa+xoJ5zzjmqrJ9815XBVyiUyFptcFi1apXKbtq0qdrQ0VfGgs2bX56uM8j12HppUvGQErJgUZbs3LVfvp+6R7IjZG54fJoMeXZHVAEc99FuWbU6W+rXTZNJ32UKLnQijjp23Sy/rdknI4ZVjmwoS8iM2TmKJorj5d03y5yI4vnyfytLty7p0jeipI4dvzsIWrbMQU4BlEfnD5IUllIZV6HkAIEbIJj0hNb5WGf0blOncUVZM8tqwcPO2QkoqFjX/ABXBm5dFFK9S0VZwOLDLlbvfLXgNuvCZYVANvsF3gAule+//14JXh34bpYz6zHvEW5YdbyC3c2yybj3wknHE5n53GOBcEJRGhMTd8Zvz5496ocLzQ3M/pv5+cWzug0WLxZMFklcmgCWM+LEcCti3SIGGN7l4Jdfnq7TeS2INpwHGjQOQXkm3hzT9emr13jpfK5u/SZGmrnMfEdusMl0U5h4P0gblNO8xZV+fLhXgwAACjVJREFUOMFPPgWlT5h5arb/9ddfK955+OGHVTzh1q1b5bzzzpOxY8cq2YWrFwV7zJgxihYoWMRGQpcpU6ao2Eo2Cn4Qpg0O1xATj3JIiERQgK7IJGQ14+o83Ogm33Xd9BF39wUXXKCT1IaZcAfc7oQCEMOMYg2wmfbKi1YQ4AZLZYP6abJu/QHLIq9d1Sldlq/MjhzSyTnIM2r0Lrm+T4WYwzoooSiQQwZXkgtbl5XhQw+NtjhvfpZSTgcOqKgO8HTrUl66dk6XEaNsfGWUSPbGkwJsGr1+ni/lY4b/MWifhlGeMjIyYkogJLT10cygrKloYgUEatSoYRYLdE+bxE3h7iI+pmbNmuo9rJVYNIgbwlqKcDn33HOVwCNYWwMLAsotC5EGcCMNxXLChAnSvn17nRX3ihuVn1ewe9wKkliA/gP0DWENsOjUqVNH3Zt/itKYmHgzrrixAMbM5CuznNt9fvIsByFQJJs3b64WdPgMIB5YA4oasV2EIaBg+uVhNXdCQbThbNN8Dsoz8eaYWWeQe7d+o7wR9/zhhx+KdrVyiAirJUpHoqC9FbyP4o9yFhSC0ifMPNVtE5KDKxf3t7ZYElqBAqjhX//6l6IJyiNWy88//1xnKYtFnz59hENOXhC2DcILsAQix1FqsZgibwhDcn4NxGwT/iBsAMCjxDzAywN4yXfyUIxRmKGBduuTTtgD7m4O5ACPPPKIUjrxAPjlQb8wgBsbZc+EI2uUkg7ty0UO2OyWyoeWFE5vv/dGjhzW5TjEA5zaKMfiXyZioWxzbo67H1c40ClipTThuGMTXprNauy9pUCBUiCuhdILG1x3xChi1QOwFuGOcPt0EC4IM55R70hN16xXO2Y6iwjuEawHBGCbbREzQ5wRyiSghQUB+07AbcXnizRwTxqAwPUThvodfWVB41MeHNL5/+2dT2hcRRzHp4pE47HUEkGr4EGKSg5BUejRgx6Taz2koAfBQySe9BCKB4kmhDSeShBEYyg5iHjy5EE8BUQEpXiogoiepKQqIlLfZ5bfdvbtm9k3+7bZ3b7vwGZ338zOzPvMn/eb3+83k3EHE66NL/XBJMWKvhymqU3CumNepu15hQ/TME3s8+3qs2wqQCuCYHNwcOBMA48Wkod/eNoAWnkEYcyTsTgzn4f3cRxlhOVVfc7pM6kxVpV37Frsvq2PI8BbwMxDf28S2JBk/Su2qS+Wf10+OeOUsjBbI0zu7u52hUmuY01ZXV3tmrjpbyyw0ILjeoQJOXR3oe+xW7oqDFMG5eHTiZVoY2PDs0eYNeGwXA51Ykd+6BY1Pz/vNxCSNjW/E0/eLJbRioaBBTOCowVz1UCDmoqz9HXe8Z08unHTPft0v/XswvlZ98FHf7mPr/ztBcUzD93dk+WZhzvfr/54S+P9w9XOZ44OInz79Sl38/qD/nXtu9Pus/1eobQnQ30RgYIAmslJC0MLlPgs8lDEhILpmQc9D1IerAQeora7mAkAv0QmGkwc/AYto5mVOcqF3YqDAmZlVsT40GDiPjw89C9+h6DJESdoM5h0SEP9qCerZo6RsIkMLdfOzo5vEB5YW1tbfsJmxY3JjEmubqA8jjeahIAJdWlpybcFnPb3972AvLi46Ks3jW1S5oqggjaCF35zOWFUfTbsTzyk8dvDD42NOWjI6ZcsUljcsOBiExruFyyq0Myg+cJMG4vD5eM4yshhR9qccRwbY+TDwpPxaL5+XKsKKbYIRgjmjHM4mpXATo+oW0a53IWFhW7/skVmOU3se4pP2J6DxmlYd7RszHsrKyu+j9mcx1yGAIsgB0vmPFxv0Hzjf47WkE1CmLwpG60h8wH+5YRwLhi2DDZIYiWyF5YdxkBMoJybm/Mm6bW1NS/4snGNuptmMTW/U2fObGVxDL8w4FLCQoDNhwjU9An6BvN4Ki7Mo/z5+8JMffjNv+7Lr/5x71/+0x8j9MLzM+65Z/oFSszYhLffPXIXXpotZ+XOFn6WD5y6y7136YZj0w5m8V9+7Wgmn3riHh938Z0jf+3az/+5c8Wmng8/kcm7D6Qu1CYwLh/KofXqmFQxPeIQzwqVHXp7e3ve4Zq7ZlJB6ONcRh62mCkY3AScw0lrATMgZ1zi8xMLTKB2dBF+Q2FAO0oebOYxTSETCmYYVqsIiTxoWNGjHVheXvbHi5jwy051VvOYyjBH4sxdN+C3ialzUsL6+rp/oDDxwmBzc7N7jMg0tskouY6qz4b9CdcLNCu87LgW6kwfRYPK5jCOpzJtPH0FHzhCKu44yvCVSPwJzYokyxnHsTFGPmxgYzySplwG8RY4bSHFFmsCGi/6OIGdvqa9qluGlTWK9xSfsD2Zg1LjNKy7nevIHGv+4tSVUzdYmDNnYfpHGGO8890sNwhrCG+2cGdhY2d1hnNBkzJCbrRlau5kgYVrEsoHNuYQ6AfMuYPmd8zkCJRmeQrL5eG5vb3tF3ZcxxLB2GO8p+LCPMqfX339evcSh4+/sny/u/hm59SR4jZ6AiZs/CbXt4rF5Yu3/kGGJbq3OF7oi09PFkLpH+70Y795AfLs451H7+x9J9znV0668y93doDzG8zqb73Re8KJ5aV3ETACJjROkqbyRGG26DmggEFfumT1r3xHy8BZjqw+BwVMEDhcl1eYg36XE0/+HDfCCj31sCJPVrNMVPxXCQI+oNz/7ayfLyjzT26bkD1tghmI+0uFSW+TVN2HjRtHn0WLhquGPUjDuqfiwnSDPqfyScXl9q+cPlMeY4PuITeeuQqhE//nuhtvcsvITZ/Dp+44HVQHBFbGe9Wch18ic5xtVhyUVyw+VUbsN7G+xSKLOtncG/t9znU2+1DHqmdRKi5Wx5yy66ZFQ8l/zilk777A8UHsJJ+ZKUmsQUrqOkkCRFA1fRwTgSrBkmtV/SR2Pbfq5FMlJzYWKHMrovT5BI5zwsuvnX4x7QTUv6a9BSe3/tPQt6yOPxXH/Tz65O8TA5Nd4auvdU4gsUpR1ypBweL13l4CoWAZExxj13OpxQTKtPoqtxSlFwEREAEREIEpJPBIsXmGjTEKIjCNBGyhYYLlOO5BAuU4qKtMERABERABERABERgxARMsR5xtrewqPDlq/U6JREAEREAEREAEREAERMATkECpjiACIiACIiACIiACItCIQOWmnEY56sciIAIiIAIiIAIiIAJ3LIGqXd59PpRVie5YIroxERABERABERABERCBxgRk8m6MUBmIgAiIgAiIgAiIQLsJSKBsd/vr7kVABERABERABESgMQEJlI0RKgMREAEREAEREAERaDcBCZTtbn/dvQiIgAiIgAiIgAg0JiCBsjFCZSACIiACIiACIiAC7SYggbLd7a+7FwEREAEREAEREIHGBCRQNkaoDERABERABERABESg3QQkULa7/XX3IiACIiACIiACItCYgATKxgiVgQiIgAiIgAiIgAi0m4AEyna3v+5eBERABERABERABBoT+B9YIxdwuiIQXgAAAABJRU5ErkJggg==;fontSize=10;" vertex="1" parent="1">
          <mxGeometry x="15" y="680" width="660" height="409" as="geometry" />
        </mxCell>
        <mxCell id="Fm_4-P_1yy4wfb5h5vrD-22" value="" style="rounded=0;whiteSpace=wrap;html=1;fillColor=none;strokeWidth=5;strokeColor=#B266FF;fontSize=10;" vertex="1" parent="1">
          <mxGeometry x="16" y="710" width="700" height="20" as="geometry" />
        </mxCell>
        <mxCell id="Fm_4-P_1yy4wfb5h5vrD-23" value="" style="rounded=0;whiteSpace=wrap;html=1;fillColor=none;strokeWidth=5;strokeColor=#B266FF;fontSize=10;" vertex="1" parent="1">
          <mxGeometry x="16" y="802" width="700" height="20" as="geometry" />
        </mxCell>
        <mxCell id="Fm_4-P_1yy4wfb5h5vrD-24" value="" style="rounded=0;whiteSpace=wrap;html=1;fillColor=none;strokeWidth=5;strokeColor=#B266FF;fontSize=10;" vertex="1" parent="1">
          <mxGeometry x="17" y="894" width="700" height="20" as="geometry" />
        </mxCell>
        <mxCell id="Fm_4-P_1yy4wfb5h5vrD-42" value="" style="edgeStyle=orthogonalEdgeStyle;rounded=0;orthogonalLoop=1;jettySize=auto;html=1;fontSize=10;" edge="1" parent="1" source="Fm_4-P_1yy4wfb5h5vrD-40" target="Fm_4-P_1yy4wfb5h5vrD-41">
          <mxGeometry relative="1" as="geometry" />
        </mxCell>
        <mxCell id="Fm_4-P_1yy4wfb5h5vrD-40" value="Public RT" style="sketch=0;outlineConnect=0;fontColor=#232F3E;gradientColor=none;fillColor=#8C4FFF;strokeColor=none;dashed=0;verticalLabelPosition=bottom;verticalAlign=top;align=center;html=1;fontSize=10;fontStyle=0;aspect=fixed;pointerEvents=1;shape=mxgraph.aws4.route_table;" vertex="1" parent="1">
          <mxGeometry x="880" y="120" width="30.79" height="30" as="geometry" />
        </mxCell>
        <mxCell id="Fm_4-P_1yy4wfb5h5vrD-41" value="10.0.0.0/16 local&lt;div style=&quot;font-size: 10px;&quot;&gt;0.0.0.0/0 IGW&lt;/div&gt;" style="whiteSpace=wrap;html=1;verticalAlign=top;sketch=0;dashed=0;fontStyle=0;pointerEvents=1;fontSize=10;" vertex="1" parent="1">
          <mxGeometry x="990.005" y="105" width="120" height="60" as="geometry" />
        </mxCell>
        <mxCell id="Fm_4-P_1yy4wfb5h5vrD-49" style="edgeStyle=orthogonalEdgeStyle;rounded=0;orthogonalLoop=1;jettySize=auto;html=1;entryX=0;entryY=0.5;entryDx=0;entryDy=0;fontSize=10;" edge="1" parent="1" source="Fm_4-P_1yy4wfb5h5vrD-43" target="Fm_4-P_1yy4wfb5h5vrD-44">
          <mxGeometry relative="1" as="geometry" />
        </mxCell>
        <mxCell id="Fm_4-P_1yy4wfb5h5vrD-43" value="Private RT" style="sketch=0;outlineConnect=0;fontColor=#232F3E;gradientColor=none;fillColor=#8C4FFF;strokeColor=none;dashed=0;verticalLabelPosition=bottom;verticalAlign=top;align=center;html=1;fontSize=10;fontStyle=0;aspect=fixed;pointerEvents=1;shape=mxgraph.aws4.route_table;" vertex="1" parent="1">
          <mxGeometry x="880" y="295" width="30.79" height="30" as="geometry" />
        </mxCell>
        <mxCell id="Fm_4-P_1yy4wfb5h5vrD-44" value="10.0.0.0/16 local&lt;div style=&quot;font-size: 10px;&quot;&gt;0.0.0.0/0 NAT&lt;/div&gt;" style="whiteSpace=wrap;html=1;verticalAlign=top;sketch=0;dashed=0;fontStyle=0;pointerEvents=1;fontSize=10;" vertex="1" parent="1">
          <mxGeometry x="990.005" y="280" width="120" height="60" as="geometry" />
        </mxCell>
        <mxCell id="Fm_4-P_1yy4wfb5h5vrD-67" value="&lt;div style=&quot;font-size: 10px; text-align: left;&quot;&gt;&lt;span style=&quot;background-color: initial; font-size: 10px;&quot;&gt;&lt;br style=&quot;font-size: 10px;&quot;&gt;&lt;/span&gt;&lt;/div&gt;" style="fontStyle=0;verticalAlign=top;align=center;spacingTop=-2;fillColor=none;rounded=0;whiteSpace=wrap;html=1;strokeColor=#FF0000;strokeWidth=2;dashed=1;container=1;collapsible=0;expand=0;recursiveResize=0;fontSize=10;" vertex="1" parent="1">
          <mxGeometry x="850" y="405" width="450" height="395" as="geometry" />
        </mxCell>
        <mxCell id="5yfhdWzZeoEwGh_z6bRw-147" value="Security Group InBound Rules" style="text;strokeColor=none;fillColor=none;align=left;verticalAlign=middle;spacingLeft=4;spacingRight=4;overflow=hidden;points=[[0,0.5],[1,0.5]];portConstraint=eastwest;rotatable=0;whiteSpace=wrap;html=1;" vertex="1" parent="Fm_4-P_1yy4wfb5h5vrD-67">
          <mxGeometry width="200" height="30" as="geometry" />
        </mxCell>
        <mxCell id="5yfhdWzZeoEwGh_z6bRw-98" value="" style="shape=table;startSize=0;container=1;collapsible=0;childLayout=tableLayout;fontSize=10;" vertex="1" parent="Fm_4-P_1yy4wfb5h5vrD-67">
          <mxGeometry x="30" y="35" width="390" height="320" as="geometry" />
        </mxCell>
        <mxCell id="5yfhdWzZeoEwGh_z6bRw-99" value="" style="shape=tableRow;horizontal=0;startSize=0;swimlaneHead=0;swimlaneBody=0;strokeColor=inherit;top=0;left=0;bottom=0;right=0;collapsible=0;dropTarget=0;fillColor=none;points=[[0,0.5],[1,0.5]];portConstraint=eastwest;fontSize=10;" vertex="1" parent="5yfhdWzZeoEwGh_z6bRw-98">
          <mxGeometry width="390" height="40" as="geometry" />
        </mxCell>
        <mxCell id="5yfhdWzZeoEwGh_z6bRw-139" style="shape=partialRectangle;html=1;whiteSpace=wrap;connectable=0;strokeColor=inherit;overflow=hidden;fillColor=none;top=0;left=0;bottom=0;right=0;pointerEvents=1;fontSize=10;" vertex="1" parent="5yfhdWzZeoEwGh_z6bRw-99">
          <mxGeometry width="80" height="40" as="geometry">
            <mxRectangle width="80" height="40" as="alternateBounds" />
          </mxGeometry>
        </mxCell>
        <mxCell id="5yfhdWzZeoEwGh_z6bRw-131" value="Source&lt;span style=&quot;white-space: pre;&quot;&gt;&#x9;&lt;/span&gt;" style="shape=partialRectangle;html=1;whiteSpace=wrap;connectable=0;strokeColor=inherit;overflow=hidden;fillColor=none;top=0;left=0;bottom=0;right=0;pointerEvents=1;fontSize=10;" vertex="1" parent="5yfhdWzZeoEwGh_z6bRw-99">
          <mxGeometry x="80" width="76" height="40" as="geometry">
            <mxRectangle width="76" height="40" as="alternateBounds" />
          </mxGeometry>
        </mxCell>
        <mxCell id="5yfhdWzZeoEwGh_z6bRw-100" value="Protocol" style="shape=partialRectangle;html=1;whiteSpace=wrap;connectable=0;strokeColor=inherit;overflow=hidden;fillColor=none;top=0;left=0;bottom=0;right=0;pointerEvents=1;fontSize=10;" vertex="1" parent="5yfhdWzZeoEwGh_z6bRw-99">
          <mxGeometry x="156" width="78" height="40" as="geometry">
            <mxRectangle width="78" height="40" as="alternateBounds" />
          </mxGeometry>
        </mxCell>
        <mxCell id="5yfhdWzZeoEwGh_z6bRw-101" value="Port" style="shape=partialRectangle;html=1;whiteSpace=wrap;connectable=0;strokeColor=inherit;overflow=hidden;fillColor=none;top=0;left=0;bottom=0;right=0;pointerEvents=1;fontSize=10;" vertex="1" parent="5yfhdWzZeoEwGh_z6bRw-99">
          <mxGeometry x="234" width="78" height="40" as="geometry">
            <mxRectangle width="78" height="40" as="alternateBounds" />
          </mxGeometry>
        </mxCell>
        <mxCell id="5yfhdWzZeoEwGh_z6bRw-102" value="" style="shape=partialRectangle;html=1;whiteSpace=wrap;connectable=0;strokeColor=inherit;overflow=hidden;fillColor=none;top=0;left=0;bottom=0;right=0;pointerEvents=1;fontSize=10;" vertex="1" parent="5yfhdWzZeoEwGh_z6bRw-99">
          <mxGeometry x="312" width="78" height="40" as="geometry">
            <mxRectangle width="78" height="40" as="alternateBounds" />
          </mxGeometry>
        </mxCell>
        <mxCell id="5yfhdWzZeoEwGh_z6bRw-103" value="" style="shape=tableRow;horizontal=0;startSize=0;swimlaneHead=0;swimlaneBody=0;strokeColor=inherit;top=0;left=0;bottom=0;right=0;collapsible=0;dropTarget=0;fillColor=none;points=[[0,0.5],[1,0.5]];portConstraint=eastwest;fontSize=10;" vertex="1" parent="5yfhdWzZeoEwGh_z6bRw-98">
          <mxGeometry y="40" width="390" height="40" as="geometry" />
        </mxCell>
        <mxCell id="5yfhdWzZeoEwGh_z6bRw-140" value="SG-Public" style="shape=partialRectangle;html=1;whiteSpace=wrap;connectable=0;strokeColor=inherit;overflow=hidden;fillColor=none;top=0;left=0;bottom=0;right=0;pointerEvents=1;fontSize=10;" vertex="1" parent="5yfhdWzZeoEwGh_z6bRw-103">
          <mxGeometry width="80" height="40" as="geometry">
            <mxRectangle width="80" height="40" as="alternateBounds" />
          </mxGeometry>
        </mxCell>
        <mxCell id="5yfhdWzZeoEwGh_z6bRw-132" value="0.0.0.0/0" style="shape=partialRectangle;html=1;whiteSpace=wrap;connectable=0;strokeColor=inherit;overflow=hidden;fillColor=none;top=0;left=0;bottom=0;right=0;pointerEvents=1;fontSize=10;" vertex="1" parent="5yfhdWzZeoEwGh_z6bRw-103">
          <mxGeometry x="80" width="76" height="40" as="geometry">
            <mxRectangle width="76" height="40" as="alternateBounds" />
          </mxGeometry>
        </mxCell>
        <mxCell id="5yfhdWzZeoEwGh_z6bRw-104" value="TCP" style="shape=partialRectangle;html=1;whiteSpace=wrap;connectable=0;strokeColor=inherit;overflow=hidden;fillColor=none;top=0;left=0;bottom=0;right=0;pointerEvents=1;fontSize=10;" vertex="1" parent="5yfhdWzZeoEwGh_z6bRw-103">
          <mxGeometry x="156" width="78" height="40" as="geometry">
            <mxRectangle width="78" height="40" as="alternateBounds" />
          </mxGeometry>
        </mxCell>
        <mxCell id="5yfhdWzZeoEwGh_z6bRw-105" value="22" style="shape=partialRectangle;html=1;whiteSpace=wrap;connectable=0;strokeColor=inherit;overflow=hidden;fillColor=none;top=0;left=0;bottom=0;right=0;pointerEvents=1;fontSize=10;" vertex="1" parent="5yfhdWzZeoEwGh_z6bRw-103">
          <mxGeometry x="234" width="78" height="40" as="geometry">
            <mxRectangle width="78" height="40" as="alternateBounds" />
          </mxGeometry>
        </mxCell>
        <mxCell id="5yfhdWzZeoEwGh_z6bRw-106" value="ssh" style="shape=partialRectangle;html=1;whiteSpace=wrap;connectable=0;strokeColor=inherit;overflow=hidden;fillColor=none;top=0;left=0;bottom=0;right=0;pointerEvents=1;fontSize=10;" vertex="1" parent="5yfhdWzZeoEwGh_z6bRw-103">
          <mxGeometry x="312" width="78" height="40" as="geometry">
            <mxRectangle width="78" height="40" as="alternateBounds" />
          </mxGeometry>
        </mxCell>
        <mxCell id="5yfhdWzZeoEwGh_z6bRw-111" style="shape=tableRow;horizontal=0;startSize=0;swimlaneHead=0;swimlaneBody=0;strokeColor=inherit;top=0;left=0;bottom=0;right=0;collapsible=0;dropTarget=0;fillColor=none;points=[[0,0.5],[1,0.5]];portConstraint=eastwest;fontSize=10;" vertex="1" parent="5yfhdWzZeoEwGh_z6bRw-98">
          <mxGeometry y="80" width="390" height="40" as="geometry" />
        </mxCell>
        <mxCell id="5yfhdWzZeoEwGh_z6bRw-142" style="shape=partialRectangle;html=1;whiteSpace=wrap;connectable=0;strokeColor=inherit;overflow=hidden;fillColor=none;top=0;left=0;bottom=0;right=0;pointerEvents=1;fontSize=10;" vertex="1" parent="5yfhdWzZeoEwGh_z6bRw-111">
          <mxGeometry width="80" height="40" as="geometry">
            <mxRectangle width="80" height="40" as="alternateBounds" />
          </mxGeometry>
        </mxCell>
        <mxCell id="5yfhdWzZeoEwGh_z6bRw-134" style="shape=partialRectangle;html=1;whiteSpace=wrap;connectable=0;strokeColor=inherit;overflow=hidden;fillColor=none;top=0;left=0;bottom=0;right=0;pointerEvents=1;fontSize=10;" vertex="1" parent="5yfhdWzZeoEwGh_z6bRw-111">
          <mxGeometry x="80" width="76" height="40" as="geometry">
            <mxRectangle width="76" height="40" as="alternateBounds" />
          </mxGeometry>
        </mxCell>
        <mxCell id="5yfhdWzZeoEwGh_z6bRw-112" style="shape=partialRectangle;html=1;whiteSpace=wrap;connectable=0;strokeColor=inherit;overflow=hidden;fillColor=none;top=0;left=0;bottom=0;right=0;pointerEvents=1;fontSize=10;" vertex="1" parent="5yfhdWzZeoEwGh_z6bRw-111">
          <mxGeometry x="156" width="78" height="40" as="geometry">
            <mxRectangle width="78" height="40" as="alternateBounds" />
          </mxGeometry>
        </mxCell>
        <mxCell id="5yfhdWzZeoEwGh_z6bRw-113" style="shape=partialRectangle;html=1;whiteSpace=wrap;connectable=0;strokeColor=inherit;overflow=hidden;fillColor=none;top=0;left=0;bottom=0;right=0;pointerEvents=1;fontSize=10;" vertex="1" parent="5yfhdWzZeoEwGh_z6bRw-111">
          <mxGeometry x="234" width="78" height="40" as="geometry">
            <mxRectangle width="78" height="40" as="alternateBounds" />
          </mxGeometry>
        </mxCell>
        <mxCell id="5yfhdWzZeoEwGh_z6bRw-114" style="shape=partialRectangle;html=1;whiteSpace=wrap;connectable=0;strokeColor=inherit;overflow=hidden;fillColor=none;top=0;left=0;bottom=0;right=0;pointerEvents=1;fontSize=10;" vertex="1" parent="5yfhdWzZeoEwGh_z6bRw-111">
          <mxGeometry x="312" width="78" height="40" as="geometry">
            <mxRectangle width="78" height="40" as="alternateBounds" />
          </mxGeometry>
        </mxCell>
        <mxCell id="5yfhdWzZeoEwGh_z6bRw-115" style="shape=tableRow;horizontal=0;startSize=0;swimlaneHead=0;swimlaneBody=0;strokeColor=inherit;top=0;left=0;bottom=0;right=0;collapsible=0;dropTarget=0;fillColor=none;points=[[0,0.5],[1,0.5]];portConstraint=eastwest;fontSize=10;" vertex="1" parent="5yfhdWzZeoEwGh_z6bRw-98">
          <mxGeometry y="120" width="390" height="40" as="geometry" />
        </mxCell>
        <mxCell id="5yfhdWzZeoEwGh_z6bRw-143" value="SG-App" style="shape=partialRectangle;html=1;whiteSpace=wrap;connectable=0;strokeColor=inherit;overflow=hidden;fillColor=none;top=0;left=0;bottom=0;right=0;pointerEvents=1;fontSize=10;" vertex="1" parent="5yfhdWzZeoEwGh_z6bRw-115">
          <mxGeometry width="80" height="40" as="geometry">
            <mxRectangle width="80" height="40" as="alternateBounds" />
          </mxGeometry>
        </mxCell>
        <mxCell id="5yfhdWzZeoEwGh_z6bRw-135" value="10.0.0.0/24" style="shape=partialRectangle;html=1;whiteSpace=wrap;connectable=0;strokeColor=inherit;overflow=hidden;fillColor=none;top=0;left=0;bottom=0;right=0;pointerEvents=1;fontSize=10;" vertex="1" parent="5yfhdWzZeoEwGh_z6bRw-115">
          <mxGeometry x="80" width="76" height="40" as="geometry">
            <mxRectangle width="76" height="40" as="alternateBounds" />
          </mxGeometry>
        </mxCell>
        <mxCell id="5yfhdWzZeoEwGh_z6bRw-116" value="ICMP" style="shape=partialRectangle;html=1;whiteSpace=wrap;connectable=0;strokeColor=inherit;overflow=hidden;fillColor=none;top=0;left=0;bottom=0;right=0;pointerEvents=1;fontSize=10;" vertex="1" parent="5yfhdWzZeoEwGh_z6bRw-115">
          <mxGeometry x="156" width="78" height="40" as="geometry">
            <mxRectangle width="78" height="40" as="alternateBounds" />
          </mxGeometry>
        </mxCell>
        <mxCell id="5yfhdWzZeoEwGh_z6bRw-117" value="*" style="shape=partialRectangle;html=1;whiteSpace=wrap;connectable=0;strokeColor=inherit;overflow=hidden;fillColor=none;top=0;left=0;bottom=0;right=0;pointerEvents=1;fontSize=10;" vertex="1" parent="5yfhdWzZeoEwGh_z6bRw-115">
          <mxGeometry x="234" width="78" height="40" as="geometry">
            <mxRectangle width="78" height="40" as="alternateBounds" />
          </mxGeometry>
        </mxCell>
        <mxCell id="5yfhdWzZeoEwGh_z6bRw-118" value="ping" style="shape=partialRectangle;html=1;whiteSpace=wrap;connectable=0;strokeColor=inherit;overflow=hidden;fillColor=none;top=0;left=0;bottom=0;right=0;pointerEvents=1;fontSize=10;" vertex="1" parent="5yfhdWzZeoEwGh_z6bRw-115">
          <mxGeometry x="312" width="78" height="40" as="geometry">
            <mxRectangle width="78" height="40" as="alternateBounds" />
          </mxGeometry>
        </mxCell>
        <mxCell id="5yfhdWzZeoEwGh_z6bRw-119" style="shape=tableRow;horizontal=0;startSize=0;swimlaneHead=0;swimlaneBody=0;strokeColor=inherit;top=0;left=0;bottom=0;right=0;collapsible=0;dropTarget=0;fillColor=none;points=[[0,0.5],[1,0.5]];portConstraint=eastwest;fontSize=10;" vertex="1" parent="5yfhdWzZeoEwGh_z6bRw-98">
          <mxGeometry y="160" width="390" height="40" as="geometry" />
        </mxCell>
        <mxCell id="5yfhdWzZeoEwGh_z6bRw-144" style="shape=partialRectangle;html=1;whiteSpace=wrap;connectable=0;strokeColor=inherit;overflow=hidden;fillColor=none;top=0;left=0;bottom=0;right=0;pointerEvents=1;fontSize=10;" vertex="1" parent="5yfhdWzZeoEwGh_z6bRw-119">
          <mxGeometry width="80" height="40" as="geometry">
            <mxRectangle width="80" height="40" as="alternateBounds" />
          </mxGeometry>
        </mxCell>
        <mxCell id="5yfhdWzZeoEwGh_z6bRw-136" value="10.0.0.0/24" style="shape=partialRectangle;html=1;whiteSpace=wrap;connectable=0;strokeColor=inherit;overflow=hidden;fillColor=none;top=0;left=0;bottom=0;right=0;pointerEvents=1;fontSize=10;" vertex="1" parent="5yfhdWzZeoEwGh_z6bRw-119">
          <mxGeometry x="80" width="76" height="40" as="geometry">
            <mxRectangle width="76" height="40" as="alternateBounds" />
          </mxGeometry>
        </mxCell>
        <mxCell id="5yfhdWzZeoEwGh_z6bRw-120" value="TCP" style="shape=partialRectangle;html=1;whiteSpace=wrap;connectable=0;strokeColor=inherit;overflow=hidden;fillColor=none;top=0;left=0;bottom=0;right=0;pointerEvents=1;fontSize=10;" vertex="1" parent="5yfhdWzZeoEwGh_z6bRw-119">
          <mxGeometry x="156" width="78" height="40" as="geometry">
            <mxRectangle width="78" height="40" as="alternateBounds" />
          </mxGeometry>
        </mxCell>
        <mxCell id="5yfhdWzZeoEwGh_z6bRw-121" value="23" style="shape=partialRectangle;html=1;whiteSpace=wrap;connectable=0;strokeColor=inherit;overflow=hidden;fillColor=none;top=0;left=0;bottom=0;right=0;pointerEvents=1;fontSize=10;" vertex="1" parent="5yfhdWzZeoEwGh_z6bRw-119">
          <mxGeometry x="234" width="78" height="40" as="geometry">
            <mxRectangle width="78" height="40" as="alternateBounds" />
          </mxGeometry>
        </mxCell>
        <mxCell id="5yfhdWzZeoEwGh_z6bRw-122" value="telnet" style="shape=partialRectangle;html=1;whiteSpace=wrap;connectable=0;strokeColor=inherit;overflow=hidden;fillColor=none;top=0;left=0;bottom=0;right=0;pointerEvents=1;fontSize=10;" vertex="1" parent="5yfhdWzZeoEwGh_z6bRw-119">
          <mxGeometry x="312" width="78" height="40" as="geometry">
            <mxRectangle width="78" height="40" as="alternateBounds" />
          </mxGeometry>
        </mxCell>
        <mxCell id="5yfhdWzZeoEwGh_z6bRw-123" style="shape=tableRow;horizontal=0;startSize=0;swimlaneHead=0;swimlaneBody=0;strokeColor=inherit;top=0;left=0;bottom=0;right=0;collapsible=0;dropTarget=0;fillColor=none;points=[[0,0.5],[1,0.5]];portConstraint=eastwest;fontSize=10;" vertex="1" parent="5yfhdWzZeoEwGh_z6bRw-98">
          <mxGeometry y="200" width="390" height="40" as="geometry" />
        </mxCell>
        <mxCell id="5yfhdWzZeoEwGh_z6bRw-145" value="SG-Resources" style="shape=partialRectangle;html=1;whiteSpace=wrap;connectable=0;strokeColor=inherit;overflow=hidden;fillColor=none;top=0;left=0;bottom=0;right=0;pointerEvents=1;fontSize=10;" vertex="1" parent="5yfhdWzZeoEwGh_z6bRw-123">
          <mxGeometry width="80" height="40" as="geometry">
            <mxRectangle width="80" height="40" as="alternateBounds" />
          </mxGeometry>
        </mxCell>
        <mxCell id="5yfhdWzZeoEwGh_z6bRw-137" value="10.0.12.0/22" style="shape=partialRectangle;html=1;whiteSpace=wrap;connectable=0;strokeColor=inherit;overflow=hidden;fillColor=none;top=0;left=0;bottom=0;right=0;pointerEvents=1;fontSize=10;" vertex="1" parent="5yfhdWzZeoEwGh_z6bRw-123">
          <mxGeometry x="80" width="76" height="40" as="geometry">
            <mxRectangle width="76" height="40" as="alternateBounds" />
          </mxGeometry>
        </mxCell>
        <mxCell id="5yfhdWzZeoEwGh_z6bRw-124" value="TCP" style="shape=partialRectangle;html=1;whiteSpace=wrap;connectable=0;strokeColor=inherit;overflow=hidden;fillColor=none;top=0;left=0;bottom=0;right=0;pointerEvents=1;fontSize=10;" vertex="1" parent="5yfhdWzZeoEwGh_z6bRw-123">
          <mxGeometry x="156" width="78" height="40" as="geometry">
            <mxRectangle width="78" height="40" as="alternateBounds" />
          </mxGeometry>
        </mxCell>
        <mxCell id="5yfhdWzZeoEwGh_z6bRw-125" value="5432" style="shape=partialRectangle;html=1;whiteSpace=wrap;connectable=0;strokeColor=inherit;overflow=hidden;fillColor=none;top=0;left=0;bottom=0;right=0;pointerEvents=1;fontSize=10;" vertex="1" parent="5yfhdWzZeoEwGh_z6bRw-123">
          <mxGeometry x="234" width="78" height="40" as="geometry">
            <mxRectangle width="78" height="40" as="alternateBounds" />
          </mxGeometry>
        </mxCell>
        <mxCell id="5yfhdWzZeoEwGh_z6bRw-126" value="postgres" style="shape=partialRectangle;html=1;whiteSpace=wrap;connectable=0;strokeColor=inherit;overflow=hidden;fillColor=none;top=0;left=0;bottom=0;right=0;pointerEvents=1;fontSize=10;" vertex="1" parent="5yfhdWzZeoEwGh_z6bRw-123">
          <mxGeometry x="312" width="78" height="40" as="geometry">
            <mxRectangle width="78" height="40" as="alternateBounds" />
          </mxGeometry>
        </mxCell>
        <mxCell id="5yfhdWzZeoEwGh_z6bRw-127" style="shape=tableRow;horizontal=0;startSize=0;swimlaneHead=0;swimlaneBody=0;strokeColor=inherit;top=0;left=0;bottom=0;right=0;collapsible=0;dropTarget=0;fillColor=none;points=[[0,0.5],[1,0.5]];portConstraint=eastwest;fontSize=10;" vertex="1" parent="5yfhdWzZeoEwGh_z6bRw-98">
          <mxGeometry y="240" width="390" height="40" as="geometry" />
        </mxCell>
        <mxCell id="5yfhdWzZeoEwGh_z6bRw-146" style="shape=partialRectangle;html=1;whiteSpace=wrap;connectable=0;strokeColor=inherit;overflow=hidden;fillColor=none;top=0;left=0;bottom=0;right=0;pointerEvents=1;fontSize=10;" vertex="1" parent="5yfhdWzZeoEwGh_z6bRw-127">
          <mxGeometry width="80" height="40" as="geometry">
            <mxRectangle width="80" height="40" as="alternateBounds" />
          </mxGeometry>
        </mxCell>
        <mxCell id="5yfhdWzZeoEwGh_z6bRw-138" value="10.0.12.0/22" style="shape=partialRectangle;html=1;whiteSpace=wrap;connectable=0;strokeColor=inherit;overflow=hidden;fillColor=none;top=0;left=0;bottom=0;right=0;pointerEvents=1;fontSize=10;" vertex="1" parent="5yfhdWzZeoEwGh_z6bRw-127">
          <mxGeometry x="80" width="76" height="40" as="geometry">
            <mxRectangle width="76" height="40" as="alternateBounds" />
          </mxGeometry>
        </mxCell>
        <mxCell id="5yfhdWzZeoEwGh_z6bRw-128" value="ICMP" style="shape=partialRectangle;html=1;whiteSpace=wrap;connectable=0;strokeColor=inherit;overflow=hidden;fillColor=none;top=0;left=0;bottom=0;right=0;pointerEvents=1;fontSize=10;" vertex="1" parent="5yfhdWzZeoEwGh_z6bRw-127">
          <mxGeometry x="156" width="78" height="40" as="geometry">
            <mxRectangle width="78" height="40" as="alternateBounds" />
          </mxGeometry>
        </mxCell>
        <mxCell id="5yfhdWzZeoEwGh_z6bRw-129" value="*" style="shape=partialRectangle;html=1;whiteSpace=wrap;connectable=0;strokeColor=inherit;overflow=hidden;fillColor=none;top=0;left=0;bottom=0;right=0;pointerEvents=1;fontSize=10;" vertex="1" parent="5yfhdWzZeoEwGh_z6bRw-127">
          <mxGeometry x="234" width="78" height="40" as="geometry">
            <mxRectangle width="78" height="40" as="alternateBounds" />
          </mxGeometry>
        </mxCell>
        <mxCell id="5yfhdWzZeoEwGh_z6bRw-130" value="ping" style="shape=partialRectangle;html=1;whiteSpace=wrap;connectable=0;strokeColor=inherit;overflow=hidden;fillColor=none;top=0;left=0;bottom=0;right=0;pointerEvents=1;fontSize=10;" vertex="1" parent="5yfhdWzZeoEwGh_z6bRw-127">
          <mxGeometry x="312" width="78" height="40" as="geometry">
            <mxRectangle width="78" height="40" as="alternateBounds" />
          </mxGeometry>
        </mxCell>
        <mxCell id="5yfhdWzZeoEwGh_z6bRw-149" style="shape=tableRow;horizontal=0;startSize=0;swimlaneHead=0;swimlaneBody=0;strokeColor=inherit;top=0;left=0;bottom=0;right=0;collapsible=0;dropTarget=0;fillColor=none;points=[[0,0.5],[1,0.5]];portConstraint=eastwest;fontSize=10;" vertex="1" parent="5yfhdWzZeoEwGh_z6bRw-98">
          <mxGeometry y="280" width="390" height="40" as="geometry" />
        </mxCell>
        <mxCell id="5yfhdWzZeoEwGh_z6bRw-150" style="shape=partialRectangle;html=1;whiteSpace=wrap;connectable=0;strokeColor=inherit;overflow=hidden;fillColor=none;top=0;left=0;bottom=0;right=0;pointerEvents=1;fontSize=10;" vertex="1" parent="5yfhdWzZeoEwGh_z6bRw-149">
          <mxGeometry width="80" height="40" as="geometry">
            <mxRectangle width="80" height="40" as="alternateBounds" />
          </mxGeometry>
        </mxCell>
        <mxCell id="5yfhdWzZeoEwGh_z6bRw-151" value="10.0.12.0/22" style="shape=partialRectangle;html=1;whiteSpace=wrap;connectable=0;strokeColor=inherit;overflow=hidden;fillColor=none;top=0;left=0;bottom=0;right=0;pointerEvents=1;fontSize=10;" vertex="1" parent="5yfhdWzZeoEwGh_z6bRw-149">
          <mxGeometry x="80" width="76" height="40" as="geometry">
            <mxRectangle width="76" height="40" as="alternateBounds" />
          </mxGeometry>
        </mxCell>
        <mxCell id="5yfhdWzZeoEwGh_z6bRw-152" value="TCP" style="shape=partialRectangle;html=1;whiteSpace=wrap;connectable=0;strokeColor=inherit;overflow=hidden;fillColor=none;top=0;left=0;bottom=0;right=0;pointerEvents=1;fontSize=10;" vertex="1" parent="5yfhdWzZeoEwGh_z6bRw-149">
          <mxGeometry x="156" width="78" height="40" as="geometry">
            <mxRectangle width="78" height="40" as="alternateBounds" />
          </mxGeometry>
        </mxCell>
        <mxCell id="5yfhdWzZeoEwGh_z6bRw-153" value="23" style="shape=partialRectangle;html=1;whiteSpace=wrap;connectable=0;strokeColor=inherit;overflow=hidden;fillColor=none;top=0;left=0;bottom=0;right=0;pointerEvents=1;fontSize=10;" vertex="1" parent="5yfhdWzZeoEwGh_z6bRw-149">
          <mxGeometry x="234" width="78" height="40" as="geometry">
            <mxRectangle width="78" height="40" as="alternateBounds" />
          </mxGeometry>
        </mxCell>
        <mxCell id="5yfhdWzZeoEwGh_z6bRw-154" value="telnet" style="shape=partialRectangle;html=1;whiteSpace=wrap;connectable=0;strokeColor=inherit;overflow=hidden;fillColor=none;top=0;left=0;bottom=0;right=0;pointerEvents=1;fontSize=10;" vertex="1" parent="5yfhdWzZeoEwGh_z6bRw-149">
          <mxGeometry x="312" width="78" height="40" as="geometry">
            <mxRectangle width="78" height="40" as="alternateBounds" />
          </mxGeometry>
        </mxCell>
        <mxCell id="Fm_4-P_1yy4wfb5h5vrD-69" style="edgeStyle=orthogonalEdgeStyle;rounded=0;orthogonalLoop=1;jettySize=auto;html=1;exitX=0;exitY=0.5;exitDx=0;exitDy=0;exitPerimeter=0;entryX=0;entryY=0.5;entryDx=0;entryDy=0;entryPerimeter=0;fontSize=10;" edge="1" parent="1" source="Fm_4-P_1yy4wfb5h5vrD-10" target="Fm_4-P_1yy4wfb5h5vrD-11">
          <mxGeometry relative="1" as="geometry" />
        </mxCell>
        <mxCell id="Fm_4-P_1yy4wfb5h5vrD-70" style="edgeStyle=orthogonalEdgeStyle;rounded=0;orthogonalLoop=1;jettySize=auto;html=1;fontSize=10;" edge="1" parent="1" source="Fm_4-P_1yy4wfb5h5vrD-10" target="Fm_4-P_1yy4wfb5h5vrD-8">
          <mxGeometry relative="1" as="geometry" />
        </mxCell>
        <mxCell id="Fm_4-P_1yy4wfb5h5vrD-71" style="edgeStyle=orthogonalEdgeStyle;rounded=0;orthogonalLoop=1;jettySize=auto;html=1;fontSize=10;" edge="1" parent="1" source="Fm_4-P_1yy4wfb5h5vrD-11" target="Fm_4-P_1yy4wfb5h5vrD-12">
          <mxGeometry relative="1" as="geometry" />
        </mxCell>
        <mxCell id="5yfhdWzZeoEwGh_z6bRw-1" value="&lt;div style=&quot;font-size: 10px;&quot;&gt;&lt;span style=&quot;background-color: initial; font-size: 10px;&quot;&gt;SG-public&lt;/span&gt;&lt;/div&gt;" style="fontStyle=0;verticalAlign=top;align=left;spacingTop=-2;fillColor=none;rounded=0;whiteSpace=wrap;html=1;strokeColor=#FF0000;strokeWidth=2;dashed=1;container=1;collapsible=0;expand=0;recursiveResize=0;fontSize=10;" vertex="1" parent="1">
          <mxGeometry x="80" y="170" width="166" height="50" as="geometry" />
        </mxCell>
        <mxCell id="5yfhdWzZeoEwGh_z6bRw-3" value="&lt;div style=&quot;font-size: 10px;&quot;&gt;&lt;span style=&quot;background-color: initial; font-size: 10px;&quot;&gt;SG-App&lt;/span&gt;&lt;/div&gt;" style="fontStyle=0;verticalAlign=top;align=left;spacingTop=-2;fillColor=none;rounded=0;whiteSpace=wrap;html=1;strokeColor=#FF0000;strokeWidth=2;dashed=1;container=1;collapsible=0;expand=0;recursiveResize=0;fontSize=10;" vertex="1" parent="1">
          <mxGeometry x="80" y="300" width="166" height="50" as="geometry" />
        </mxCell>
      </root>
    </mxGraphModel>
  </diagram>
</mxfile>
